<?xml version="1.0" encoding="utf-8"?>
<!-- Generator: Adobe Illustrator 24.2.1, SVG Export Plug-In . SVG Version: 6.00 Build 0)  -->
<svg version="1.0" id="Layer_1" xmlns="http://www.w3.org/2000/svg" xmlns:xlink="http://www.w3.org/1999/xlink" x="0px" y="0px"
	 width="270px" height="270px" viewBox="0 0 270 270" style="enable-background:new 0 0 270 270;" xml:space="preserve">
<g>
	<g>
		<path id="XMLID_7_" style="fill:#4C4444;" d="M58.42158,118.69178c-6.42731-8.97973-14.24289-17.85899-24.38206-22.69081
			c-4.38473-2.0896-8.63007-3.7075-13.21883-1.98541c-5.18022,1.94416-8.11979,6.78291-4.21921,11.51463
			c1.49699,1.81596,3.51414,3.11097,5.45554,4.44101c12.92974,8.85847,24.52988,20.79128,32.08881,34.60149
			c3.47298,6.4122,5.96813,13.48955,10.80947,18.94508c4.14124,4.66585,17.62572,11.06667,19.39172,0.50104
			c0.44432-2.65749-0.50816-5.33081-1.49024-7.84029c-4.82559-12.32806-13.7719-21.65823-20.99939-32.50015
			C60.74445,122.00874,59.6019,120.34097,58.42158,118.69178z"/>
		<path id="XMLID_71_" style="fill:#6F6363;" d="M74.26565,161.85374c-1.10352-3.54001-2.81573-7.08731-4.21049-9.66817
			c-3.04919-5.64232-6.65863-10.97838-10.74929-15.91759c-8.35057-10.08272-18.7054-18.51846-30.33836-24.53719
			c-3.06414-1.58527-6.26107-3.04039-8.81606-5.35838c-4.47453-4.05919-5.80181-9.92821,0.66924-12.35687
			c4.58876-1.72208,8.66208,0.30369,13.21883,1.98541c7.33108,2.70559,16.81637,10.76911,24.38206,22.6909
			c1.08663,1.71222,2.32288,3.31686,3.436,4.98641c7.22731,10.84201,16.17362,20.17218,20.99921,32.50024
			c0.98209,2.50948,1.93456,5.1828,1.49024,7.84029c-0.89834,5.37465-4.82977,6.34891-9.02036,5.40453
			C75.58208,167.18144,75.09642,164.51959,74.26565,161.85374z"/>
		<path id="XMLID_24_" style="fill:#FFFFFF;" d="M23.95415,102.45424c2.02221,1.3559,17.73756,9.03395,13.11928,0.84579
			c-1.65062-2.92624-9.14704-5.92787-12.32096-6.24071c-0.97417-0.0961-2.08382-0.05823-2.75351,0.65564
			c-0.66915,0.71298-0.62612,1.88309-0.15006,2.73706C22.32505,101.30609,23.14196,101.90945,23.95415,102.45424z"/>
		
			<path id="XMLID_3_" style="fill:none;stroke:#7D1619;stroke-width:1.3419;stroke-linecap:round;stroke-linejoin:round;stroke-miterlimit:10;" d="
			M58.42158,118.69178c-6.42731-8.97973-14.24289-17.85899-24.38206-22.69081c-4.38473-2.0896-8.63007-3.7075-13.21883-1.98541
			c-5.18022,1.94416-8.11979,6.78291-4.21921,11.51463c1.49699,1.81596,3.51414,3.11097,5.45554,4.44101
			c12.92974,8.85847,24.52988,20.79128,32.08881,34.60149c3.47298,6.4122,5.96813,13.48955,10.80947,18.94508
			c4.14124,4.66585,17.62572,11.06667,19.39172,0.50104c0.44432-2.65749-0.50816-5.33081-1.49024-7.84029
			c-4.82559-12.32806-13.7719-21.65823-20.99939-32.50015C60.74445,122.00874,59.6019,120.34097,58.42158,118.69178z"/>
		<path id="XMLID_8_" style="fill:#D46B50;" d="M212.29601,214.24382c2.7328,8.04832-19.81293,27.39915-26.47867,31.14363
			c-17.99538,10.1077-43.05965,8.16167-62.76394,5.00552c-30.23133-4.8423-72.433-25.96555-70.16595-62.05682
			c0.24199-3.85463,2.53401-14.9252,5.53697-17.11934c1.71311-1.25172,8.98035-0.2267,11.47338-0.78259
			c4.35469-0.97089,8.53442-2.86455,12.14546-5.48265c0.42699,0.17415,0.85406,0.34839,1.28096,0.52272
			c33.25421,13.56903,66.50851,27.13832,99.76279,40.70752c4.37497,1.78513,27.46129,4.31291,29.04327,7.65236
			C212.19307,213.96681,212.24808,214.10292,212.29601,214.24382z"/>
		<path id="XMLID_112_" style="fill:#D9985B;" d="M70.12805,226.45515c-10.96807-9.87637-18.21468-22.61177-17.24079-38.119
			c0.28689-4.56662,1.50962-15.54137,6.39363-17.68643c11.63356-5.10954,3.49475,13.13136,2.08783,16.42085
			c-1.79054,4.18631-2.69938,7.26271-2.50512,12.01939C59.2383,208.26759,63.06973,220.09932,70.12805,226.45515z"/>
		<path id="XMLID_59_" style="fill:#C95342;" d="M165.24243,240.89995c5.46968-3.07408,13.6142-9.71512,16.38725-15.37958
			c2.61935-5.35046,0.32512-14.80917,6.58484-17.30959c3.21944-1.28595,22.26633,2.68968,23.76837,5.85924
			c0.06277,0.13272,0.1178,0.26874,0.16571,0.40974c2.73289,8.04814-19.66553,27.16321-26.33136,30.90759
			c-17.99529,10.10779-43.05956,8.16167-62.76385,5.00545c-5.03095-0.8058-10.39502-2.0728-15.82896-3.77435
			C126.08569,249.28964,148.6588,250.21465,165.24243,240.89995z"/>
		<path id="XMLID_5_" style="fill:#C95342;" d="M212.29601,214.24382c2.7328,8.04832-30.53093,23.69539-85.18636,12.62491
			c-69.74759-14.12741-73.73974-43.51579-72.57852-46.94983c1.29056-3.81641,2.31265-7.54718,3.8933-8.70209
			c1.71311-1.25172,8.98035-0.2267,11.47338-0.78259c4.35469-0.97089,8.53442-2.86455,12.14546-5.48265
			c0.42699,0.17415,0.85406,0.34839,1.28096,0.52272c33.25421,13.56903,66.50851,27.13832,99.76279,40.70752
			c4.37497,1.78513,27.46129,4.31291,29.04327,7.65236C212.19307,213.96681,212.24808,214.10292,212.29601,214.24382z"/>
		
			<path id="XMLID_1_" style="fill:none;stroke:#7D1619;stroke-width:1.3419;stroke-linecap:round;stroke-linejoin:round;stroke-miterlimit:10;" d="
			M212.14861,214.47977c2.73271,8.04831-19.66553,27.16321-26.33127,30.90768c-17.99538,10.1077-43.05965,8.16167-62.76394,5.00552
			c-30.23133-4.8423-72.433-25.96555-70.16595-62.05682c0.24199-3.85463,2.53401-14.9252,5.53697-17.11934
			c1.71311-1.25172,8.98035-0.2267,11.47338-0.78259c4.35469-0.97089,8.53442-2.86455,12.14546-5.48265
			c0.42699,0.17415,0.85406,0.34839,1.28096,0.52272c33.25421,13.56903,66.50851,27.13832,99.76279,40.70752
			c4.37497,1.78513,27.3139,4.54877,28.89587,7.88821C212.04567,214.20274,212.10069,214.33876,212.14861,214.47977z"/>
		<path id="XMLID_11_" style="fill:#7D1619;" d="M58.0394,189.36606c0.59874,1.01685,1.23936,1.99333,1.94043,2.91753
			c0.02098,0.05379,0.06116,0.09531,0.0857,0.13353c7.0489,9.59421,18.28544,15.63774,29.4547,20.10773
			c23.5125,9.42548,48.82908,13.81235,74.09516,14.21684c10.26842,0.17105,26.24309,0.81459,38.10239-3.90245
			c0.10428-0.02658,0.21193-0.06873,0.3196-0.11095c7.49028-3.04413,13.2728-8.2655,14.85443-17.17624
			c1.47432-8.3432-2.12224-16.98796-7.74927-23.31836c-5.64632-6.31805-13.13171-10.67416-20.70175-14.49066
			c-28.83932-14.57457-61.47248-23.26413-93.91565-22.36162C70.86353,146.04861,41.5772,161.7524,58.0394,189.36606z"/>
		<path id="XMLID_86_" style="fill:#F2BDBD;stroke:#7D1619;stroke-width:1.87565;stroke-linecap:round;stroke-miterlimit:10;" d="
			M60.66213,189.29015c0.57847,0.98225,1.1974,1.92575,1.87464,2.81857c0.02027,0.05202,0.0592,0.0921,0.08285,0.12909
			c6.80994,9.26892,17.66555,15.10762,28.45617,19.42604c22.71544,9.10588,47.17394,13.3441,71.58338,13.735
			c9.92038,0.16518,25.35355,0.78694,36.81093-3.77036c0.10063-0.0256,0.20464-0.06631,0.30856-0.10712
			c7.23648-2.94083,12.82306-7.98529,14.351-16.59386c1.42427-8.0605-2.05022-16.41214-7.48674-22.52803
			c-5.45483-6.10381-12.68633-10.31226-19.9998-13.9994c-27.86169-14.08046-59.38866-22.47557-90.73204-21.60356
			C73.05154,147.44106,44.75797,162.6125,60.66213,189.29015z"/>
		<path id="XMLID_79_" style="fill:#6F6363;" d="M62.61963,192.23781c6.80994,9.26892,17.66555,15.10762,28.45617,19.42604
			c22.71544,9.10588,47.17394,13.3441,71.58338,13.735c10.0146,0.16989,25.63599,0.80099,37.11949-3.87747
			c0.15913-0.58363,0.30937-1.20096,0.41783-1.84308c1.24541-7.02153-1.77116-14.27444-6.50723-19.60339
			c-4.73927-5.31366-11.04453-8.97137-17.41182-12.19864c-24.23518-12.24352-51.68839-19.54427-78.96458-18.78453
			C81.77968,169.51036,63.39101,177.64581,62.61963,192.23781z"/>
		<path id="XMLID_78_" style="fill:#887879;" d="M62.53677,192.10872c0.02027,0.05202,0.0592,0.0921,0.08285,0.12909
			c6.80994,9.26892,17.66555,15.10762,28.45617,19.42604c22.71544,9.10588,47.17394,13.3441,71.58338,13.735
			c9.92038,0.16518,25.35355,0.78694,36.81093-3.77036c0.22215-6.1823-2.62202-12.33543-6.77055-17.0132
			c-4.73936-5.31374-11.04462-8.97127-17.41193-12.19853c-24.23537-12.24344-51.68839-19.54437-78.96467-18.78453
			C82.54378,174.00517,66.48705,180.46092,62.53677,192.10872z"/>
		
			<path id="XMLID_2_" style="fill:none;stroke:#7D1619;stroke-width:1.3419;stroke-linecap:round;stroke-linejoin:round;stroke-miterlimit:10;" d="
			M58.0394,189.36606c0.59874,1.01685,1.23936,1.99333,1.94043,2.91753c0.02098,0.05379,0.06116,0.09531,0.0857,0.13353
			c7.0489,9.59421,18.28544,15.63774,29.4547,20.10773c23.5125,9.42548,48.82908,13.81235,74.09516,14.21684
			c10.26842,0.17105,26.24309,0.81459,38.10239-3.90245c0.10428-0.02658,0.21193-0.06873,0.3196-0.11095
			c7.49028-3.04413,13.2728-8.2655,14.85443-17.17624c1.47432-8.3432-2.12224-16.98796-7.74927-23.31836
			c-5.64632-6.31805-13.13171-10.67416-20.70175-14.49066c-28.83932-14.57457-61.47248-23.26413-93.91565-22.36162
			C70.86353,146.04861,41.5772,161.7524,58.0394,189.36606z"/>
		
			<path id="XMLID_4_" style="fill:none;stroke:#7D1619;stroke-width:1.3419;stroke-linecap:round;stroke-linejoin:round;stroke-miterlimit:10;" d="
			M23.95415,102.45424c2.02221,1.3559,17.73756,9.03395,13.11928,0.84579c-1.65062-2.92624-9.14704-5.92787-12.32096-6.24071
			c-0.97417-0.0961-2.08382-0.05823-2.75351,0.65564c-0.66915,0.71298-0.62612,1.88309-0.15006,2.73706
			C22.32505,101.30609,23.14196,101.90945,23.95415,102.45424z"/>
	</g>
	<g>
		<g>
			<path style="fill:#FFF7EA;" d="M170.82101,182.88025c0.42654,6.16249,10.24149,10.50285,21.92174,9.69449
				c11.68069-0.80855,20.80347-6.45967,20.377-12.62233c-0.42653-6.16238-10.24139-10.50276-21.92165-9.69394
				C179.51741,171.0663,170.39473,176.71796,170.82101,182.88025z"/>
			<path style="fill:#7D1619;" d="M169.95398,182.94026c-0.22972-3.31775,1.92166-6.55577,6.05774-9.11761
				c3.96683-2.45755,9.33862-4.03117,15.12611-4.43141c5.71149-0.39534,11.19504,0.3997,15.44118,2.23869
				c4.54468,1.96834,7.1754,4.90266,7.40779,8.26248c0.46664,6.74353-8.83855,12.69504-21.18369,13.54929
				c-5.7113,0.39552-11.19476-0.3997-15.44081-2.23877C172.81754,189.23457,170.18636,186.30069,169.95398,182.94026z
				 M191.25784,171.12541c-5.51065,0.38139-10.60001,1.86398-14.3308,4.17494c-3.56126,2.20596-5.42168,4.87662-5.23898,7.5199
				c0.18562,2.67972,2.44591,5.09052,6.3649,6.78789c3.9957,1.73062,9.19122,2.47588,14.6297,2.09982
				c10.99411-0.76143,19.95596-6.11731,19.57014-11.69572c-0.18555-2.67944-2.44592-5.0898-6.36473-6.78708
				C201.89236,171.49463,196.69685,170.74884,191.25784,171.12541z"/>
		</g>
		<g>
			<path style="fill:#FEE486;" d="M170.81871,182.77037c0.00214,0.03664,0.00008,0.07317,0.0023,0.10988
				c0.42654,6.16249,10.24149,10.50285,21.92174,9.69449c11.68069-0.80855,20.80347-6.45967,20.377-12.62233l0.68285,9.44272
				c0.42628,6.16231-8.69658,11.81361-20.37682,12.62242c-11.35017,0.78606-20.14624-2.88116-21.07132-8.76663l-0.00116-0.00044
				L170.81871,182.77037C170.81871,182.77037,170.31198,182.89981,170.81871,182.77037z"/>
			<path style="fill:#7D1619;" d="M171.50307,193.4305c-0.00365-0.01787-0.00687-0.03601-0.00987-0.05414l-1.35724-9.26892
				c-0.05095-0.20892-0.09238-0.42023-0.12411-0.63342c-0.12321-0.11076-0.2162-0.25833-0.26038-0.43071
				c-0.11914-0.46495,0.16142-0.93826,0.62648-1.05756l0.21147-0.05415c0.02802-0.0079,0.05647-0.01404,0.08554-0.01875
				c0.07698-0.01324,0.15353-0.01538,0.22847-0.00783c0.39,0.03841,0.71663,0.33748,0.77521,0.7394l0.16492,1.12352
				c0.59634,2.29042,2.79956,4.36331,6.20941,5.84021c3.99553,1.73053,9.19122,2.47588,14.6297,2.09982
				c10.99411-0.76143,19.95596-6.11731,19.57014-11.69572c-0.03317-0.4781,0.32741-0.89299,0.8056-0.92686
				c0.47856-0.03441,0.89417,0.32573,0.9283,0.80428l0.68285,9.44565c0.46655,6.74292-8.83864,12.69443-21.18387,13.54956
				c-5.75452,0.39845-11.11707-0.33195-15.09952-2.05679C174.4469,199.12189,172.00446,196.49622,171.50307,193.4305z
				 M192.80312,193.4417c-5.71149,0.39543-11.19495-0.39925-15.44081-2.23877c-2.01183-0.87132-3.66475-1.95128-4.89574-3.17792
				l0.74071,5.05682c0.00223,0.01181,0.00409,0.0224,0.00587,0.03395c0.38902,2.47534,2.47186,4.64726,5.86421,6.11652
				c3.73177,1.6163,8.8062,2.29771,14.28806,1.91829c10.99393-0.76152,19.9558-6.1174,19.57022-11.69269l-0.34012-4.70212
				C209.5874,189.30409,202.0475,192.80197,192.80312,193.4417z"/>
		</g>
		<g>
			<path style="fill:#7D1619;" d="M201.25629,178.6246c0,0-3.22636,1.40134-5.07558,1.13535
				c-1.84949-0.2652-1.87163-2.00089-1.87163-2.00089s-0.49258,1.27431-1.63878,0.89684
				c-1.14619-0.37694-2.23763-1.98088-2.23763-1.98088s1.71506,3.59949,0.15469,4.59117
				c-1.56029,0.99123-3.65692,1.57104-3.65692,1.57104s5.39491-0.22296,5.93605,0.72604
				c0.54158,0.94856,0.64925,2.3347,0.64925,2.3347s0.24269-3.01994,1.25198-2.46396c1.00954,0.55589,3.2789,3.56303,3.2789,3.56303
				s-1.45557-3.78583-1.24567-4.40866C197.01138,181.96494,198.95128,179.87996,201.25629,178.6246z"/>
		</g>
		<g>
			<path style="fill:#7D1619;" d="M199.87967,185.51349c-0.13495,0.31158,0.0024,0.67119,0.30698,0.80302
				c0.30438,0.13184,0.66087-0.01387,0.79582-0.32545c0.13522-0.31223-0.0023-0.67191-0.30679-0.80376
				C200.3712,185.05537,200.01497,185.20126,199.87967,185.51349z"/>
		</g>
		<g>
			<path style="fill:#7D1619;" d="M187.28197,186.56126c-0.21603,0.49881,0.12544,1.12556,0.7625,1.4015
				c0.63661,0.27577,1.32719,0.09593,1.54321-0.40289c0.21594-0.49837-0.12508-1.12575-0.76169-1.4015
				C188.18892,185.88242,187.49782,186.06288,187.28197,186.56126z"/>
		</g>
		<g>
			<path style="fill:#7D1619;" d="M178.2697,183.72917c-0.13202,0.30492,0.0865,0.69217,0.48816,0.86615
				c0.4012,0.1738,0.83334,0.06836,0.96545-0.23657c0.13165-0.30403-0.08676-0.69199-0.48798-0.8658
				C178.83368,183.31898,178.40146,183.42513,178.2697,183.72917z"/>
		</g>
		<g>
			<path style="fill:#7D1619;" d="M176.97977,178.73599c-0.16199,0.3741,0.13344,0.86153,0.65936,1.08929
				c0.52603,0.22777,1.08344,0.10971,1.24541-0.2643c0.16197-0.3741-0.13318-0.86145-0.65919-1.0892
				C177.6994,178.24402,177.14183,178.36189,176.97977,178.73599z"/>
		</g>
		<g>
			<path style="fill:#7D1619;" d="M194.85378,173.20239c-0.12596,0.2908,0.0529,0.64781,0.39864,0.79753
				c0.34627,0.14998,0.72853,0.036,0.85451-0.25479c0.12578-0.29062-0.05246-0.64764-0.39873-0.79761
				C195.36247,172.79781,194.97966,172.91177,194.85378,173.20239z"/>
		</g>
		<g>
			<path style="fill:#7D1619;" d="M204.0209,175.952c-0.12001,0.2771,0.11931,0.64763,0.53464,0.82748
				c0.4149,0.17966,0.84892,0.10089,0.96893-0.1763c0.11975-0.27647-0.11975-0.64665-0.53464-0.82642
				C204.57449,175.59692,204.14066,175.67551,204.0209,175.952z"/>
		</g>
		<g>
			<path style="fill:#7D1619;" d="M207.80441,182.47212c-0.10828,0.24998-0.07184,0.50494,0.08028,0.57082
				c0.15237,0.06596,0.36298-0.08195,0.47125-0.33195c0.10785-0.2491,0.07158-0.50371-0.08072-0.56967
				C208.12303,182.07544,207.91225,182.22302,207.80441,182.47212z"/>
		</g>
		<g>
			<path style="fill:#7D1619;" d="M184.99954,175.75046c-0.09584,0.22118,0.02844,0.48851,0.27728,0.59625
				c0.24901,0.10793,0.52895,0.01564,0.62479-0.20554c0.09584-0.22128-0.02827-0.48877-0.27737-0.59662
				C185.37541,175.43672,185.09538,175.52917,184.99954,175.75046z"/>
		</g>
		<g>
			<path style="fill:#7D1619;" d="M195.0322,189.00859c-0.11646,0.26892,0.02472,0.58905,0.31534,0.71494
				c0.29097,0.12607,0.62105,0.01006,0.73752-0.25887c0.11646-0.26894-0.02463-0.58932-0.3156-0.7153
				C195.47884,188.62347,195.14867,188.73967,195.0322,189.00859z"/>
		</g>
		<g>
			<path style="fill:#7D1619;" d="M201.24757,201.3828c0.41765,0.18083,0.90909,0.00801,1.11899-0.40271
				c0.45624-0.89407,0.36804-1.65604,0.28296-2.39337l-0.02187-0.19203c-0.17805-1.60269-0.34885-3.04839-0.63171-4.51987
				c-0.09006-0.47125-0.54532-0.78099-1.01747-0.68961c-0.47116,0.09033-0.78036,0.54585-0.68951,1.01729
				c0.27061,1.40898,0.43695,2.81912,0.61093,4.38438l0.02284,0.19949c0.07841,0.67751,0.10402,0.99417-0.10455,1.40329
				c-0.21832,0.4277-0.04836,0.95097,0.37891,1.16966C201.21379,201.3676,201.23068,201.3755,201.24757,201.3828z"/>
		</g>
		<g>
			<path style="fill:#7D1619;" d="M196.50137,200.20309c0.2025,0.08774,0.43872,0.09912,0.66078,0.01218
				c0.44736-0.17415,0.66881-0.67795,0.49438-1.12512c-0.32387-0.83264-0.41801-1.91687-0.50905-2.965
				c-0.05386-0.62035-0.1097-1.26265-0.21371-1.85864c-0.02702-0.15477-0.06561-0.34325-0.10667-0.54247
				c-0.06456-0.3156-0.18536-0.90297-0.17763-1.07329c0.02071-0.47562-0.34387-0.88838-0.81956-0.91586
				c-0.47501-0.02649-0.88261,0.32414-0.91515,0.79895c-0.02463,0.36263,0.06711,0.845,0.20972,1.53949
				c0.03716,0.18082,0.07219,0.35196,0.09673,0.49162c0.09113,0.52264,0.14134,1.09969,0.1945,1.71053
				c0.10126,1.17073,0.20616,2.38092,0.62115,3.44533C196.12451,199.94617,196.29582,200.11411,196.50137,200.20309z"/>
		</g>
		<g>
			<path style="fill:#7D1619;" d="M192.10596,197.20457c0.18474,0.08002,0.39766,0.09691,0.60497,0.03174
				c0.45811-0.1434,0.71342-0.63155,0.5695-1.0892c-0.25417-0.81282-0.39775-2.21744-0.20865-2.88153
				c0.13156-0.46147-0.13397-0.94215-0.59813-1.07382c-0.46165-0.13121-0.94278,0.13664-1.07417,0.59811
				c-0.32556,1.14459-0.06615,2.95586,0.22224,3.87668C191.70013,196.91769,191.8822,197.10768,192.10596,197.20457z"/>
		</g>
		<g>
			<path style="fill:#7D1619;" d="M187.48643,202.13925c0.0921,0.03992,0.19273,0.06454,0.29906,0.0705
				c0.47926,0.02551,0.88875-0.34262,0.91426-0.82188c0.01404-0.26314,0.03191-0.53394,0.04996-0.80943
				c0.11894-1.80832,0.25362-3.8573-0.51286-5.59734c-0.1931-0.439-0.70641-0.63858-1.14601-0.44485
				c-0.43925,0.1938-0.6384,0.70667-0.44485,1.14601c0.59474,1.34969,0.4749,3.17339,0.36911,4.78203
				c-0.01894,0.28323-0.0368,0.56042-0.05139,0.83104C186.94388,201.66808,187.16231,201.99887,187.48643,202.13925z"/>
		</g>
		<g>
			<path style="fill:#7D1619;" d="M182.87776,201.82205c0.07547,0.03271,0.15735,0.05521,0.24323,0.0658
				c0.47668,0.05644,0.9091-0.28395,0.9659-0.76045c0.03671-0.3092,0.06064-0.61902,0.08401-0.92955
				c0.01431-0.18936,0.02863-0.3788,0.04694-0.56914c0.04498-0.47784-0.30617-0.90189-0.78401-0.94687
				c-0.47801-0.045-0.90207,0.30598-0.94705,0.78383c-0.01875,0.20047-0.03404,0.40085-0.04933,0.60114
				c-0.0217,0.28537-0.04295,0.57021-0.077,0.85513C182.31404,201.31248,182.53452,201.67342,182.87776,201.82205z"/>
		</g>
		<g>
			<path style="fill:#7D1619;" d="M175.0692,196.7607c0.16348,0.07077,0.35017,0.09254,0.53714,0.05005
				c0.46841-0.10651,0.76143-0.57172,0.65511-1.03978c-0.33809-1.49219-0.55438-3.08163-0.76419-4.71481l-0.03333-0.23773
				c-0.03432-0.23531-0.11452-0.78632-0.04756-0.94963c0.24748-0.41125,0.11156-0.93932-0.29968-1.18672
				c-0.4117-0.24768-0.94919-0.10829-1.19661,0.30296c-0.38635,0.64258-0.26509,1.47575-0.17647,2.08409l0.02953,0.20776
				c0.21504,1.67728,0.43791,3.31233,0.79343,4.87822C174.63031,196.43622,174.82375,196.65437,175.0692,196.7607z"/>
		</g>
		<g>
			<path style="fill:#7D1619;" d="M211.14928,195.37732c0.16269,0.0704,0.34868,0.09192,0.53484,0.05042
				c0.46841-0.10535,0.7632-0.57013,0.65829-1.03836c-0.20926-0.93346-0.35141-1.91917-0.48894-2.87238
				c-0.08269-0.57295-0.16518-1.14476-0.26199-1.71248c-0.03671-0.2171-0.08669-0.45224-0.1385-0.69653
				c-0.13158-0.61742-0.28067-1.3175-0.19958-1.79294c0.08054-0.47304-0.23843-0.92191-0.71085-1.00325
				c-0.47331-0.08035-0.92226,0.23764-1.00298,0.71094c-0.13718,0.80411,0.04889,1.67729,0.21301,2.44769
				c0.04666,0.21931,0.09201,0.43047,0.12498,0.62578c0.09433,0.55331,0.17487,1.11098,0.25533,1.66891
				c0.14206,0.98599,0.28928,2.00568,0.51286,3.00421C210.70914,195.0515,210.90294,195.27065,211.14928,195.37732z"/>
		</g>
		<g>
			<path style="fill:#7D1619;" d="M206.91266,194.19939c0.22375,0.097,0.48645,0.10002,0.72346-0.01439
				c0.4324-0.20848,0.61395-0.7282,0.40538-1.1606c-0.11111-0.2299-0.17113-0.72862-0.19691-0.94119
				c-0.05733-0.47668-0.49046-0.81628-0.96722-0.75867c-0.47668,0.05734-0.81619,0.49055-0.7585,0.96706
				c0.06232,0.5182,0.14882,1.05728,0.35658,1.48801C206.56985,193.9751,206.72792,194.11938,206.91266,194.19939z"/>
		</g>
	</g>
	
		<path style="fill:#DAEABD;stroke:#7D1619;stroke-width:1.56833;stroke-linecap:round;stroke-linejoin:round;stroke-miterlimit:10;" d="
		M203.30997,219.24277c0,0,2.96046-5.23232-1.42516-7.31995c0,0,4.20587-9.74347-5.89934-16.24075
		c0,0,1.34044-11.39693-12.65788-19.75853c0,0,1.27928-2.99007-2.94562-6.55586c-4.2249-3.56587-7.12874-2.45525-7.12874-2.45525
		s1.44534-11.98793-12.51457-16.33665c-13.95992-4.34883-20.08826,1.91125-20.08826,1.91125s0.00667-5.68365-5.78607-5.88297
		c-5.79274-0.19933-8.42855,3.61922-8.42855,3.61922s-3.73878-8.84869-15.28906-8.1366
		c-11.55019,0.71208-16.07788,7.98271-16.07788,7.98271s-0.65697-2.33168-8.0517-3.42088
		c-7.39472-1.0892-11.69057,6.76646-11.69057,6.76646s-3.65913-2.24873-9.08311,2.35373c0,0-36.74043,31.28711,25.10204,56.52811
		C149.61537,236.07959,202.41661,223.72476,203.30997,219.24277z"/>
	<g>
		<g>
			<g>
				
					<path style="fill:#97CD7E;stroke:#7D1619;stroke-width:0.84605;stroke-linecap:round;stroke-linejoin:round;stroke-miterlimit:10;" d="
					M157.35672,180.13937c0,0,4.14746-2.72382,7.18295-1.33298c3.03523,1.38942,7.29303,4.45355,8.43985,3.83018
					c1.14743-0.62283-0.10225-1.85641,0.47232-1.51762c0.57581,0.33987,4.63197,1.03827,5.0714,0.20555
					c0.43739-0.83336-1.6042-1.71658-1.04483-1.70912c0.56068,0.00578,2.37674,0.36459,2.43452-0.40048
					c0.0585-0.76295-1.1965-0.71547-0.79503-0.90065c0.40041-0.18474,0.99443-0.6312,0.515-0.94821
					c-0.48007-0.31764-0.91631-0.70569-4.21291-0.36414c-3.29774,0.34102-2.72176,0.71484-4.17804,0.13148
					c-1.45459-0.58231-2.57358-0.10509-1.97821-0.51279c0.59555-0.40814,2.58398-0.67128,4.20898-0.40369
					c1.62599,0.26901,4.90942,0.07805,6.41736-0.80936c1.50694-0.88695,1.25252-2.28082,0.47108-2.39363
					c-0.77939-0.11299-0.73505,0.03058-1.09331-0.46834c-0.35828-0.49925-0.70764-0.53188-1.31732-0.52397
					c-0.6127,0.00934-3.76537,0.25577-3.20627-0.53865c0.55971-0.7937,5.01646-0.20154,5.15941-0.57474
					c0.14198-0.37294-0.23825-0.57562,0.282-0.82126c0.51997-0.24554,1.21571-0.52771,0.87477-1.26611
					c-0.34181-0.73805-0.38361-1.19687-1.15747-1.10246c-0.77264,0.09521-2.24857-0.05769-1.60172-0.40654
					c0.64772-0.34848,3.27437-1.33643,2.85609-1.89731c-0.41713-0.56175-0.78322-0.76099-0.35818-1.1333
					c0.42503-0.37151,2.28981-2.15334,1.2166-2.67812c-1.07178-0.52478-1.68829,0.16545-2.10027-0.22919
					c-0.41295-0.39497-0.25798-0.36172-0.85709,0.19087c-0.60025,0.55153-2.0992,2.42014-1.98869,1.96043
					c0.10944-0.46024,2.14729-3.22282,1.12254-3.16716c-1.02423,0.05511-2.37819,0.44379-2.69734,1.1981
					c-0.31932,0.75423-1.51102,4.5965-1.98201,3.84262c-0.46985-0.7545,0.9402-6.24036,0.35364-6.19315
					c-0.58798,0.04729-1.79543,4.71518-2.57349,6.60289c-0.77725,1.88646-1.87793,5.96449-2.96669,5.47937
					c-1.09036-0.48389-1.36516-1.01213-0.38353-3.21774c0.98264-2.20491,2.24991-5.55885,1.73961-5.68588
					c-0.5117-0.12874-1.19276,0.1498-0.83994-0.53091c0.35286-0.67982,1.25679-2.39035,0.54443-2.63412
					c-0.71387-0.24448-0.63741-2.04897-1.12245-1.75951c-0.48611,0.28981-2.14613,1.22504-2.79076,2.0423
					c-0.64355,0.81726-0.25958,1.83704-0.6528,2.63376c-0.39337,0.79807-1.16779-0.33398-1.47014,0.62862
					c-0.30243,0.96111,0.72871,2.36581,0.32031,3.0162c-0.40858,0.64996-1.34125,0.70926-1.13606,1.59151
					c0.20546,0.88109,2.96759,3.66037,2.04968,5.98299c-0.9194,2.32269-3.82884,4.92827-8.04431,5.09798
					C152.32274,178.62282,154.44835,181.28885,157.35672,180.13937z"/>
			</g>
		</g>
		<g>
			<g>
				
					<path style="fill:#63C08A;stroke:#7D1619;stroke-width:0.84605;stroke-linecap:round;stroke-linejoin:round;stroke-miterlimit:10;" d="
					M157.35672,180.13937c0,0,4.14746-2.72382,7.18295-1.33298c3.03523,1.38942,7.29303,4.45355,8.43985,3.83018
					c1.14743-0.62283-0.10225-1.85641,0.47232-1.51762c0.57581,0.33987,4.63197,1.03827,5.0714,0.20555
					c0.43739-0.83336-1.6042-1.71658-1.04483-1.70912c0.56068,0.00578,2.37674,0.36459,2.43452-0.40048
					c0.0585-0.76295-1.1965-0.71547-0.79503-0.90065c0.40041-0.18474,0.99443-0.6312,0.515-0.94821
					c-0.48007-0.31764-0.91631-0.70569-4.21291-0.36414c-3.29774,0.34102-2.72176,0.71484-4.17804,0.13148
					c-1.45459-0.58231-2.57358-0.10509-1.97821-0.51279c0.59555-0.40814,2.58398-0.67128,4.20898-0.40369
					c1.62599,0.26901,4.90942,0.07805,6.41736-0.80936c1.50694-0.88695,1.25252-2.28082,0.47108-2.39363
					c-0.77939-0.11299-0.73505,0.03058-1.09331-0.46834c-0.35828-0.49925-0.70764-0.53188-1.31732-0.52397
					c-0.6127,0.00934-3.76537,0.25577-3.20627-0.53865c0.55971-0.7937,5.01646-0.20154,5.15941-0.57474
					c0.14198-0.37294-0.23825-0.57562,0.282-0.82126c0.51997-0.24554,1.21571-0.52771,0.87477-1.26611
					c-0.34181-0.73805-0.38361-1.19687-1.15747-1.10246c-0.77264,0.09521-2.24857-0.05769-1.60172-0.40654
					c0.64772-0.34848,3.27437-1.33643,2.85609-1.89731c-0.41713-0.56175-0.78322-0.76099-0.35818-1.1333
					c0.42503-0.37151,2.28981-2.15334,1.2166-2.67812c-1.07178-0.52478-1.68829,0.16545-2.10027-0.22919
					c-0.41295-0.39497-0.25798-0.36172-0.85709,0.19087c-0.60025,0.55153-2.0992,2.42014-1.98869,1.96043
					c0.10944-0.46024,2.14729-3.22282,1.12254-3.16716c-1.02423,0.05511-2.37819,0.44379-2.69734,1.1981
					c-0.31932,0.75423-1.51102,4.5965-1.98201,3.84262c-0.46985-0.7545,0.9402-6.24036,0.35364-6.19315
					c-0.58798,0.04729-1.79543,4.71518-2.57349,6.60289c-0.77725,1.88646-1.87793,5.96449-2.96669,5.47937
					c-1.09036-0.48389-1.36516-1.01213-0.38353-3.21774c0.98264-2.20491,2.24991-5.55885,1.73961-5.68588
					c-0.5117-0.12874-1.19276,0.1498-0.83994-0.53091c0.35286-0.67982,1.25679-2.39035,0.54443-2.63412
					c-0.71387-0.24448-0.63741-2.04897-1.12245-1.75951c-0.48611,0.28981-2.14613,1.22504-2.79076,2.0423
					c-0.64355,0.81726-0.25958,1.83704-0.6528,2.63376c-0.39337,0.79807-1.16779-0.33398-1.47014,0.62862
					c-0.30243,0.96111,0.72871,2.36581,0.32031,3.0162c-0.40858,0.64996-1.34125,0.70926-1.13606,1.59151
					c0.20546,0.88109,2.96759,3.66037,2.04968,5.98299c-0.9194,2.32269-3.82884,4.92827-8.04431,5.09798
					C152.32274,178.62282,154.44835,181.28885,157.35672,180.13937z"/>
			</g>
		</g>
	</g>
	<g>
		<g>
			<g>
				
					<path style="fill:#97CD7E;stroke:#7D1619;stroke-width:0.84605;stroke-linecap:round;stroke-linejoin:round;stroke-miterlimit:10;" d="
					M120.18263,163.08182c0,0,3.4287-3.44214,2.3988-6.50279c-1.0292-3.05861-3.63922-7.5294-2.82703-8.50145
					c0.81121-0.97247,1.92628,0.39304,1.65141-0.19922c-0.27345-0.59084-0.43784-4.49524,0.49472-4.77234
					c0.93222-0.27719,1.57133,1.77328,1.64244,1.24887c0.07104-0.52567-0.05013-2.27959,0.75752-2.2106
					c0.80704,0.06677,0.58079,1.23189,0.83219,0.88669c0.24803-0.34511,0.79913-0.82944,1.0629-0.33026
					c0.26456,0.50006,0.61083,0.96884-0.20838,3.9959c-0.81682,3.02803-1.12726,2.4315-0.7208,3.88449
					c0.40627,1.4537-0.24937,2.42334,0.26092,1.9319c0.5102-0.49136,1.0636-2.30821,1.00946-3.87045
					c-0.05414-1.56367,0.60471-4.60095,1.74236-5.86911c1.13969-1.2679,2.56087-0.80676,2.57065-0.0576
					c0.00737,0.74596-0.13557,0.6832,0.33746,1.09694c0.47125,0.41428,0.45668,0.7457,0.36252,1.31581
					c-0.09492,0.5694-0.79199,3.47849,0.11531,3.08208c0.90866-0.39658,0.91248-4.65712,1.32275-4.73135
					c0.40858-0.07281,0.56834,0.31523,0.89789-0.13176c0.32991-0.44653,0.72197-1.05275,1.44606-0.61563
					c0.72507,0.43721,1.19899,0.55013,0.99104,1.25786c-0.2074,0.70764-0.25336,2.11093,0.2019,1.56126
					c0.45499-0.54897,1.85614-2.84561,2.38449-2.36565c0.52832,0.47989,0.68613,0.85487,1.13535,0.51562
					c0.44743-0.33746,2.57135-1.79533,2.97025-0.70889c0.39925,1.08583-0.40921,1.5515-0.0538,2.00044
					c0.35579,0.44823,0.34183,0.29924-0.31915,0.77086c-0.66016,0.47223-2.82426,1.57486-2.32846,1.54605
					c0.49748-0.02933,3.67159-1.49263,3.46968-0.54362c-0.20135,0.94777-0.79689,2.15121-1.63043,2.32954
					c-0.83459,0.17834-5.01886,0.67831-4.29433,1.23811c0.72206,0.56079,6.65605,0.11745,6.52457,0.65991
					c-0.1313,0.54202-5.18181,0.92438-7.2643,1.3495c-2.08214,0.42566-6.50056,0.8033-6.14514,1.89891
					c0.35275,1.09561,0.86731,1.4361,3.31161,0.87193c2.44316-0.56496,6.12764-1.21553,6.19012-0.71796
					c0.0625,0.49864-0.32297,1.09071,0.43756,0.87077c0.76118-0.22127,2.67618-0.79387,2.83139-0.08792
					c0.15576,0.70613,2.05368,0.92349,1.68262,1.33119c-0.3708,0.40707-1.58083,1.80869-2.52556,2.28119
					c-0.9435,0.47116-1.9566-0.05051-2.84517,0.1898c-0.88962,0.23914,0.18562,1.14388-0.86278,1.27304
					c-1.04689,0.12927-2.37212-1.05888-3.11026-0.78046c-0.7377,0.27728-0.92883,1.14006-1.823,0.80669
					c-0.89398-0.33249-3.41385-3.35901-5.97223-2.87192c-2.5573,0.48842-5.68801,2.79227-6.45593,6.70645
					C121.06576,168.02867,118.57505,165.61653,120.18263,163.08182z"/>
			</g>
		</g>
		<g>
			<g>
				
					<path style="fill:#97CD7E;stroke:#7D1619;stroke-width:0.84605;stroke-linecap:round;stroke-linejoin:round;stroke-miterlimit:10;" d="
					M120.18263,163.08182c0,0,3.4287-3.44214,2.3988-6.50279c-1.0292-3.05861-3.63922-7.5294-2.82703-8.50145
					c0.81121-0.97247,1.92628,0.39304,1.65141-0.19922c-0.27345-0.59084-0.43784-4.49524,0.49472-4.77234
					c0.93222-0.27719,1.57133,1.77328,1.64244,1.24887c0.07104-0.52567-0.05013-2.27959,0.75752-2.2106
					c0.80704,0.06677,0.58079,1.23189,0.83219,0.88669c0.24803-0.34511,0.79913-0.82944,1.0629-0.33026
					c0.26456,0.50006,0.61083,0.96884-0.20838,3.9959c-0.81682,3.02803-1.12726,2.4315-0.7208,3.88449
					c0.40627,1.4537-0.24937,2.42334,0.26092,1.9319c0.5102-0.49136,1.0636-2.30821,1.00946-3.87045
					c-0.05414-1.56367,0.60471-4.60095,1.74236-5.86911c1.13969-1.2679,2.56087-0.80676,2.57065-0.0576
					c0.00737,0.74596-0.13557,0.6832,0.33746,1.09694c0.47125,0.41428,0.45668,0.7457,0.36252,1.31581
					c-0.09492,0.5694-0.79199,3.47849,0.11531,3.08208c0.90866-0.39658,0.91248-4.65712,1.32275-4.73135
					c0.40858-0.07281,0.56834,0.31523,0.89789-0.13176c0.32991-0.44653,0.72197-1.05275,1.44606-0.61563
					c0.72507,0.43721,1.19899,0.55013,0.99104,1.25786c-0.2074,0.70764-0.25336,2.11093,0.2019,1.56126
					c0.45499-0.54897,1.85614-2.84561,2.38449-2.36565c0.52832,0.47989,0.68613,0.85487,1.13535,0.51562
					c0.44743-0.33746,2.57135-1.79533,2.97025-0.70889c0.39925,1.08583-0.40921,1.5515-0.0538,2.00044
					c0.35579,0.44823,0.34183,0.29924-0.31915,0.77086c-0.66016,0.47223-2.82426,1.57486-2.32846,1.54605
					c0.49748-0.02933,3.67159-1.49263,3.46968-0.54362c-0.20135,0.94777-0.79689,2.15121-1.63043,2.32954
					c-0.83459,0.17834-5.01886,0.67831-4.29433,1.23811c0.72206,0.56079,6.65605,0.11745,6.52457,0.65991
					c-0.1313,0.54202-5.18181,0.92438-7.2643,1.3495c-2.08214,0.42566-6.50056,0.8033-6.14514,1.89891
					c0.35275,1.09561,0.86731,1.4361,3.31161,0.87193c2.44316-0.56496,6.12764-1.21553,6.19012-0.71796
					c0.0625,0.49864-0.32297,1.09071,0.43756,0.87077c0.76118-0.22127,2.67618-0.79387,2.83139-0.08792
					c0.15576,0.70613,2.05368,0.92349,1.68262,1.33119c-0.3708,0.40707-1.58083,1.80869-2.52556,2.28119
					c-0.9435,0.47116-1.9566-0.05051-2.84517,0.1898c-0.88962,0.23914,0.18562,1.14388-0.86278,1.27304
					c-1.04689,0.12927-2.37212-1.05888-3.11026-0.78046c-0.7377,0.27728-0.92883,1.14006-1.823,0.80669
					c-0.89398-0.33249-3.41385-3.35901-5.97223-2.87192c-2.5573,0.48842-5.68801,2.79227-6.45593,6.70645
					C121.06576,168.02867,118.57505,165.61653,120.18263,163.08182z"/>
			</g>
		</g>
	</g>
	<g>
		<g>
			<path style="fill:#FFF7EA;" d="M105.11972,145.64056c-5.20386,3.07915-4.69073,13.57213,1.14664,23.43633
				c5.83719,9.86295,14.78783,15.36214,19.99216,12.28317c5.20387-3.08022,4.6901-13.57303-1.147-23.43642
				C119.2747,148.05954,110.32394,142.56079,105.11972,145.64056z"/>
			<path style="fill:#7D1619;" d="M104.68616,144.90811c2.8016-1.6579,6.57941-1.1981,10.63753,1.29518
				c3.8917,2.39098,7.62774,6.39958,10.52002,11.28687c2.85413,4.82285,4.56681,9.96928,4.82265,14.49217
				c0.27417,4.84062-1.13721,8.43068-3.97464,10.10982c-5.69468,3.36932-14.9876-2.15733-21.15773-12.5816
				c-2.85378-4.82346-4.56698-9.97025-4.82301-14.4926C100.43734,150.17749,101.84882,146.58708,104.68616,144.90811z
				 M124.37935,158.35712c-2.75395-4.65384-6.28578-8.45477-9.94634-10.70386c-3.49422-2.14667-6.64796-2.60167-8.88016-1.28033
				c-2.2627,1.33919-3.37875,4.37505-3.14245,8.5489c0.24092,4.25557,1.87002,9.12881,4.58823,13.72131
				c5.49439,9.28377,14.11549,14.77194,18.82641,11.98421c2.26321-1.33902,3.37874-4.37514,3.14235-8.54874
				C128.72656,167.82286,127.09738,162.94989,124.37935,158.35712z"/>
		</g>
		<g>
			<path style="fill:#FEE486;" d="M105.21521,145.59033c-0.03149,0.01761-0.06419,0.03183-0.09549,0.05023
				c-5.20386,3.07915-4.69073,13.57213,1.14664,23.43633c5.83719,9.86295,14.78783,15.36214,19.99216,12.28317l-7.96146,4.74416
				c-5.20387,3.07916-14.15453-2.42004-19.99225-12.28325c-5.67165-9.58487-6.32703-18.89024-1.5842-22.28445l-0.00045-0.00151
				L105.21521,145.59033C105.21521,145.59033,104.87898,145.20335,105.21521,145.59033z"/>
			<path style="fill:#7D1619;" d="M96.18943,150.87065c0.01414-0.01147,0.02845-0.02214,0.0433-0.03246l7.5127-5.2579
				c0.15992-0.13655,0.32751-0.26582,0.49926-0.38725c0.04285-0.15646,0.13094-0.30244,0.26297-0.41704
				c0.35444-0.30803,0.89202-0.27078,1.20033,0.08437l0.13983,0.161c0.01877,0.02063,0.03645,0.04233,0.05309,0.06526
				c0.05325,0.0721,0.09388,0.15096,0.12099,0.2323c0.11761,0.34999-0.00374,0.74791-0.31924,0.96848l-0.91061,0.63768
				c-1.742,1.52792-2.58736,4.36536-2.38164,7.99675c0.24055,4.2554,1.8702,9.12837,4.58823,13.72131
				c5.49342,9.28226,14.11265,14.76962,18.82383,11.98634l0.00034-0.0009c0.00117-0.00009,0.00134-0.00053,0.00224-0.00124
				c0.40414-0.23888,0.92554-0.10571,1.16502,0.29817c0.23995,0.40298,0.10722,0.92465-0.29594,1.16495l-7.96386,4.74585
				c-5.69424,3.36949-14.98769-2.15735-21.15773-12.5816c-2.87592-4.86018-4.59161-9.87228-4.83173-14.11363
				C92.50362,155.94569,93.72769,152.65541,96.18943,150.87065z M105.534,169.51054
				c-2.85423-4.82373-4.56698-9.97025-4.82301-14.4926c-0.1209-2.14241,0.09762-4.06284,0.63102-5.67842l-4.09955,2.86836
				c-0.00862,0.00739-0.0176,0.01431-0.02667,0.02036c-1.99448,1.42775-2.98056,4.20357-2.77573,7.81718
				c0.22474,3.97411,1.85775,8.71312,4.59704,13.3418c5.49492,9.28403,14.11647,14.77237,18.82436,11.98544l3.96478-2.36217
				C116.52572,182.37637,110.15397,177.3159,105.534,169.51054z"/>
		</g>
		<g>
			<path style="fill:#7D1619;" d="M122.20973,170.39723c0,0-2.64309-2.20659-3.22272-3.94174
				c-0.57999-1.73427,0.92874-2.51588,0.92874-2.51588s-1.33102,0.12881-1.5041-1.04013
				c-0.17362-1.16771,0.74996-2.82738,0.74996-2.82738s-2.39587,3.08128-3.94895,2.15173
				c-1.55193-0.92972-2.9802-2.50911-2.9802-2.50911s2.56405,4.62192,1.97163,5.5119
				c-0.59163,0.89069-1.75684,1.59354-1.75684,1.59354s2.74862-1.11392,2.70532,0.01289
				c-0.04258,1.12787-1.67754,4.43362-1.67754,4.43362s2.67323-2.93619,3.31019-3.02599
				C117.42262,168.15108,120.09924,168.93216,122.20973,170.39723z"/>
		</g>
		<g>
			<path style="fill:#7D1619;" d="M115.57804,172.21872c-0.3316,0.01884-0.58595,0.2972-0.56763,0.62149
				c0.0184,0.32378,0.30217,0.57181,0.63421,0.55315c0.33294-0.01947,0.58701-0.29729,0.56879-0.62151
				C116.19519,172.44754,115.91071,172.19978,115.57804,172.21872z"/>
		</g>
		<g>
			<path style="fill:#7D1619;" d="M109.12904,161.6579c-0.53145,0.03014-0.92963,0.60417-0.89185,1.28238
				c0.03885,0.67831,0.49944,1.20335,1.03089,1.17349c0.53029-0.02979,0.93016-0.60399,0.89131-1.2823
				C110.12152,162.15324,109.65985,161.62802,109.12904,161.6579z"/>
		</g>
		<g>
			<path style="fill:#7D1619;" d="M107.6485,152.52927c-0.32502,0.01857-0.56764,0.37996-0.54327,0.80783
				c0.02392,0.42761,0.30608,0.75912,0.63093,0.74089c0.32386-0.01848,0.56754-0.37968,0.543-0.80721
				C108.25488,152.84282,107.97227,152.51103,107.6485,152.52927z"/>
		</g>
		<g>
			<path style="fill:#7D1619;" d="M111.44996,149.20822c-0.39819,0.02249-0.69485,0.49481-0.66293,1.05533
				c0.03156,0.55998,0.3796,0.99596,0.77788,0.97337c0.39871-0.02249,0.69537-0.49483,0.66337-1.05507
				C112.19681,149.6216,111.84876,149.18564,111.44996,149.20822z"/>
		</g>
		<g>
			<path style="fill:#7D1619;" d="M124.14145,162.41498c-0.30991,0.0175-0.54327,0.33115-0.52282,0.69919
				c0.02089,0.36823,0.28874,0.65298,0.59811,0.63528c0.30946-0.01768,0.54398-0.33026,0.52318-0.69875
				C124.71895,162.68248,124.45073,162.39755,124.14145,162.41498z"/>
		</g>
		<g>
			<path style="fill:#7D1619;" d="M125.7621,171.64273c-0.29523,0.01627-0.51384,0.38849-0.48869,0.83069
				c0.02472,0.44193,0.28423,0.78729,0.57919,0.7704c0.29435-0.01662,0.51322-0.38823,0.48849-0.83015
				C126.31568,171.97076,126.05645,171.6261,125.7621,171.64273z"/>
		</g>
		<g>
			<path style="fill:#7D1619;" d="M121.71945,177.81596c-0.26617,0.01529-0.47295,0.15878-0.46406,0.32076
				c0.00942,0.16225,0.23132,0.28163,0.49722,0.26678c0.26563-0.01547,0.4724-0.15886,0.46308-0.32111
				C122.20671,177.92033,121.98473,177.80138,121.71945,177.81596z"/>
		</g>
		<g>
			<path style="fill:#7D1619;" d="M117.58425,154.91321c-0.2355,0.01343-0.41454,0.23924-0.39951,0.50468
				c0.01466,0.26501,0.21825,0.46922,0.45374,0.45598c0.23595-0.01315,0.41517-0.23941,0.39988-0.50443
				C118.02386,155.1039,117.81975,154.8998,117.58425,154.91321z"/>
		</g>
		<g>
			<path style="fill:#7D1619;" d="M110.39116,169.5134c-0.28582,0.0159-0.50407,0.2795-0.48673,0.58975
				c0.01743,0.31,0.26412,0.54727,0.55065,0.5311c0.28661-0.01617,0.50495-0.28021,0.48726-0.58968
				C110.92483,169.73476,110.67839,169.49695,110.39116,169.5134z"/>
		</g>
		<g>
			<path style="fill:#7D1619;" d="M102.2959,180.38527c0.02516,0.44485,0.39196,0.79868,0.84349,0.80188
				c0.98359,0.00676,1.61176-0.40538,2.21957-0.80418l0.15726-0.10304c1.3224-0.85913,2.51189-1.64305,3.67666-2.53738
				c0.3732-0.28636,0.44254-0.82028,0.15664-1.19331c-0.28679-0.37241-0.82037-0.44264-1.19366-0.1562
				c-1.11489,0.85683-2.2746,1.62065-3.56659,2.45987l-0.16474,0.10748c-0.55829,0.36601-0.8241,0.52824-1.27339,0.52487
				c-0.46975-0.00356-0.85326,0.37534-0.85691,0.84508C102.29439,180.34882,102.29446,180.36731,102.2959,180.38527z"/>
		</g>
		<g>
			<path style="fill:#7D1619;" d="M101.24341,175.71454c0.012,0.21603,0.10632,0.42743,0.27924,0.58363
				c0.34858,0.31462,0.88696,0.28723,1.20229-0.06171c0.5855-0.64897,1.49201-1.20708,2.36857-1.74626
				c0.52034-0.32076,1.05791-0.65128,1.53407-1.00412c0.12258-0.09157,0.26964-0.20723,0.42521-0.33
				c0.24839-0.19576,0.71004-0.55981,0.8626-0.62808c0.42477-0.19034,0.62684-0.69067,0.4412-1.1189
				c-0.18491-0.42726-0.67012-0.63048-1.10013-0.45045c-0.32876,0.13716-0.71077,0.4301-1.25751,0.86064
				c-0.14098,0.11174-0.27398,0.21727-0.38564,0.30003c-0.41676,0.30919-0.90029,0.60629-1.41156,0.92119
				c-0.97879,0.60274-1.99146,1.22594-2.74053,2.056C101.3028,175.27217,101.23087,175.49567,101.24341,175.71454z"/>
		</g>
		<g>
			<path style="fill:#7D1619;" d="M101.93612,170.55263c0.01129,0.19675,0.09032,0.39072,0.23833,0.54311
				c0.32671,0.33763,0.86554,0.34679,1.20319,0.01999c0.59874-0.57927,1.76449-1.32204,2.42813-1.44844
				c0.46272-0.08784,0.76286-0.53537,0.67742-0.99489c-0.08792-0.46121-0.53323-0.76401-0.99462-0.67671
				c-1.14521,0.21745-2.61571,1.2399-3.29482,1.89714C102.00902,170.07178,101.92305,170.31403,101.93612,170.55263z"/>
		</g>
		<g>
			<path style="fill:#7D1619;" d="M95.59042,168.67809c0.00515,0.09814,0.02844,0.1971,0.07014,0.29204
				c0.18812,0.43143,0.6896,0.62808,1.12015,0.43961c0.23523-0.10286,0.47917-0.2058,0.72702-0.31026
				c1.63515-0.69058,3.48827-1.47316,4.6742-2.90819c0.29968-0.36156,0.24883-0.89825-0.1137-1.19829
				c-0.36289-0.29915-0.8987-0.24786-1.19785,0.11397c-0.92065,1.11383-2.56975,1.81027-4.02416,2.42422
				c-0.25532,0.10774-0.5053,0.21344-0.74712,0.31888C95.76431,167.99658,95.57033,168.33298,95.59042,168.67809z"/>
		</g>
		<g>
			<path style="fill:#7D1619;" d="M93.84344,164.50732c0.00471,0.08055,0.02071,0.16118,0.04961,0.24092
				c0.15948,0.44228,0.64693,0.67137,1.08929,0.51189c0.28599-0.10374,0.56692-0.21825,0.84775-0.33391
				c0.17318-0.07068,0.34583-0.14171,0.52042-0.20963c0.43747-0.17078,0.65493-0.66275,0.48477-1.10165
				c-0.1706-0.43791-0.6639-0.65483-1.10166-0.48468c-0.18446,0.07182-0.36688,0.14668-0.5494,0.22145
				c-0.25834,0.10641-0.51686,0.21283-0.77929,0.30714C94.04214,163.7899,93.82317,164.14151,93.84344,164.50732z"/>
		</g>
		<g>
			<path style="fill:#7D1619;" d="M94.84171,155.45311c0.00977,0.1738,0.07315,0.34644,0.19247,0.49126
				c0.29844,0.36298,0.83424,0.41553,1.19758,0.11699c1.16014-0.95381,2.50814-1.87598,3.78919-2.73981l0.19363-0.13309
				c0.19042-0.13335,0.63724-0.44557,0.80988-0.45882c0.46868,0.03583,0.8706-0.31532,0.90616-0.78392
				c0.03484-0.46709-0.322-0.87762-0.79095-0.9131c-0.73199-0.05609-1.40746,0.41623-1.90015,0.76082l-0.16946,0.11734
				c-1.31544,0.88599-2.70123,1.83517-3.91907,2.83592C94.93291,154.92619,94.82721,155.1913,94.84171,155.45311z"/>
		</g>
		<g>
			<path style="fill:#7D1619;" d="M111.89846,186.41057c0.00996,0.17336,0.07263,0.34512,0.19104,0.48958
				c0.29747,0.36395,0.83336,0.41739,1.19732,0.11984c0.72489-0.59288,1.52544-1.15038,2.29913-1.68964
				c0.46425-0.32387,0.92831-0.64729,1.38205-0.98067c0.17354-0.12802,0.35721-0.27434,0.54781-0.4269
				c0.48219-0.38654,1.03009-0.82472,1.4817-0.96288c0.4493-0.13699,0.70231-0.6136,0.56549-1.06183
				c-0.13699-0.44939-0.6127-0.70311-1.06245-0.56523c-0.76392,0.23256-1.44588,0.77904-2.04861,1.26132
				c-0.17096,0.13718-0.3356,0.26964-0.49189,0.38396c-0.4421,0.32529-0.8946,0.64079-1.34728,0.9556
				c-0.8001,0.55766-1.6282,1.13507-2.40342,1.76901C111.9903,185.88206,111.88335,186.14778,111.89846,186.41057z"/>
		</g>
		<g>
			<path style="fill:#7D1619;" d="M111.06796,182.18657c0.01351,0.23878,0.12695,0.46992,0.33098,0.62666
				c0.37249,0.28696,0.90659,0.21709,1.19348-0.15497c0.15237-0.1994,0.56149-0.46974,0.73635-0.58575
				c0.39233-0.25914,0.4991-0.78828,0.23978-1.179c-0.25977-0.39204-0.78757-0.49934-1.17945-0.23994
				c-0.42627,0.28235-0.85947,0.59474-1.14565,0.96654C111.11374,181.78821,111.05666,181.98991,111.06796,182.18657z"/>
		</g>
	</g>
	<g>
		<g>
			<path style="fill:#FFF7EA;" d="M154.99481,116.65152c5.21605-3.05853,4.74443-13.55347-1.05391-23.44069
				c-5.79825-9.88589-14.72705-15.42046-19.94353-12.36211c-5.21596,3.05959-4.74371,13.55436,1.05435,23.44078
				C140.84953,114.17663,149.77841,119.71075,154.99481,116.65152z"/>
			<path style="fill:#7D1619;" d="M155.42554,117.38575c-2.8082,1.64678-6.58421,1.17197-10.63239-1.33733
				c-3.88226-2.40627-7.60239-6.42963-10.4753-11.32838c-2.83502-4.83405-4.52742-9.98724-4.76532-14.5111
				c-0.25505-4.84169,1.17046-8.42606,4.01456-10.094c5.70793-3.34674,14.97899,2.21655,21.10786,12.66518
				c2.83467,4.83475,4.52751,9.9882,4.76567,14.51154C159.69514,112.13307,158.26945,115.71798,155.42554,117.38575z
				 M135.78569,103.85895c2.73546,4.6646,6.25227,8.47948,9.90393,10.74306c3.48561,2.16045,6.63756,2.62789,8.87492,1.31546
				c2.26802-1.33031,3.39607-4.36163,3.17632-8.53647c-0.22421-4.25646-1.83392-9.13611-4.53401-13.73927
				c-5.45758-9.30554-14.0569-14.82767-18.77884-12.05852c-2.26846,1.33003-3.39607,4.36163-3.17615,8.5362
				C131.47589,94.37605,133.08571,99.25552,135.78569,103.85895z"/>
		</g>
		<g>
			<path style="fill:#FEE486;" d="M154.89915,116.70139c0.03148-0.01743,0.06427-0.03156,0.09566-0.04987
				c5.21605-3.05853,4.74443-13.55347-1.05391-23.44069c-5.79825-9.88589-14.72705-15.42046-19.94353-12.36211l7.98022-4.7126
				c5.21594-3.05853,14.14474,2.47596,19.94344,12.36221c5.63379,9.60719,6.25226,18.91504,1.49609,22.29049l0.00046,0.00152
				L154.89915,116.70139C154.89915,116.70139,155.23387,117.08962,154.89915,116.70139z"/>
			<path style="fill:#7D1619;" d="M163.94574,111.45681c-0.01422,0.01138-0.02853,0.02196-0.0434,0.03227l-7.53349,5.22813
				c-0.16046,0.13593-0.32848,0.26448-0.50076,0.38529c-0.04347,0.15629-0.1322,0.30191-0.26466,0.41597
				c-0.35559,0.30661-0.89301,0.26723-1.19997-0.08908l-0.13922-0.16162c-0.01868-0.02062-0.03618-0.0424-0.05272-0.06543
				c-0.05299-0.07228-0.09335-0.15131-0.1201-0.23274c-0.11629-0.35044,0.00667-0.74783,0.32306-0.96723l0.9131-0.63404
				c1.74805-1.521,2.6046-4.35513,2.41328-7.98733c-0.22377-4.25628-1.8342-9.13566-4.53401-13.73927
				c-5.4566-9.30395-14.05415-14.82536-18.77626-12.06065l-0.00035,0.00089c-0.00116,0-0.00143,0.00053-0.00223,0.00124
				c-0.40512,0.23718-0.92599,0.10197-1.16388-0.30289c-0.23834-0.40387-0.10349-0.925,0.30057-1.16379l7.98253-4.71429
				c5.70749-3.34692,14.97906,2.21664,21.10785,12.66518c2.85664,4.87155,4.55251,9.89042,4.77582,14.13265
				C167.65155,106.39634,166.41451,109.68174,163.94574,111.45681z M154.67496,92.78011
				c2.83511,4.83493,4.52751,9.9882,4.76567,14.51154c0.11237,2.14294-0.11371,4.06239-0.6535,5.67583l4.11084-2.8521
				c0.00862-0.00738,0.01768-0.01422,0.02684-0.02027c2.00008-1.41991,2.9971-4.19173,2.80658-7.80615
				c-0.209-3.975-1.82333-8.72031-4.54431-13.35984c-5.45811-9.30573-14.05789-14.82803-18.77672-12.05977l-3.97411,2.34644
				C143.73418,79.8709,150.08583,84.95654,154.67496,92.78011z"/>
		</g>
		<g>
			<path style="fill:#7D1619;" d="M140.69511,96.73911c0,0,1.27661,1.07436,1.55408,1.91624
				c0.27773,0.84153-0.45482,1.2174-0.45482,1.2174s0.64523-0.05991,0.72685,0.50691
				c0.08188,0.56621-0.36885,1.36862-0.36885,1.36862s1.1669-1.48855,1.91776-1.03516
				c0.75023,0.45357,1.4393,1.22158,1.4393,1.22158s-1.23367-2.24456-0.94484-2.67466
				c0.28839-0.43054,0.85434-0.76881,0.85434-0.76881s-1.33405,0.53447-1.31093-0.01147
				c0.02284-0.54647,0.82144-2.14526,0.82144-2.14526s-1.30106,1.41769-1.60989,1.46001
				C143.01053,97.83676,141.71498,97.45306,140.69511,96.73911z"/>
		</g>
		<g>
			<path style="fill:#7D1619;" d="M144.64166,90.0323c0.3317-0.0176,0.5871-0.29488,0.57013-0.61928
				c-0.01717-0.32387-0.29996-0.57305-0.63208-0.55563c-0.33293,0.01805-0.58817,0.29488-0.57118,0.61919
				C144.0255,89.80097,144.30891,90.0499,144.64166,90.0323z"/>
		</g>
		<g>
			<path style="fill:#7D1619;" d="M151.04889,100.61845c0.53154-0.028,0.93204-0.60052,0.89682-1.27883
				c-0.03618-0.67848-0.49463-1.20531-1.02617-1.17757c-0.53038,0.02774-0.93248,0.60035-0.89638,1.27883
				C150.05836,100.11919,150.51788,100.64619,151.04889,100.61845z"/>
		</g>
		<g>
			<path style="fill:#7D1619;" d="M152.49335,109.75286c0.32501-0.01725,0.56905-0.37765,0.54646-0.8057
				c-0.02231-0.42761-0.30315-0.76028-0.62808-0.74329c-0.32394,0.01715-0.56895,0.37738-0.5462,0.80499
				C151.8882,109.4369,152.16948,109.76984,152.49335,109.75286z"/>
		</g>
		<g>
			<path style="fill:#7D1619;" d="M148.67873,113.05888c0.39827-0.02098,0.69679-0.49216,0.6671-1.05267
				c-0.02934-0.56017-0.37569-0.99755-0.77397-0.97657c-0.3989,0.02106-0.69742,0.49215-0.66763,1.05249
				C147.93356,112.64256,148.27983,113.07986,148.67873,113.05888z"/>
		</g>
		<g>
			<path style="fill:#7D1619;" d="M136.0396,99.80208c0.30989-0.01627,0.54451-0.32903,0.52557-0.69716
				c-0.01947-0.36832-0.28616-0.65413-0.59563-0.63768c-0.30956,0.01653-0.54532,0.32813-0.52596,0.69671
				C135.46307,99.53226,135.73022,99.81825,136.0396,99.80208z"/>
		</g>
		<g>
			<path style="fill:#7D1619;" d="M134.45538,90.56792c0.29533-0.01502,0.51546-0.38645,0.49197-0.82873
				c-0.02303-0.44201-0.2811-0.78837-0.57607-0.77263c-0.29443,0.01546-0.51482,0.38618-0.49188,0.82819
				C133.90314,90.23766,134.16095,90.58339,134.45538,90.56792z"/>
		</g>
		<g>
			<path style="fill:#7D1619;" d="M138.52249,84.41068c0.26616-0.01422,0.47348-0.15681,0.46521-0.31889
				c-0.00871-0.16224-0.23016-0.28252-0.49606-0.26875c-0.26572,0.0144-0.47313,0.157-0.46432,0.31934
				C138.03558,84.30445,138.25713,84.42429,138.52249,84.41068z"/>
		</g>
		<g>
			<path style="fill:#7D1619;" d="M142.567,107.3297c0.2356-0.01254,0.41553-0.23763,0.40157-0.50317
				c-0.0136-0.2651-0.21638-0.47002-0.45187-0.45775c-0.23604,0.01227-0.41615,0.23781-0.40202,0.50291
				C142.1281,107.13724,142.33151,107.34215,142.567,107.3297z"/>
		</g>
		<g>
			<path style="fill:#7D1619;" d="M149.81779,92.75806c0.2859-0.01476,0.50514-0.27755,0.48914-0.5879
				c-0.01627-0.31-0.26199-0.54834-0.54861-0.53323c-0.28661,0.01503-0.50601,0.27818-0.48956,0.58772
				C149.28502,92.53457,149.53047,92.77335,149.81779,92.75806z"/>
		</g>
		<g>
			<path style="fill:#7D1619;" d="M157.9559,81.91827c-0.02328-0.44494-0.38876-0.80028-0.84019-0.80525
				c-0.9836-0.01067-1.61345,0.39898-2.22278,0.79539l-0.1577,0.1025c-1.32568,0.85389-2.51828,1.6331-3.6866,2.52281
				c-0.37436,0.28484-0.44576,0.8185-0.16136,1.19269c0.28537,0.37347,0.81859,0.44583,1.19304,0.16091
				c1.11829-0.85247,2.28091-1.61168,3.57628-2.44574l0.16508-0.10686c0.55981-0.36378,0.82625-0.52496,1.27554-0.5198
				c0.46976,0.00533,0.85478-0.37205,0.8602-0.8418C157.95732,81.95464,157.95732,81.93623,157.9559,81.91827z"/>
		</g>
		<g>
			<path style="fill:#7D1619;" d="M158.98999,86.5931c-0.0112-0.21603-0.10463-0.42788-0.27692-0.5847
				c-0.34734-0.31595-0.88589-0.2907-1.20247,0.0569c-0.58807,0.64666-1.49681,1.20122-2.3755,1.73684
				c-0.52158,0.31871-1.06041,0.64719-1.53807,0.99809c-0.12294,0.09113-0.27043,0.20616-0.42645,0.32831
				c-0.24919,0.19487-0.71227,0.55705-0.86508,0.6247c-0.42557,0.18864-0.62961,0.68818-0.44566,1.11712
				c0.18321,0.42805,0.66765,0.63315,1.09845,0.45482c0.32921-0.13584,0.71236-0.42725,1.26088-0.85567
				c0.14136-0.11121,0.2748-0.21621,0.38672-0.29844c0.418-0.30759,0.90269-0.60283,1.41521-0.91567
				c0.98119-0.59883,1.99634-1.21803,2.74861-2.04515C158.92892,87.0352,159.00163,86.81197,158.98999,86.5931z"/>
		</g>
		<g>
			<path style="fill:#7D1619;" d="M158.27684,91.75216c-0.0105-0.19665-0.08873-0.39098-0.23613-0.54398
				c-0.32536-0.33897-0.8642-0.35017-1.20308-0.0248c-0.60106,0.57697-1.76974,1.3151-2.43391,1.43894
				c-0.46307,0.08597-0.76491,0.53233-0.68134,0.99222c0.08615,0.46148,0.53021,0.76605,0.99196,0.68062
				c1.14609-0.21292,2.62059-1.22958,3.30228-1.88416C158.20206,92.23284,158.28902,91.99085,158.27684,91.75216z"/>
		</g>
		<g>
			<path style="fill:#7D1619;" d="M164.61516,93.65187c-0.00481-0.09815-0.02774-0.19718-0.06908-0.2924
				c-0.18634-0.43214-0.6871-0.63074-1.11836-0.44397c-0.2356,0.10197-0.47998,0.20385-0.72827,0.30733
				c-1.63782,0.68418-3.49396,1.45939-4.68567,2.8897c-0.30101,0.3604-0.2523,0.89728,0.10899,1.19874
				c0.36174,0.30057,0.89772,0.2514,1.19829-0.10917c0.92509-1.11019,2.57686-1.80015,4.03375-2.40831
				c0.25568-0.10677,0.50612-0.2114,0.74837-0.31596C164.4386,94.33266,164.63382,93.99707,164.61516,93.65187z"/>
		</g>
		<g>
			<path style="fill:#7D1619;" d="M166.3456,97.82947c-0.00435-0.08064-0.02008-0.16126-0.04863-0.2411
				c-0.1577-0.4429-0.64435-0.67387-1.08734-0.51616c-0.28635,0.10251-0.5677,0.21594-0.84908,0.33044
				c-0.17336,0.07005-0.34636,0.14037-0.52122,0.20758c-0.4381,0.16909-0.6575,0.66026-0.48904,1.09978
				c0.16882,0.43855,0.66124,0.65742,1.09969,0.48904c0.18475-0.07112,0.36752-0.14517,0.55022-0.21931
				c0.25888-0.10535,0.51776-0.21069,0.78062-0.30404C166.14415,98.5461,166.36444,98.19538,166.3456,97.82947z"/>
		</g>
		<g>
			<path style="fill:#7D1619;" d="M165.31151,106.87969c-0.00906-0.1738-0.07173-0.34671-0.19051-0.49197
				c-0.29694-0.36423-0.83255-0.41881-1.19705-0.1217c-1.16388,0.9491-2.51561,1.86601-3.80003,2.7247l-0.19415,0.13238
				c-0.19096,0.13255-0.63893,0.44299-0.81166,0.45561c-0.4686-0.03778-0.87186,0.31186-0.90919,0.78036
				c-0.0368,0.4669,0.31845,0.87887,0.78731,0.91621c0.73174,0.05903,1.40898-0.41072,1.90308-0.75334l0.16991-0.11672
				c1.319-0.88065,2.70851-1.82442,3.93027-2.82037C165.21826,107.40625,165.32503,107.1415,165.31151,106.87969z"/>
		</g>
		<g>
			<path style="fill:#7D1619;" d="M148.37735,75.85501c-0.00934-0.17336-0.0713-0.34538-0.18909-0.49037
				c-0.29605-0.36511-0.83176-0.42059-1.19687-0.12455c-0.72729,0.59003-1.52997,1.14433-2.3058,1.68057
				c-0.46558,0.32208-0.93088,0.64364-1.38588,0.97514c-0.17406,0.1273-0.35828,0.27293-0.54958,0.42477
				c-0.4837,0.38467-1.03328,0.82064-1.48543,0.9571c-0.44984,0.13513-0.7048,0.61075-0.56967,1.05952
				c0.13512,0.44992,0.60985,0.70551,1.06021,0.5694c0.76472-0.22954,1.4489-0.77335,2.05351-1.25314
				c0.17159-0.13655,0.33676-0.2683,0.49339-0.3821c0.44344-0.32351,0.89719-0.63724,1.3511-0.95016
				c0.80225-0.55457,1.63274-1.12868,2.41035-1.75961C148.28339,76.38317,148.39139,76.11789,148.37735,75.85501z"/>
		</g>
		<g>
			<path style="fill:#7D1619;" d="M149.19113,80.08231c-0.01262-0.23887-0.12508-0.47046-0.32857-0.62799
				c-0.37134-0.28839-0.90572-0.22065-1.19402,0.15025c-0.15318,0.19878-0.56337,0.46744-0.73868,0.58283
				c-0.39339,0.25763-0.5022,0.78632-0.24438,1.1781c0.25816,0.39303,0.78552,0.50238,1.17847,0.24457
				c0.42734-0.28066,0.8618-0.59136,1.14948-0.96199C149.14375,80.48049,149.20163,80.27895,149.19113,80.08231z"/>
		</g>
	</g>
	<path style="fill:#DAEABD;" d="M141.49042,189.06895c0,0,0.26875-5.43874-5.17256-5.80403
		c-5.44096-0.36618-8.42206-0.36902-10.49281-2.63757s-6.1142-3.96523-10.3567-2.31648
		c-4.24232,1.64821-10.99874,0.85966-12.74341-2.0744c-1.74467-2.93398-5.62098-3.91187-5.95907-3.97694
		c-0.33755-0.06606-5.45652,4.37167-4.54636,6.6469c0.90981,2.27611,4.68869,8.98897,9.94447,13.25734
		c5.25569,4.26891,14.42976,6.66147,17.44382,7.55519C122.62188,200.61266,141.49042,189.06895,141.49042,189.06895z"/>
	
		<path style="fill:#FFF7EA;stroke:#7D1619;stroke-width:0.84605;stroke-linecap:round;stroke-linejoin:round;stroke-miterlimit:10;" d="
		M156.35925,206.82652c-0.50487,1.16557,0.41072,2.68346,2.0448,3.39119c1.63371,0.70764,3.36728,0.3371,3.87206-0.82846
		c0.50478-1.16557-0.41072-2.68355-2.04454-3.39111C158.59758,205.29041,156.86403,205.66104,156.35925,206.82652z"/>
	
		<path style="fill:#FFF7EA;stroke:#7D1619;stroke-width:0.84605;stroke-linecap:round;stroke-linejoin:round;stroke-miterlimit:10;" d="
		M122.24876,197.66267c-0.86243,1.99129,0.61483,4.54832,3.29944,5.71104c2.68462,1.16281,5.55983,0.49081,6.42224-1.50046
		c0.86243-1.99118-0.61456-4.54752-3.29918-5.71033C125.98666,195.0002,123.11118,195.67149,122.24876,197.66267z"/>
	
		<path style="fill:#FFF7EA;stroke:#7D1619;stroke-width:0.84605;stroke-linecap:round;stroke-linejoin:round;stroke-miterlimit:10;" d="
		M93.7493,178.0423c-0.33587,0.77548,0.54256,1.90193,1.96132,2.51642c1.41866,0.61447,2.84125,0.48459,3.17712-0.29088
		c0.33551-0.7746-0.54274-1.90149-1.96149-2.51598C95.50757,177.13739,94.08481,177.26772,93.7493,178.0423z"/>
	
		<path style="fill:#FFF7EA;stroke:#7D1619;stroke-width:0.84605;stroke-linecap:round;stroke-linejoin:round;stroke-miterlimit:10;" d="
		M177.43333,217.01964c-0.51109,1.18016,0.60825,2.80107,2.50023,3.62047c1.89197,0.81949,3.83995,0.52708,4.35114-0.65306
		c0.51091-1.17961-0.60844-2.80045-2.50041-3.61993C179.8923,215.54764,177.94432,215.84003,177.43333,217.01964z"/>
	
		<path style="fill:#FFF7EA;stroke:#7D1619;stroke-width:0.84605;stroke-linecap:round;stroke-linejoin:round;stroke-miterlimit:10;" d="
		M108.68605,199.84154c-0.42832,0.98901-0.00871,2.12267,0.93745,2.5325c0.94563,0.40956,2.05964-0.05992,2.48796-1.04884
		c0.42832-0.98901,0.00889-2.12312-0.93683-2.53268C110.22856,198.38277,109.11437,198.85262,108.68605,199.84154z"/>
	
		<path style="fill:#63C08A;stroke:#7D1619;stroke-width:0.84605;stroke-linecap:round;stroke-linejoin:round;stroke-miterlimit:10;" d="
		M181.82483,197.77007c0,0,0.50531-4.04878-4.24207-6.85687l-8.7276,1.89882c0,0-2.17476,4.70105,1.53487,7.34343
		C170.39003,200.15544,178.20924,200.03374,181.82483,197.77007z"/>
	
		<path style="fill:#97CD7E;stroke:#7D1619;stroke-width:0.84605;stroke-linecap:round;stroke-linejoin:round;stroke-miterlimit:10;" d="
		M89.06754,161.05728c-0.02134,0.40201-4.51134-0.15094-4.51134-0.15094s-5.89505-6.68628-7.20686-9.08499
		c-1.31172-2.39871,3.85658-6.23492,9.18535-5.72989C86.53468,146.09146,89.51746,152.65355,89.06754,161.05728z"/>
	
		<path style="fill:#97CD7E;stroke:#7D1619;stroke-width:0.84605;stroke-linecap:round;stroke-linejoin:round;stroke-miterlimit:10;" d="
		M148.82567,194.77965l-5.21097-0.16083c0,0,0.16162,8.28569,2.53197,13.27655c0,0,4.29575,0.78107,7.99915-2.85005
		C154.14581,205.04532,148.86549,196.68825,148.82567,194.77965z"/>
	
		<path style="fill:#97CD7E;stroke:#7D1619;stroke-width:0.84605;stroke-linecap:round;stroke-linejoin:round;stroke-miterlimit:10;" d="
		M157.15305,171.08656l-5.40727-4.00629c0,0,1.90265-3.75256,4.0278-4.49649c2.12508-0.74382,4.67126,2.02319,4.67126,2.02319
		S160.69847,168.18407,157.15305,171.08656z"/>
	
		<path style="fill:#97CD7E;stroke:#7D1619;stroke-width:0.84605;stroke-linecap:round;stroke-linejoin:round;stroke-miterlimit:10;" d="
		M104.27535,175.87386l-3.15489,2.16089c0,0-7.15976-1.08084-8.52625-2.08871c-1.36639-1.00786-1.6659-7.65866,4.71482-8.15259
		L104.27535,175.87386z"/>
	
		<path style="fill:#97CD7E;stroke:#7D1619;stroke-width:0.84605;stroke-linecap:round;stroke-linejoin:round;stroke-miterlimit:10;" d="
		M173.0477,219.95638l-7.06552-3.06012c0,0-4.38571,4.20276-4.65428,4.50253c-0.26848,0.29976,0.38982,2.9426,3.91258,3.77487
		C168.76324,226.00604,173.0477,219.95638,173.0477,219.95638z"/>
	
		<path style="fill:#63C08A;stroke:#7D1619;stroke-width:0.84605;stroke-linecap:round;stroke-linejoin:round;stroke-miterlimit:10;" d="
		M139.37238,209.74858c0,0-2.97264-1.8974-5.29375-0.56647c-2.32109,1.33092-4.05891,5.198-4.22249,5.43704
		c-0.16367,0.23897,3.91409,2.15494,3.91409,2.15494S138.77773,213.61476,139.37238,209.74858z"/>
	
		<path style="fill:#97CD7E;stroke:#7D1619;stroke-width:0.84605;stroke-linecap:round;stroke-linejoin:round;stroke-miterlimit:10;" d="
		M96.10222,191.71623c0,0-0.85033-4.54849-3.13916-4.81386s-4.53835,0.76578-4.53835,0.76578l1.5266,4.48058
		C89.9513,192.14873,94.30581,193.94264,96.10222,191.71623z"/>
	<g>
		<g>
			
				<path style="fill:#97CD7E;stroke:#7D1619;stroke-width:0.84605;stroke-linecap:round;stroke-linejoin:round;stroke-miterlimit:10;" d="
				M89.18898,175.3152c0,0,0.22723,0.28474-1.84557,1.69328c-2.07279,1.40845-3.50578,2.71324-5.379,4.86311
				c-1.87304,2.1505-2.63829,2.27522-3.47476,1.87498c-0.83485-0.40164-1.42844,0.62355-2.34847,1.56216
				c-0.91772,0.9379-2.66087,2.76382-2.78675,1.9086c-0.12598-0.85469-0.07361-1.63115-0.68747-1.6348
				c-0.61208-0.00284-1.06226,0.14233-1.44027-0.1833c-0.37791-0.32564-0.56967-0.42068-0.99551-0.53198
				c-0.42681-0.10899-1.8406,0.29443-0.56461-1.20184c1.27643-1.49495,9.00488-4.97806,8.64626-5.41722
				c-0.3596-0.43802-2.56229-0.42441-3.99447,0.36325c-1.43369,0.78596-4.14906,3.33659-4.78506,2.2897
				c-0.63778-1.04555-0.67902-1.04662-0.96243-1.0876c-0.28528-0.04063-0.57011-0.79512,0.85078-1.34399
				c1.42045-0.54897,2.29896-1.70049,1.71416-1.84006c-0.58434-0.13824-4.07697,0.22572-5.50692,0.12758
				c-1.43192-0.09744-2.62327,0.0816-2.0704-0.64214c0.55474-0.72293,2.3267-1.1517,1.89989-1.47086
				c-0.42779-0.32076-4.86569-0.56238-4.30001-1.76715c0.56416-1.20372,2.3843-1.481,4.19654-0.90083
				c1.80956,0.57892,2.35452,0.46388,1.86343-0.27594c-0.48993-0.73877-2.34474-2.17654-0.60025-1.83002
				c1.74431,0.34546,3.10546,1.65825,3.40772,0.96785c0.30297-0.69333-1.46125-1.73213-0.40467-1.96523
				c1.05861-0.23495,2.25816,0.56523,2.65704,0.01201c0.39704-0.55403,0.40726-2.1185,1.23404-1.31937
				c0.82561,0.79912,1.33821,1.37057,1.64145,1.05444c0.30377-0.31604-0.16082-1.50864,0.9091-0.90813
				c1.06992,0.60043,6.96355,5.89543,7.70703,5.26717c0.74356-0.62869-0.42265-2.49791-2.59837-4.4539
				c-2.17388-1.95679-3.62091-2.86739-3.12156-3.50116c0.49713-0.63243,1.13348-0.22678,1.38169-0.82365
				c0.24883-0.59706-1.58644-5.04172-0.70632-4.76337c0.88306,0.28003,1.87757,1.48117,2.25372,1.13321
				c0.37543-0.34778,1.32399-0.28261,1.87544,0.19408c0.55411,0.47676,0.71635,1.94585,1.42027,1.78911
				c0.70355-0.15468,1.1013-0.9955,1.82521-0.46788c0.72392,0.52745,1.44862,2.6855,1.63577,6.30855
				C87.92295,172.01797,89.53791,174.45322,89.18898,175.3152z"/>
		</g>
		<g>
			
				<path style="fill:#63C08A;stroke:#7D1619;stroke-width:0.84605;stroke-linecap:round;stroke-linejoin:round;stroke-miterlimit:10;" d="
				M89.20027,175.2567c0,0,0.22829,0.28474-1.83917,1.70093c-2.06738,1.41734-3.49299,2.72737-5.35712,4.88391
				c-1.86434,2.15816-2.63012,2.28635-3.4681,1.88824c-0.83761-0.39748-1.42604,0.6295-2.34206,1.57248
				c-0.91381,0.94287-2.65047,2.77484-2.77902,1.91953c-0.12908-0.85388-0.08108-1.62999-0.69529-1.6306
				c-0.6119-0.00063-1.06138,0.14543-1.44028-0.1779c-0.38147-0.32394-0.57233-0.41853-0.9987-0.52734
				c-0.42672-0.10793-1.83927,0.30145-0.57003-1.19936c1.2695-1.50011,8.98506-5.01477,8.6235-5.452
				c-0.36111-0.43596-2.56353-0.41418-3.99367,0.37979c-1.42987,0.79094-4.13564,3.35332-4.77563,2.30794
				c-0.64284-1.0412-0.68338-1.04254-0.96732-1.08263c-0.2851-0.03947-0.57323-0.79272,0.84535-1.34746
				c1.41769-0.55394,2.29238-1.71045,1.70644-1.84612c-0.58504-0.13637-4.07687,0.24199-5.50826,0.15079
				c-1.43191-0.09254-2.62246,0.09227-2.0735-0.63475c0.55233-0.72507,2.32305-1.16095,1.89367-1.47797
				c-0.42895-0.31799-4.86729-0.54248-4.30793-1.74886c0.55865-1.2061,2.37844-1.49005,4.192-0.91798
				c1.81401,0.57111,2.35799,0.45349,1.86344-0.28349c-0.49296-0.73682-2.35471-2.16571-0.60773-1.82779
				c1.74564,0.33888,3.11249,1.64607,3.41333,0.9539c0.29977-0.69467-1.47005-1.72556-0.41367-1.9631
				c1.05695-0.23897,2.26172,0.55545,2.65679,0.00107c0.39534-0.55634,0.39845-2.11955,1.22736-1.32283
				c0.83051,0.79424,1.34595,1.3631,1.64777,1.04636c0.30226-0.31764-0.16793-1.50731,0.90466-0.91168
				c1.07249,0.59457,6.99191,5.86493,7.73281,5.23392c0.74036-0.6312-0.43455-2.49542-2.61892-4.44164
				c-2.18312-1.9478-3.63512-2.85191-3.13818-3.48773c0.49482-0.63466,1.13366-0.23221,1.37919-0.82909
				c0.2468-0.59848-1.60855-5.03558-0.72701-4.75945c0.88402,0.27559,1.88406,1.47263,2.25851,1.12343
				c0.37356-0.34964,1.3232-0.2883,1.87678,0.18597c0.5549,0.47499,0.72551,1.94229,1.42951,1.7829
				c0.70222-0.15797,1.09596-0.99942,1.82255-0.47562c0.72516,0.52478,1.46054,2.67821,1.66367,6.30054
				C87.9185,171.9657,89.54449,174.39322,89.20027,175.2567z"/>
		</g>
	</g>
	<g>
		<g>
			
				<path style="fill:#97CD7E;stroke:#7D1619;stroke-width:0.84605;stroke-linecap:round;stroke-linejoin:round;stroke-miterlimit:10;" d="
				M171.65063,209.22327c0,0-1.98878-0.74596,0.1162-2.61838c2.10435-1.87047,3.97232-2.99815,5.90857-5.50862
				c1.93643-2.51152,2.59563-4.03108,3.20877-4.05705c0.61331-0.02577-1.09587,3.27759,0.07877,2.86589
				c1.17259-0.41206,2.57874-3.18086,3.57788-2.35587c0.99826,0.82562,0.45624,2.01573,1.50232,1.74556
				c1.04422-0.26822,2.03448-0.82047,2.44432-0.61537c0.40938,0.20554,0.61172,0.82678,1.4183,1.0764
				c0.80571,0.24928,0.89977,0.10962,0.97523,0.93924c0.07628,0.82881-0.46005,1.60696-3.6097,2.11511
				c-3.14806,0.50771-5.51973,1.14478-4.75465,1.56714c0.76614,0.42343,2.24678-0.03885,6.0918-0.75938
				c3.8452-0.71832,2.71039-1.41895,4.15929-0.71289c1.44917,0.70683,0.95692,1.25917,0.53821,1.67372
				c-0.41945,0.41418-2.4341,2.97202-1.17696,2.88695c1.25661-0.08632,3.96957-0.75218,3.98158-0.00311
				c0.01155,0.74828-0.79477,1.51228-0.34148,1.79649c0.45268,0.2827,0.52701,0.35168,1.88007,0.94963
				c1.35289,0.59892,1.09036,1.16299,0.56372,1.61426c-0.52692,0.45276-1.16585,0.31363-1.12024,0.8513
				c0.04596,0.53891,0.53261,1.21127-0.22615,0.96715c-0.75833-0.24127-1.20453-0.61705-1.53816-0.28751
				c-0.33133,0.3316-0.3627,1.60466-2.62379,0.01263c-2.26279-1.59007-4.74345-2.00026-4.5276-0.49065
				c0.21594,1.50854,0.58496,4.22765-1.83801,3.4063c-2.42227-0.82214-5.57059-2.30759-7.80287-4.29886
				C176.30304,209.99225,172.51813,209.91856,171.65063,209.22327z"/>
		</g>
		<g>
			
				<path style="fill:#97CD7E;stroke:#7D1619;stroke-width:0.84605;stroke-linecap:round;stroke-linejoin:round;stroke-miterlimit:10;" d="
				M171.65063,209.22327c0,0-1.98878-0.74596,0.1162-2.61838c2.10435-1.87047,3.97232-2.99815,5.90857-5.50862
				c1.93643-2.51152,2.59563-4.03108,3.20877-4.05705c0.61331-0.02577-1.09587,3.27759,0.07877,2.86589
				c1.17259-0.41206,2.57874-3.18086,3.57788-2.35587c0.99826,0.82562,0.45624,2.01573,1.50232,1.74556
				c1.04422-0.26822,2.03448-0.82047,2.44432-0.61537c0.40938,0.20554,0.61172,0.82678,1.4183,1.0764
				c0.80571,0.24928,0.89977,0.10962,0.97523,0.93924c0.07628,0.82881-0.46005,1.60696-3.6097,2.11511
				c-3.14806,0.50771-5.51973,1.14478-4.75465,1.56714c0.76614,0.42343,2.24678-0.03885,6.0918-0.75938
				c3.8452-0.71832,2.71039-1.41895,4.15929-0.71289c1.44917,0.70683,0.95692,1.25917,0.53821,1.67372
				c-0.41945,0.41418-2.4341,2.97202-1.17696,2.88695c1.25661-0.08632,3.96957-0.75218,3.98158-0.00311
				c0.01155,0.74828-0.79477,1.51228-0.34148,1.79649c0.45268,0.2827,0.52701,0.35168,1.88007,0.94963
				c1.35289,0.59892,1.09036,1.16299,0.56372,1.61426c-0.52692,0.45276-1.16585,0.31363-1.12024,0.8513
				c0.04596,0.53891,0.53261,1.21127-0.22615,0.96715c-0.75833-0.24127-1.20453-0.61705-1.53816-0.28751
				c-0.33133,0.3316-0.3627,1.60466-2.62379,0.01263c-2.26279-1.59007-4.74345-2.00026-4.5276-0.49065
				c0.21594,1.50854,0.58496,4.22765-1.83801,3.4063c-2.42227-0.82214-5.57059-2.30759-7.80287-4.29886
				C176.30304,209.99225,172.51813,209.91856,171.65063,209.22327z"/>
		</g>
	</g>
	
		<path style="fill:#EA829F;stroke:#7D1619;stroke-width:0.84605;stroke-linecap:round;stroke-linejoin:round;stroke-miterlimit:10;" d="
		M117.54264,188.78528l-3.50079-4.08524c0,0-5.21355-0.45073-9.67502,0.8842c0,0-1.12459,4.51764,4.60975,9.53011
		C108.97658,195.11435,114.69891,193.42996,117.54264,188.78528z"/>
	<path style="fill:none;stroke:#7D1619;stroke-width:0.84605;stroke-linecap:round;stroke-miterlimit:10;" d="M141.49042,189.06895
		c0,0,0.26875-5.43874-5.17256-5.80403c-5.44096-0.36618-8.42206-0.36902-10.49281-2.63757s-6.1142-3.96523-10.3567-2.31648
		c-4.24232,1.64821-10.99874,0.85966-12.74341-2.0744c-1.74467-2.93398-5.62098-3.91187-5.95907-3.97694"/>
	
		<path style="fill:#FFF7EA;stroke:#7D1619;stroke-width:0.84605;stroke-linecap:round;stroke-linejoin:round;stroke-miterlimit:10;" d="
		M135.15317,185.2731c-0.65083,1.50267,0.56416,3.47537,2.71422,4.4066c2.14996,0.93114,4.42012,0.46788,5.07095-1.03481
		c0.65057-1.50214-0.56451-3.47484-2.71448-4.40607C138.0739,183.30769,135.80383,183.77095,135.15317,185.2731z"/>
	
		<path style="fill:#B1DFDB;stroke:#7D1619;stroke-width:1.56833;stroke-linecap:round;stroke-linejoin:round;stroke-miterlimit:10;" d="
		M143.27457,86.97217c0.15521-0.45526,2.43408-3.95517-2.73831-4.10719c-5.17195-0.15211-5.93266,0.60835-6.54111-1.21704
		c-0.60843-1.82548-0.4565-2.7383-3.19435-3.65096c-2.7384-0.91265-5.02012-1.82521-5.32478-4.10719
		c-0.30377-2.28198-0.45606-3.80325-2.28172-4.7159c-1.8253-0.91264,0.30421-3.34647-0.91265-6.08477
		s-6.23733-2.89024-6.9976,1.82539c-0.76036,4.71571,1.67328,5.17204,2.89014,6.54119
		c1.21722,1.36906,1.8261,2.89059,2.73831,5.78074c0.913,2.89024,1.36959,5.17204,5.32468,6.08478
		c3.95517,0.91283,4.10701,2.73813,6.38882,3.65096c2.2818,0.91283,2.43283,0.45632,4.25894,0
		C138.71095,86.51585,142.65378,88.79676,143.27457,86.97217z"/>
	<path style="fill:#EA829F;stroke:#7D1619;stroke-width:1.56833;stroke-linecap:round;stroke-miterlimit:10;" d="M93.77028,94.63137
		c0.12508-0.02845,4.99557-1.25768,2.7407-5.84706c-2.25488-4.58929-4.0558-1.03853-5.58044-2.59304
		c-1.52473-1.55451-1.15526-4.04549-2.92081-2.47703c-1.76565,1.56856-5.72962,2.04888-5.28085-1.66581
		c0.44877-3.71479,2.37302-7.73077-0.0793-8.9864c-2.4524-1.25571-3.82849,2.75804-4.93645,0.02036
		c-1.10806-2.73777,0.5326-0.77779-1.39511-4.2216c-1.92744-3.44364,0.51109-5.47884,0.83762-8.18042
		c0.32662-2.70168-3.90503-5.67993-6.46145-1.53442c-2.55677,4.14524-0.36787,5.24689-0.52292,7.41348
		c-0.15512,2.16659-2.21298,4.45381-0.00542,7.73548c2.20757,3.28166,4.39461,1.62723,4.99762,4.57818
		c0.60301,2.95096-0.57475,6.36659,2.29949,6.44234c2.8746,0.07601,3.30788,0.5246,4.87733,3.66838
		C83.90946,92.12732,88.43715,95.84806,93.77028,94.63137z"/>
	<path style="fill:#F2BDBD;stroke:#7D1619;stroke-width:1.56833;stroke-miterlimit:10;" d="M78.04035,132.80434
		c-0.49908-0.46228-4.25938-3.04269-4.71589,0.91257c-0.45659,3.95544,1.97714,5.47643,3.95509,4.868
		C79.25758,137.97647,82.14772,136.60732,78.04035,132.80434z"/>
	<path style="fill:#F2BDBD;stroke:#7D1619;stroke-width:1.56833;stroke-miterlimit:10;" d="M227.77682,124.19897
		c-0.49927-0.46228-4.25955-3.0427-4.71588,0.91265c-0.45633,3.95535,1.9774,5.47634,3.95517,4.868
		C228.99388,129.37119,231.88429,128.00204,227.77682,124.19897z"/>
	
		<path style="fill:#FEE486;stroke:#7D1619;stroke-width:1.56833;stroke-linecap:round;stroke-linejoin:round;stroke-miterlimit:10;" d="
		M161.89304,48.68221c0,0,3.8028-1.52126,1.52107-3.34665c-2.2818-1.82548-2.43408-1.67337-3.04251-3.95517
		c-0.60844-2.28172-0.76038-1.82548-2.89024-3.65087c-2.12987-1.82548-2.2818-2.43391-4.56352-5.93276
		c-2.2818-3.49876-1.97794-3.49876-5.0201-5.17213c-3.04288-1.67337-1.52144-1.52126-4.10747-3.19463
		c-2.58594-1.67337-3.19437-1.36915-7.30182-2.73831c-4.10738-1.36915-4.34723-4.25948-6.73758-3.49876
		c-2.3899,0.76072-5.21568,6.08478,0,7.60604c5.21658,1.52126,6.28108,0,9.47552,2.73831
		c3.19481,2.73822,2.1521,5.32424,6.24844,6.8455c4.09627,1.52126,5.16075,0.30421,6.37807,3.65096
		c1.21678,3.34665,0.91301,4.10719,3.49858,5.78056C157.93785,45.48766,159.00244,49.74696,161.89304,48.68221z"/>
	
		<path style="fill:#FEE486;stroke:#7D1619;stroke-width:1.56833;stroke-linecap:round;stroke-linejoin:round;stroke-miterlimit:10;" d="
		M170.6682,95.02991c0.73227-0.25497,7.08678-1.87046,4.98872-5.34682c-2.09857-3.47626-2.55508-1.84797-3.62001,0
		c-1.06494,1.84797-3.07881,1.29217-4.12517,2.1024C166.86496,92.59582,168.0764,95.93118,170.6682,95.02991z"/>
	
		<path style="fill:#B1DFDB;stroke:#7D1619;stroke-width:1.56833;stroke-linecap:round;stroke-linejoin:round;stroke-miterlimit:10;" d="
		M175.15331,117.93195c0,0-1.06485-3.34674,4.5636-1.82549c5.62846,1.52126,5.17195,1.64092,8.21483-0.3964
		c3.04218-2.03741,4.71545-5.07994,8.06219-5.38416c3.34673-0.30422,2.58638-0.3044,4.56396-2.89042
		c1.97758-2.58593,0.15237-7.14971,3.65094-6.9976c3.4986,0.15211,6.08496,5.02029,2.73822,7.60622
		c-3.34665,2.58602-3.80315,1.21687-4.86818,5.78065c-1.06483,4.56369-4.10692,6.08495-7.75832,6.38917
		c-3.65042,0.30422-5.93222-0.91265-7.45375,1.67337c-1.52144,2.58593-6.84567,4.5637-10.64848,3.80298
		c-3.80324-0.76072-2.7383-0.76045-5.9332,1.8253c-3.19437,2.58636-6.42998,2.12987-6.25743-1.521
		c0.17247-3.65096,3.06351-5.17204,5.95364-5.78065C172.8716,119.60532,175.1517,119.06463,175.15331,117.93195z"/>
	
		<path style="fill:#FEE486;stroke:#7D1619;stroke-width:1.56833;stroke-linecap:round;stroke-linejoin:round;stroke-miterlimit:10;" d="
		M119.07671,97.65869c0,0,0.41516-2.68221-1.48268-2.49214c-1.89713,0.19016-2.31149-1.05524-3.97162-1.47005
		c-1.66021-0.41481-3.49866,0.65244-2.37186,2.49027c1.12609,1.83784,1.54135,0.28644,3.49787,2.81112
		C116.70486,101.52256,119.25416,100.49416,119.07671,97.65869z"/>
	<g>
		<path style="fill:#DAA363;" d="M185.12125,51.62267c-3.9238,2.83672-2.74551,11.16605,2.63206,18.60363
			c5.37749,7.43668,12.91765,11.1656,16.8418,8.32906c3.92371-2.83752,2.74489-11.16667-2.63242-18.60371
			C196.58546,52.51398,189.0453,48.78542,185.12125,51.62267z"/>
		<path style="fill:#7D1619;" d="M184.72182,51.07033c2.11244-1.52731,5.15852-1.43752,8.5771,0.2531
			c3.27846,1.62127,6.55132,4.54387,9.21584,8.22887c2.6293,3.63646,4.37221,7.61466,4.90765,11.20232
			c0.5735,3.83978-0.28876,6.80585-2.42822,8.35271c-4.29388,3.10404-12.10901-0.62167-17.79303-8.48153
			c-2.62914-3.63699-4.37247-7.61537-4.90802-11.20267C181.72009,55.58353,182.58243,52.61711,184.72182,51.07033z
			 M201.41061,60.3509c-2.53712-3.50898-5.63191-6.2809-8.71561-7.80598c-2.94357-1.45565-5.49162-1.58723-7.17468-0.37009
			c-1.7061,1.23376-2.37355,3.7363-1.87918,7.04712c0.50406,3.37563,2.16028,7.14216,4.66432,10.60482
			c5.06163,7.0001,12.33812,10.74431,15.8903,8.17607c1.70644-1.23358,2.37346-3.73621,1.879-7.04686
			C205.57079,67.58018,203.91458,63.81392,201.41061,60.3509z"/>
		<path style="fill:#D4884F;" d="M185.1937,51.57564c-0.02382,0.01627-0.04889,0.03005-0.07245,0.04703
			c-3.9238,2.83672-2.74551,11.16605,2.63206,18.60363c5.37749,7.43668,12.91765,11.1656,16.8418,8.32906l-6.00067,4.36642
			c-3.92371,2.83672-11.46387-0.8922-16.84171-8.32906c-5.22504-7.22706-6.42972-14.59893-2.89664-17.6531l-0.00046-0.00116
			L185.1937,51.57564C185.1937,51.57564,184.89722,51.29169,185.1937,51.57564z"/>
		<path style="fill:#7D1619;" d="M178.38367,56.44756c0.0105-0.01014,0.02107-0.01965,0.03218-0.02898l5.60516-4.74327
			c0.11745-0.12055,0.24164-0.23594,0.36964-0.34529c0.02275-0.12793,0.08232-0.25079,0.17914-0.35187
			c0.26004-0.27159,0.69147-0.28128,0.96333-0.02071l0.12329,0.11815c0.01645,0.01503,0.0321,0.03112,0.04712,0.04818
			c0.04774,0.05352,0.08588,0.11344,0.11345,0.17629c0.11948,0.27043,0.05182,0.59661-0.18359,0.79565l-0.67928,0.57519
			c-1.27705,1.34604-1.74316,3.6706-1.31297,6.55106c0.50371,3.37554,2.16037,7.14171,4.66432,10.60482
			c5.06065,6.99894,12.3358,10.74262,15.88835,8.17793l0.00026-0.00071c0.0009-0.00008,0.00169-0.00115,0.00169-0.00115
			c0.30466-0.22003,0.73022-0.15202,0.95079,0.15246c0.22092,0.30369,0.15326,0.72934-0.15059,0.95052l-6.00238,4.36803
			c-4.29353,3.10413-12.10901-0.62168-17.79303-8.48162c-2.6494-3.66464-4.38483-7.53536-4.88719-10.89979
			C175.81668,60.76455,176.55162,58.05122,178.38367,56.44756z M187.20116,70.62581
			c-2.6295-3.63708-4.37247-7.61537-4.90802-11.20267c-0.25345-1.69942-0.22002-3.24673,0.08687-4.5741l-3.05861,2.58771
			c-0.00632,0.00649-0.01299,0.01262-0.01982,0.01822c-1.48563,1.28461-2.06845,3.57024-1.6403,6.43665
			c0.47046,3.15249,2.12001,6.81154,4.64352,10.30158c5.06207,7.00018,12.339,10.74448,15.8887,8.17722l2.98828-2.17414
			C196.9088,80.07911,191.45717,76.51101,187.20116,70.62581z"/>
		<path style="fill:#CD7434;" d="M190.65804,59.28027c-1.69257,1.22362-1.18433,4.81653,1.13535,8.02476
			c2.3196,3.20788,5.5721,4.81635,7.26485,3.59281c1.69249-1.22398,1.18398-4.81679-1.13553-8.02485
			C195.60321,59.66476,192.35071,58.05638,190.65804,59.28027z"/>
		<path style="fill:#CD7434;" d="M192.00221,69.79166c-0.46049,0.10357-0.7256,0.66338-0.59341,1.25127
			c0.13211,0.58727,0.61163,0.98022,1.07205,0.87665c0.45979-0.10339,0.72552-0.664,0.59341-1.25127
			C192.94206,70.08041,192.46191,69.68827,192.00221,69.79166z"/>
		<path style="fill:#CD7434;" d="M202.46301,65.50898c-0.26855,0.06036-0.42734,0.36823-0.3555,0.68764
			c0.07191,0.31933,0.34706,0.52931,0.61563,0.46886c0.26785-0.06027,0.42734-0.36796,0.35551-0.68738
			C203.00673,65.65878,202.73079,65.44871,202.46301,65.50898z"/>
		<path style="fill:#7D1619;" d="M196.0927,81.34825c-0.23061,0.05192-0.39081,0.20758-0.35916,0.34795
			c0.03156,0.14037,0.24297,0.21256,0.47357,0.16064c0.22981-0.05174,0.39-0.20741,0.35844-0.34778
			S196.32249,81.2966,196.0927,81.34825z"/>
		<path style="fill:#7D1619;" d="M185.39177,71.22643c-0.20412,0.04587-0.32822,0.26972-0.27666,0.49935
			c0.05174,0.2298,0.25986,0.37898,0.46397,0.33302c0.20412-0.04587,0.32831-0.26972,0.27657-0.49962
			C185.804,71.32954,185.59589,71.18046,185.39177,71.22643z"/>
		<path style="fill:#7D1619;" d="M180.41495,65.60651c-0.2482,0.05582-0.40076,0.31817-0.3403,0.58665
			c0.06036,0.26857,0.31062,0.44059,0.55882,0.38477c0.24821-0.05583,0.40077-0.31853,0.34032-0.58701
			C180.91341,65.72234,180.66316,65.55067,180.41495,65.60651z"/>
		<path style="fill:#7D1619;" d="M183.49295,63.13445c0,0-2.58807-0.65928-4.81973-0.1482
			c-1.24718,0.28555,4.04398-3.13667,4.04398-3.13667L183.49295,63.13445z"/>
		<path style="fill:#7D1619;" d="M191.05632,74.63157c0,0-2.11459,0.3252-3.59958,1.40142
			c-0.82997,0.60141,1.99812-3.57983,1.99812-3.57983L191.05632,74.63157z"/>
		<path style="fill:#DAA363;" d="M189.87056,64.78462c0,0,1.5995,0.18056,2.88997-0.30831
			c0.72116-0.27319-2.15636,2.2058-2.15636,2.2058L189.87056,64.78462z"/>
		<path style="fill:#DAA363;" d="M196.715,71.66648c0,0,0.72231-0.91888,0.91309-1.90238
			c0.10669-0.54967,0.53883,2.17379,0.53883,2.17379L196.715,71.66648z"/>
	</g>
	<g>
		<path style="fill:#DAA363;" d="M147.60294,173.18799c0.91559,1.70699,4.2809,1.68369,7.51653-0.05209
			c3.23524-1.73587,5.11559-4.5267,4.20007-6.23376c-0.91602-1.70699-4.28125-1.68352-7.51668,0.05219
			C148.56732,168.69,146.68709,171.48093,147.60294,173.18799z"/>
		<path style="fill:#7D1619;" d="M147.36264,173.31689c-0.49295-0.91896-0.29506-2.12195,0.5575-3.38727
			c0.81752-1.21349,2.15076-2.35542,3.75381-3.21544c1.58197-0.84872,3.25223-1.32782,4.70326-1.34888
			c1.55299-0.02277,2.68311,0.4772,3.18245,1.40791c1.00182,1.86797-0.89185,4.76807-4.31122,6.60289
			c-1.58215,0.84854-3.2525,1.3278-4.70335,1.34897C148.9921,174.74767,147.86191,174.24759,147.36264,173.31689z
			 M151.93176,167.19452c-1.5265,0.81894-2.7905,1.89828-3.55957,3.03967c-0.73396,1.08948-0.92198,2.0928-0.52905,2.82498
			c0.39819,0.74223,1.35493,1.14024,2.69394,1.12068c1.36534-0.01991,2.94696-0.47589,4.45338-1.28416
			c3.04527-1.6339,4.91759-4.31949,4.0887-5.86475c-0.39819-0.74232-1.35493-1.14015-2.69395-1.12059
			C155.01988,165.93027,153.43826,166.38623,151.93176,167.19452z"/>
		<path style="fill:#D4884F;" d="M147.58809,173.15678c0.00525,0.01022,0.00934,0.02098,0.01485,0.0312
			c0.91559,1.70699,4.2809,1.68369,7.51653-0.05209c3.23524-1.73587,5.11559-4.5267,4.20007-6.23376l1.41139,2.61188
			c0.91568,1.70699-0.96475,4.49782-4.2,6.23378c-3.14397,1.68652-6.1311,1.77126-7.15381,0.20767l-0.00044,0.00009
			L147.58809,173.15678C147.58809,173.15678,147.45972,173.2592,147.58809,173.15678z"/>
		<path style="fill:#7D1619;" d="M149.15691,176.11655c-0.00346-0.00471-0.00667-0.00943-0.00986-0.01431l-1.58191-2.47516
			c-0.0415-0.05307-0.08061-0.10846-0.11725-0.16501c-0.04951-0.01582-0.09503-0.04605-0.12988-0.08978
			c-0.09387-0.11761-0.07468-0.2892,0.04312-0.38307l0.05342-0.04259c0.00685-0.00569,0.01396-0.01111,0.02151-0.01608
			c0.02383-0.0161,0.04961-0.028,0.07602-0.03566c0.11362-0.03288,0.23932,0.01129,0.30573,0.11522l0.19183,0.30005
			c0.46558,0.57802,1.36241,0.88678,2.52744,0.86971c1.36525-0.01982,2.94688-0.47597,4.45338-1.28416
			c3.04474-1.63354,4.91689-4.3186,4.08932-5.86386l-0.00027-0.00053c0,0-0.00018,0-0.00035-0.00035
			c-0.07103-0.13255-0.02142-0.29764,0.11113-0.36885c0.13219-0.0714,0.29736-0.02187,0.36884,0.11041l1.412,2.61269
			c1.00191,1.8678-0.89185,4.76808-4.31122,6.6028c-1.59425,0.85522-3.22147,1.33698-4.58218,1.35689
			C150.73169,177.36444,149.69502,176.92847,149.15691,176.11655z M155.24844,173.37611
			c-1.58224,0.84872-3.2525,1.3278-4.70335,1.34897c-0.68738,0.00987-1.2991-0.08588-1.80904-0.27826l0.86296,1.35066
			c0.00232,0.00284,0.00436,0.00578,0.00623,0.0088c0.43019,0.6575,1.30531,1.01044,2.46468,0.99345
			c1.27499-0.01859,2.81378-0.47757,4.33202-1.29216c3.04536-1.63399,4.91779-4.31967,4.08905-5.86395l-0.70276-1.3007
			C159.51398,170.03088,157.80869,172.00224,155.24844,173.37611z"/>
		<path style="fill:#CD7434;" d="M150.9342,171.40074c0.39497,0.73636,1.84663,0.72632,3.24228-0.0224
			c1.39557-0.74881,2.20668-1.9527,1.81171-2.68906c-0.39508-0.73627-1.84673-0.72614-3.24228,0.02258
			C151.35017,169.46049,150.53914,170.66447,150.9342,171.40074z"/>
		<path style="fill:#CD7434;" d="M155.1736,171.42804c0.01653,0.18811,0.22429,0.32306,0.46449,0.30199
			c0.23985-0.02115,0.42122-0.19034,0.40468-0.37836c-0.01645-0.18785-0.22456-0.32306-0.46451-0.30199
			C155.33815,171.07083,155.15706,171.24028,155.1736,171.42804z"/>
		<path style="fill:#CD7434;" d="M154.033,167.05209c0.0096,0.10971,0.1232,0.1891,0.25372,0.17763
			c0.13042-0.01147,0.22838-0.10944,0.21869-0.21915c-0.00961-0.10934-0.12312-0.189-0.25354-0.17752
			C154.12137,166.84451,154.02341,166.94275,154.033,167.05209z"/>
		<path style="fill:#7D1619;" d="M159.97377,170.42213c0.00826,0.09415,0.06142,0.16597,0.11876,0.1609
			c0.05734-0.00497,0.09726-0.08499,0.0889-0.17923c-0.00818-0.09387-0.06142-0.16571-0.11876-0.16063
			C160.00533,170.24825,159.9655,170.32825,159.97377,170.42213z"/>
		<path style="fill:#7D1619;" d="M155.39015,174.12553c0.00729,0.0833,0.08943,0.14455,0.18323,0.13629
			c0.09387-0.00827,0.16411-0.08286,0.15681-0.16624c-0.00737-0.0833-0.08952-0.14447-0.1834-0.13629
			C155.453,173.96756,155.38278,174.04214,155.39015,174.12553z"/>
		<path style="fill:#7D1619;" d="M152.89659,175.79926c0.00897,0.10144,0.10481,0.17586,0.21452,0.16624
			c0.1097-0.00969,0.19122-0.09975,0.18233-0.20108c-0.0089-0.10135-0.1049-0.17586-0.2146-0.16624
			C152.96913,175.60786,152.8877,175.69792,152.89659,175.79926z"/>
		<path style="fill:#7D1619;" d="M152.08049,174.44708c0,0-0.39934,0.99106-0.3156,1.90318
			c0.04675,0.50966-1.02814-1.77063-1.02814-1.77063L152.08049,174.44708z"/>
		<path style="fill:#7D1619;" d="M157.04219,172.061c0,0,0.01617,0.85576,0.36378,1.50197
			c0.19423,0.36111-1.31288-0.98306-1.31288-0.98306L157.04219,172.061z"/>
		<path style="fill:#DAA363;" d="M153.07466,172.00642c0,0,0.15691-0.62462,0.03183-1.16237
			c-0.06989-0.30049,0.75964,0.97256,0.75964,0.97256L153.07466,172.00642z"/>
		<path style="fill:#DAA363;" d="M156.16812,169.65936c0,0-0.32582-0.33533-0.7056-0.46344
			c-0.2123-0.07156,0.89059-0.09778,0.89059-0.09778L156.16812,169.65936z"/>
	</g>
	<g>
		<g>
			
				<path style="fill:#97CD7E;stroke:#7D1619;stroke-width:0.84605;stroke-linecap:round;stroke-linejoin:round;stroke-miterlimit:10;" d="
				M140.37064,179.97659c0,0,8.20914-6.33662,11.98846-3.92885c3.77907,2.40581,3.31918,1.50179,5.96094,0.90047
				c2.6423-0.60027,4.79875-0.60222,4.62682,1.15392c-0.17184,1.75587,0.9635,2.36404,2.52902,2.96794
				c1.56609,0.60622,2.33018,3.82796,0.56444,4.87778c-1.7652,1.04921-2.26723,1.98567-1.30266,3.55309
				c0.96324,1.56847-0.21309,3.60028-2.92757,3.53467c-2.71404-0.0649-1.89403,0.97008-3.63104,2.12747
				c-1.73694,1.15526-3.5321,1.29822-4.95673-1.97394c-1.42499-3.27234-0.64232-3.03249-4.82462-3.21321
				c-4.18391-0.18037-3.80928-1.58812-4.07803-4.17706c-0.26927-2.58923-2.51099-2.89594-4.00452-3.63541
				C138.82083,181.4247,138.41457,181.33215,140.37064,179.97659z"/>
		</g>
		<g>
			
				<path style="fill:#97CD7E;stroke:#7D1619;stroke-width:0.84605;stroke-linecap:round;stroke-linejoin:round;stroke-miterlimit:10;" d="
				M140.37064,179.97659c0,0,8.20914-6.33662,11.98846-3.92885c3.77907,2.40581,3.31918,1.50179,5.96094,0.90047
				c2.6423-0.60027,4.79875-0.60222,4.62682,1.15392c-0.17184,1.75587,0.9635,2.36404,2.52902,2.96794
				c1.56609,0.60622,2.33018,3.82796,0.56444,4.87778c-1.7652,1.04921-2.26723,1.98567-1.30266,3.55309
				c0.96324,1.56847-0.21309,3.60028-2.92757,3.53467c-2.71404-0.0649-1.89403,0.97008-3.63104,2.12747
				c-1.73694,1.15526-3.5321,1.29822-4.95673-1.97394c-1.42499-3.27234-0.64232-3.03249-4.82462-3.21321
				c-4.18391-0.18037-3.80928-1.58812-4.07803-4.17706c-0.26927-2.58923-2.51099-2.89594-4.00452-3.63541
				C138.82083,181.4247,138.41457,181.33215,140.37064,179.97659z"/>
		</g>
	</g>
	
		<path style="fill:#FFF7EA;stroke:#7D1619;stroke-width:0.84605;stroke-linecap:round;stroke-linejoin:round;stroke-miterlimit:10;" d="
		M156.29631,185.19743c-0.43828,1.01187,0.18269,2.25433,1.38658,2.77574c1.20407,0.52148,2.53508,0.12447,2.97336-0.88731
		c0.43802-1.01141-0.18269-2.25452-1.38675-2.776C158.06561,183.78838,156.73431,184.18611,156.29631,185.19743z"/>
	<g>
		<path id="XMLID_26_" style="fill:#63C08A;" d="M94.54993,117.84945c-7.74162-4.36251-15.48322-8.72494-23.22484-13.08745
			c-0.1282,0.67831-0.25639,1.35661-0.38449,2.03501c7.5927,3.94318,15.18549,7.88644,22.7782,11.82961
			c-0.22874-0.03539-0.45757-0.07068-0.68622-0.10606L94.54993,117.84945z"/>
		<path id="XMLID_25_" style="fill:#46AD71;" d="M94.72461,117.58391c-7.08508-4.09235-14.69974-7.26671-22.59381-9.41845
			c-0.14001,1.15134,0.67645,2.24242,1.68466,2.81583c1.00822,0.57349,2.18526,0.74899,3.3229,0.97497
			c5.61166,1.1149,10.81953,3.66473,15.95379,6.18923L94.72461,117.58391z"/>
		<path id="XMLID_22_" style="fill:#63C08A;" d="M93.98923,116.68156c-5.58311-2.26269-11.49702-3.70731-17.49459-4.27352
			c0.03947,1.08387,0.32137,2.15814,0.81904,3.12191c5.49288-0.95345,11.23886-0.40591,16.45286,1.56767L93.98923,116.68156z"/>
		<path id="XMLID_19_" style="fill:#46AD71;" d="M94.17753,117.61475c-5.44176-6.46651-12.17525-11.21521-18.75244-16.34031
			c-0.14207-0.11069-0.28537-0.22225-0.44708-0.30155c-1.91624-0.93986-2.00327,1.67221-1.18184,2.71146
			c1.08841,1.37724,2.99745,2.40289,4.43248,3.37279c5.43972,3.67683,10.68633,7.63937,15.71081,11.86614
			c0.2795-0.48708,0.5591-0.97426,0.8386-1.46134"/>
		<path id="XMLID_18_" style="fill:#46AD71;" d="M93.78744,115.22485c-0.62586-1.71284-2.72533-3.5977-3.80325-5.09949
			c-1.29839-1.80903-2.5621-3.64287-3.79026-5.50026c-2.20686-3.33749-4.85725-6.91804-5.95667-10.81187
			c-0.88492,0.27594-1.81223,0.50815-2.65768,0.86793c1.0276,1.4969,1.08281,3.06208,2.26456,4.53712
			c4.62699,5.77576,9.25407,11.55161,13.88107,17.32746L93.78744,115.22485z"/>
		<path id="XMLID_17_" style="fill:#63C08A;" d="M94.10072,117.21168c-5.79256-6.77162-11.58521-13.54324-17.37778-20.31487
			c-0.8746,1.66955,0.37463,3.6274,1.59087,5.06705c4.68904,5.54995,9.84526,10.70518,15.3961,15.39334"/>
		<path id="XMLID_16_" style="fill:#63C08A;" d="M95.31634,116.50546c-4.47231-5.54249-7.77344-11.33861-10.67843-17.79259
			c-0.14259-0.31693-0.29248-0.64391-0.55243-0.8746c-0.25994-0.2307-0.66266-0.33898-0.96074-0.1602
			c-0.5334,0.31986-0.30982,1.13161-0.02276,1.68342c0.99293,1.90904,1.72573,4.02789,2.76498,5.8739
			c1.23304,2.1906,3.13791,4.20499,4.58112,6.28045c1.16335,1.67257,2.32687,3.34523,3.49023,5.01789L95.31634,116.50546z"/>
	</g>
	<g>
		<path style="fill:#DAA363;" d="M109.68085,114.59055c-2.71519-2.0247-8.02779,0.50638-11.86552,5.65361
			c-3.8372,5.14688-4.74666,10.9606-2.03137,12.98557c2.71572,2.02454,8.02804-0.5069,11.86552-5.65379
			C111.48739,122.42897,112.39657,116.61533,109.68085,114.59055z"/>
		<path style="fill:#7D1619;" d="M109.96586,114.20827c1.46188,1.09,2.03999,3.14191,1.62768,5.77772
			c-0.39534,2.52779-1.66048,5.32441-3.56188,7.87469c-1.87642,2.51668-4.16649,4.51329-6.44891,5.62215
			c-2.44271,1.18707-4.60299,1.23286-6.08362,0.12891c-2.97124-2.21567-2.12152-8.21226,1.93394-13.65242
			c1.87677-2.51659,4.16693-4.51356,6.449-5.62241C106.32477,113.15018,108.48531,113.10431,109.96586,114.20827z
			 M107.26729,127.29102c1.81063-2.42831,3.01247-5.07461,3.38452-7.45225c0.35488-2.26953-0.09094-3.99784-1.25589-4.86622
			c-1.18086-0.88029-2.99096-0.80152-5.09718,0.22189c-2.14748,1.04351-4.31442,2.93789-6.10114,5.33455
			c-3.61184,4.84462-4.58672,10.48561-2.12854,12.31847c1.18077,0.88065,2.99087,0.80162,5.09701-0.22189
			C103.31363,131.58205,105.48048,129.68767,107.26729,127.29102z"/>
		<path style="fill:#D4884F;" d="M109.72742,114.62904c-0.01582-0.01244-0.0303-0.02631-0.04657-0.03849
			c-2.71519-2.0247-8.02779,0.50638-11.86552,5.65361c-3.8372,5.14688-4.74666,10.9606-2.03137,12.98557l-4.17129-3.09044
			c-2.71529-2.0247-4.24037-10.10813,0.68666-14.22421c6.43194-5.37313,9.45747-4.78745,12.52045-4.39247l0.00071-0.00053
			L109.72742,114.62904C109.72742,114.62904,109.85482,114.37167,109.72742,114.62904z"/>
		<path style="fill:#7D1619;" d="M105.04923,111.10423c0.00898,0.00489,0.01751,0.00996,0.02613,0.01538l4.33984,2.74763
			c0.10517,0.05308,0.20812,0.11184,0.30804,0.17434c0.09006-0.01156,0.18456,0.0024,0.2723,0.04596
			c0.23576,0.11664,0.33257,0.40254,0.21558,0.63857l-0.05299,0.10703c-0.00658,0.01414-0.01405,0.02792-0.02232,0.04152
			c-0.02578,0.04311-0.05769,0.08108-0.09388,0.11263c-0.15549,0.13647-0.38734,0.15967-0.56949,0.04418l-0.52629-0.33293
			c-1.16584-0.57038-2.81494-0.39462-4.64744,0.49589c-2.14748,1.04324-4.31416,2.93789-6.10114,5.33455
			c-3.61131,4.84373-4.5861,10.48366-2.13023,12.31758h0.00053c0.00027,0.00061,0.00117,0.00089,0.00117,0.00089
			c0.21069,0.15735,0.25443,0.45561,0.09743,0.66658c-0.15646,0.21104-0.45473,0.25505-0.66605,0.09859l-4.17262-3.09125
			c-2.97122-2.21548-3.46365-9.55446,0.59181-14.99462c1.891-2.53597,5.45306-3.16299,7.59341-4.20294
			C101.63022,110.29524,103.59518,110.21736,105.04923,111.10423z M97.43306,119.95932
			c1.87677-2.51694,4.16693-4.51356,6.449-5.62241c1.0812-0.52514,2.12099-0.82695,3.07115-0.90012l-2.36778-1.49948
			c-0.00568-0.00285-0.01119-0.00596-0.01626-0.00942c-1.16869-0.7225-2.81627-0.63271-4.63979,0.25346
			c-2.0055,0.97434-5.44425,1.49966-7.2451,3.91508c-3.61194,4.84489-3.24468,11.82827-0.78766,13.65978l2.07716,1.53905
			C93.15687,128.41881,94.39649,124.03273,97.43306,119.95932z"/>
		<path style="fill:#CD7434;" d="M105.72958,119.89007c-1.17117-0.87336-3.46275,0.21843-5.11825,2.43871
			c-1.65514,2.2201-2.04746,4.72789-0.8762,5.60143c1.17144,0.87326,3.46293-0.2187,5.11826-2.4388
			C106.50888,123.27121,106.90102,120.76342,105.72958,119.89007z"/>
		<path style="fill:#CD7434;" d="M98.99538,122.98904c-0.16552-0.28564-0.59474-0.34538-0.9594-0.13397
			c-0.36433,0.21122-0.52612,0.61349-0.36058,0.89913c0.16535,0.28519,0.59518,0.3452,0.9595,0.13397
			C98.99957,123.67677,99.16074,123.27423,98.99538,122.98904z"/>
		<path style="fill:#CD7434;" d="M104.0451,129.07391c-0.09664-0.16661-0.33534-0.20804-0.5334-0.09317
			c-0.19817,0.11485-0.28066,0.34244-0.18403,0.50903c0.09628,0.16617,0.33507,0.20813,0.53322,0.09335
			C104.05897,129.46828,104.14138,129.24007,104.0451,129.07391z"/>
		<path style="fill:#7D1619;" d="M92.13887,128.13992c-0.08295-0.14304-0.22047-0.21736-0.30751-0.16687
			c-0.08703,0.05049-0.09094,0.2067-0.008,0.34973c0.08267,0.14261,0.22012,0.21692,0.30724,0.16643
			C92.21762,128.43872,92.22146,128.28252,92.13887,128.13992z"/>
		<path style="fill:#7D1619;" d="M96.65314,118.87749c-0.07335-0.12669-0.24883-0.1626-0.39125-0.0801
			c-0.1426,0.08268-0.19852,0.25283-0.12508,0.37943s0.24883,0.1626,0.39143,0.07993
			C96.67064,119.17424,96.72656,119.00409,96.65314,118.87749z"/>
		<path style="fill:#7D1619;" d="M99.36165,114.37852c-0.08925-0.15398-0.2963-0.20083-0.46289-0.10428
			c-0.16653,0.09654-0.22892,0.29968-0.13966,0.45366c0.08916,0.15388,0.29648,0.20065,0.46298,0.1041
			C99.38869,114.73545,99.45091,114.53249,99.36165,114.37852z"/>
		<path style="fill:#7D1619;" d="M101.65635,115.91507c0,0-0.10214-1.86549-0.91069-3.24797
			c-0.45179-0.77254,2.94064,2.04213,2.94064,2.04213L101.65635,115.91507z"/>
		<path style="fill:#7D1619;" d="M95.56695,123.37149c0,0-0.66-1.34319-1.68937-2.10898
			c-0.57527-0.42797,2.80791,0.58372,2.80791,0.58372L95.56695,123.37149z"/>
		<path style="fill:#DAA363;" d="M101.89079,120.51743c0,0,0.2146,1.10548,0.81121,1.86433
			c0.33337,0.42406-1.92398-0.97719-1.92398-0.97719L101.89079,120.51743z"/>
		<path style="fill:#DAA363;" d="M98.73127,126.52728c0,0,0.76454,0.28963,1.46098,0.21095
			c0.38921-0.044-1.33804,0.81495-1.33804,0.81495L98.73127,126.52728z"/>
	</g>
	<g>
		<path style="fill:#53C1B4;stroke:#7D1619;stroke-width:1.56833;stroke-linejoin:round;stroke-miterlimit:10;" d="
			M209.78351,172.11275c0,0,6.18631,1.15286,10.41138,4.78568c4.22507,3.63309,10.02803,5.76562,10.09383,1.27225
			C230.35449,173.67731,224.02292,165.68846,209.78351,172.11275z"/>
		<path style="fill:#53C1B4;stroke:#7D1619;stroke-width:1.56833;stroke-linejoin:round;stroke-miterlimit:10;" d="
			M229.03796,163.69717c0,0,7.85745,2.65785,8.14763-1.3246C237.47523,158.39027,231.46565,161.82201,229.03796,163.69717z"/>
		<path style="fill:#53C1B4;stroke:#7D1619;stroke-width:1.56833;stroke-linejoin:round;stroke-miterlimit:10;" d="
			M239.01089,176.14455c0,0,5.53181,8.17686,10.61264,4.9425C254.70436,177.85268,250.38585,172.7571,239.01089,176.14455z"/>
		<path style="fill:#53C1B4;stroke:#7D1619;stroke-width:1.56833;stroke-linejoin:round;stroke-miterlimit:10;" d="
			M217.52565,186.68954c-1.04866-2.39978-3.84422-3.4953-6.24364-2.4469c-2.40004,1.04858-3.49556,3.84415-2.44698,6.24391
			c1.04857,2.39978,3.84421,3.4953,6.24364,2.44681C217.47871,191.88487,218.57423,189.08931,217.52565,186.68954z"/>
		<path style="fill:#53C1B4;stroke:#7D1619;stroke-width:1.56833;stroke-linejoin:round;stroke-miterlimit:10;" d="
			M254.86475,197.26396c-0.86359-1.97643-3.16512-2.87842-5.14191-2.01501c-1.97626,0.86366-2.87851,3.16547-2.01501,5.14191
			c0.86349,1.97652,3.16565,2.87868,5.14189,2.01511C254.82651,201.54247,255.72841,199.24022,254.86475,197.26396z"/>
		<path style="fill:#53C1B4;stroke:#7D1619;stroke-width:1.56833;stroke-linejoin:round;stroke-miterlimit:10;" d="
			M222.18964,148.02264c-0.82251-1.8822-3.01462-2.74168-4.89699-1.91901c-1.8822,0.82242-2.74117,3.01479-1.91873,4.89699
			c0.82242,1.88202,3.01469,2.7415,4.89644,1.91891C222.15309,152.09703,223.01213,149.90466,222.18964,148.02264z"/>
	</g>
</g>
</svg>
