<?xml version="1.0" encoding="utf-8"?>
<!-- Generator: Adobe Illustrator 24.2.1, SVG Export Plug-In . SVG Version: 6.00 Build 0)  -->
<svg version="1.0" id="Layer_1" xmlns="http://www.w3.org/2000/svg" xmlns:xlink="http://www.w3.org/1999/xlink" x="0px" y="0px"
	 width="270px" height="261.42856px" viewBox="0 0 270 261.42856" style="enable-background:new 0 0 270 261.42856;"
	 xml:space="preserve">
<g>
	<g id="freepik--background-simple--inject-64">
		<path style="fill:#FFCF30;" d="M180.27327,8.28178c0,0-44.05415-15.66507-87.29911,9.28631S27.90861,92.00366,9.16857,131.66579
			s-7.95252,79.99954,25.05741,98.39359s55.46114-8.72266,101.77548-10.04529c46.31433-1.32262,58.76492,5.30168,97.19371-20.8607
			s45.37679-87.94648,15.06793-133.6637S180.27327,8.28178,180.27327,8.28178z"/>
		<path style="opacity:0.7;fill:#FFFFFF;enable-background:new    ;" d="M180.27327,8.28178c0,0-44.05415-15.66507-87.29911,9.28631
			S27.90861,92.00366,9.16857,131.66579s-7.95252,79.99954,25.05741,98.39359s55.46114-8.72266,101.77548-10.04529
			c46.31433-1.32262,58.76492,5.30168,97.19371-20.8607s45.37679-87.94648,15.06793-133.6637S180.27327,8.28178,180.27327,8.28178z"
			/>
	</g>
	<g id="freepik--Kitchen--inject-64">
		<path style="fill:none;stroke:#263238;stroke-width:0.55807;stroke-linecap:round;stroke-linejoin:round;" d="M24.29789,94.31407
			H37.5465c1.27293,0,2.30483,1.03192,2.30483,2.30484v13.24861c0,1.27292-1.03191,2.30484-2.30483,2.30484H24.29789
			c-1.27293,0-2.30483-1.03192-2.30483-2.30484V96.61891C21.99305,95.34599,23.02496,94.31407,24.29789,94.31407z"/>
		<path style="fill:none;stroke:#263238;stroke-width:0.55807;stroke-linecap:round;stroke-linejoin:round;" d="M43.66854,94.31407
			h13.24862c1.27293,0,2.30483,1.03192,2.30483,2.30484v13.24861c0,1.27292-1.03191,2.30484-2.30483,2.30484H43.66854
			c-1.27293,0-2.30483-1.03192-2.30483-2.30484V96.61891C41.36371,95.34599,42.39562,94.31407,43.66854,94.31407z"/>
		<path style="fill:none;stroke:#263238;stroke-width:0.55807;stroke-linecap:round;stroke-linejoin:round;" d="M63.0392,94.31407
			h13.24861c1.27293,0,2.30484,1.03192,2.30484,2.30484v13.24861c0,1.27292-1.03191,2.30484-2.30484,2.30484H63.0392
			c-1.27293,0-2.30483-1.03192-2.30483-2.30484V96.61891C60.73437,95.34599,61.76628,94.31407,63.0392,94.31407z"/>
		<path style="fill:none;stroke:#263238;stroke-width:0.55807;stroke-linecap:round;stroke-linejoin:round;" d="M82.40429,94.31407
			H95.6529c1.27292,0,2.30484,1.03192,2.30484,2.30484v13.24861c0,1.27292-1.03192,2.30484-2.30484,2.30484H82.40429
			c-1.27292,0-2.30484-1.03192-2.30484-2.30484V96.61891C80.09945,95.34599,81.13137,94.31407,82.40429,94.31407z"/>
		<path style="fill:none;stroke:#263238;stroke-width:0.55807;stroke-linecap:round;stroke-linejoin:round;" d="M101.77495,94.31407
			h13.2486c1.27293,0,2.30484,1.03192,2.30484,2.30484v13.24861c0,1.27292-1.03191,2.30484-2.30484,2.30484h-13.2486
			c-1.27293,0-2.30484-1.03192-2.30484-2.30484V96.61891C99.47011,95.34599,100.50202,94.31407,101.77495,94.31407z"/>
		<path style="fill:none;stroke:#263238;stroke-width:0.55807;stroke-linecap:round;stroke-linejoin:round;" d="M121.14561,94.31407
			h13.24862c1.27292,0,2.30482,1.03192,2.30482,2.30484v13.24861c0,1.27292-1.03191,2.30484-2.30482,2.30484h-13.24862
			c-1.27292,0-2.30484-1.03192-2.30484-2.30484V96.61891C118.84077,95.34599,119.87269,94.31407,121.14561,94.31407z"/>
		<path style="fill:none;stroke:#263238;stroke-width:0.55807;stroke-linecap:round;stroke-linejoin:round;" d="M140.51068,94.31407
			h13.24861c1.27293,0,2.30484,1.03192,2.30484,2.30484v13.24861c0,1.27292-1.03191,2.30484-2.30484,2.30484h-13.24861
			c-1.27292,0-2.30484-1.03192-2.30484-2.30484V96.61891C138.20584,95.34599,139.23776,94.31407,140.51068,94.31407z"/>
		<path style="fill:none;stroke:#263238;stroke-width:0.55807;stroke-linecap:round;stroke-linejoin:round;" d="M159.88133,94.31407
			h13.24861c1.27293,0,2.30484,1.03192,2.30484,2.30484v13.24861c0,1.27292-1.03191,2.30484-2.30484,2.30484h-13.24861
			c-1.27292,0-2.30482-1.03192-2.30482-2.30484V96.61891C157.57651,95.34599,158.60841,94.31407,159.88133,94.31407z"/>
		<path style="fill:none;stroke:#263238;stroke-width:0.55807;stroke-linecap:round;stroke-linejoin:round;" d="M179.25201,94.31407
			h13.24861c1.27293,0,2.30484,1.03192,2.30484,2.30484v13.24861c0,1.27292-1.03191,2.30484-2.30484,2.30484h-13.24861
			c-1.27293,0-2.30484-1.03192-2.30484-2.30484V96.61891C176.94717,95.34599,177.97908,94.31407,179.25201,94.31407z"/>
		<path style="fill:none;stroke:#263238;stroke-width:0.55807;stroke-linecap:round;stroke-linejoin:round;" d="M198.61708,94.31407
			h13.24861c1.27293,0,2.30484,1.03192,2.30484,2.30484v13.24861c0,1.27292-1.03191,2.30484-2.30484,2.30484h-13.24861
			c-1.27293,0-2.30484-1.03192-2.30484-2.30484V96.61891C196.31224,95.34599,197.34415,94.31407,198.61708,94.31407z"/>
		<path style="fill:none;stroke:#263238;stroke-width:0.55807;stroke-linecap:round;stroke-linejoin:round;" d="M217.98775,94.31407
			h13.24861c1.27293,0,2.30484,1.03192,2.30484,2.30484v13.24861c0,1.27292-1.03191,2.30484-2.30484,2.30484h-13.24861
			c-1.27292,0-2.30484-1.03192-2.30484-2.30484V96.61891C215.68291,95.34599,216.71483,94.31407,217.98775,94.31407z"/>
		<path style="fill:none;stroke:#263238;stroke-width:0.55807;stroke-linecap:round;stroke-linejoin:round;" d="M237.35841,94.31407
			h13.24861c1.27292,0,2.30482,1.03192,2.30482,2.30484v13.24861c0,1.27292-1.03191,2.30484-2.30482,2.30484h-13.24861
			c-1.27293,0-2.30484-1.03192-2.30484-2.30484V96.61891C235.05357,95.34599,236.08548,94.31407,237.35841,94.31407z"/>
		<path style="fill:none;stroke:#263238;stroke-width:0.55807;stroke-linecap:round;stroke-linejoin:round;" d="M24.29789,113.40012
			H37.5465c1.27293,0,2.30483,1.03191,2.30483,2.30484v13.24861c0,1.27292-1.03191,2.30484-2.30483,2.30484H24.29789
			c-1.27293,0-2.30483-1.03192-2.30483-2.30484v-13.24861C21.99305,114.43203,23.02496,113.40012,24.29789,113.40012z"/>
		<path style="fill:none;stroke:#263238;stroke-width:0.55807;stroke-linecap:round;stroke-linejoin:round;" d="M43.66854,113.40012
			h13.24862c1.27293,0,2.30483,1.03191,2.30483,2.30484v13.24861c0,1.27292-1.03191,2.30484-2.30483,2.30484H43.66854
			c-1.27293,0-2.30483-1.03192-2.30483-2.30484v-13.24861C41.36371,114.43203,42.39562,113.40012,43.66854,113.40012z"/>
		<path style="fill:none;stroke:#263238;stroke-width:0.55807;stroke-linecap:round;stroke-linejoin:round;" d="M63.0392,113.40012
			h13.24861c1.27293,0,2.30484,1.03191,2.30484,2.30484v13.24861c0,1.27292-1.03191,2.30484-2.30484,2.30484H63.0392
			c-1.27293,0-2.30483-1.03192-2.30483-2.30484v-13.24861C60.73437,114.43203,61.76628,113.40012,63.0392,113.40012z"/>
		<path style="fill:none;stroke:#263238;stroke-width:0.55807;stroke-linecap:round;stroke-linejoin:round;" d="M82.40429,113.40012
			H95.6529c1.27292,0,2.30484,1.03191,2.30484,2.30484v13.24861c0,1.27292-1.03192,2.30484-2.30484,2.30484H82.40429
			c-1.27292,0-2.30484-1.03192-2.30484-2.30484v-13.24861C80.09945,114.43203,81.13137,113.40012,82.40429,113.40012z"/>
		<path style="fill:none;stroke:#263238;stroke-width:0.55807;stroke-linecap:round;stroke-linejoin:round;" d="
			M101.77495,113.40012h13.2486c1.27293,0,2.30484,1.03191,2.30484,2.30484v13.24861c0,1.27292-1.03191,2.30484-2.30484,2.30484
			h-13.2486c-1.27293,0-2.30484-1.03192-2.30484-2.30484v-13.24861C99.47011,114.43203,100.50202,113.40012,101.77495,113.40012z"/>
		<path style="fill:none;stroke:#263238;stroke-width:0.55807;stroke-linecap:round;stroke-linejoin:round;" d="
			M121.14561,113.40012h13.24862c1.27292,0,2.30482,1.03191,2.30482,2.30484v13.24861c0,1.27292-1.03191,2.30484-2.30482,2.30484
			h-13.24862c-1.27292,0-2.30484-1.03192-2.30484-2.30484v-13.24861C118.84077,114.43203,119.87269,113.40012,121.14561,113.40012z"
			/>
		<path style="fill:none;stroke:#263238;stroke-width:0.55807;stroke-linecap:round;stroke-linejoin:round;" d="
			M140.51068,113.40012h13.24861c1.27293,0,2.30484,1.03191,2.30484,2.30484v13.24861c0,1.27292-1.03191,2.30484-2.30484,2.30484
			h-13.24861c-1.27292,0-2.30484-1.03192-2.30484-2.30484v-13.24861C138.20584,114.43203,139.23776,113.40012,140.51068,113.40012z"
			/>
		<path style="fill:none;stroke:#263238;stroke-width:0.55807;stroke-linecap:round;stroke-linejoin:round;" d="
			M159.88133,113.40012h13.24861c1.27293,0,2.30484,1.03191,2.30484,2.30484v13.24861c0,1.27292-1.03191,2.30484-2.30484,2.30484
			h-13.24861c-1.27292,0-2.30482-1.03192-2.30482-2.30484v-13.24861C157.57651,114.43203,158.60841,113.40012,159.88133,113.40012z"
			/>
		<path style="fill:none;stroke:#263238;stroke-width:0.55807;stroke-linecap:round;stroke-linejoin:round;" d="
			M179.25201,113.40012h13.24861c1.27293,0,2.30484,1.03191,2.30484,2.30484v13.24861c0,1.27292-1.03191,2.30484-2.30484,2.30484
			h-13.24861c-1.27293,0-2.30484-1.03192-2.30484-2.30484v-13.24861C176.94717,114.43203,177.97908,113.40012,179.25201,113.40012z"
			/>
		<path style="fill:none;stroke:#263238;stroke-width:0.55807;stroke-linecap:round;stroke-linejoin:round;" d="
			M198.61708,113.40012h13.24861c1.27293,0,2.30484,1.03191,2.30484,2.30484v13.24861c0,1.27292-1.03191,2.30484-2.30484,2.30484
			h-13.24861c-1.27293,0-2.30484-1.03192-2.30484-2.30484v-13.24861C196.31224,114.43203,197.34415,113.40012,198.61708,113.40012z"
			/>
		<path style="fill:none;stroke:#263238;stroke-width:0.55807;stroke-linecap:round;stroke-linejoin:round;" d="
			M217.98775,113.40012h13.24861c1.27293,0,2.30484,1.03191,2.30484,2.30484v13.24861c0,1.27292-1.03191,2.30484-2.30484,2.30484
			h-13.24861c-1.27292,0-2.30484-1.03192-2.30484-2.30484v-13.24861C215.68291,114.43203,216.71483,113.40012,217.98775,113.40012z"
			/>
		<path style="fill:none;stroke:#263238;stroke-width:0.55807;stroke-linecap:round;stroke-linejoin:round;" d="
			M237.35841,113.40012h13.24861c1.27292,0,2.30482,1.03191,2.30482,2.30484v13.24861c0,1.27292-1.03191,2.30484-2.30482,2.30484
			h-13.24861c-1.27293,0-2.30484-1.03192-2.30484-2.30484v-13.24861C235.05357,114.43203,236.08548,113.40012,237.35841,113.40012z"
			/>
		<path style="fill:none;stroke:#263238;stroke-width:0.55807;stroke-linecap:round;stroke-linejoin:round;" d="M24.29789,132.48616
			H37.5465c1.27293,0,2.30483,1.03189,2.30483,2.30482v13.24861c0,1.27293-1.03191,2.30484-2.30483,2.30484H24.29789
			c-1.27293,0-2.30483-1.03191-2.30483-2.30484v-13.24861C21.99305,133.51805,23.02496,132.48616,24.29789,132.48616z"/>
		<path style="fill:none;stroke:#263238;stroke-width:0.55807;stroke-linecap:round;stroke-linejoin:round;" d="M43.66854,132.48616
			h13.24862c1.27293,0,2.30483,1.03189,2.30483,2.30482v13.24861c0,1.27293-1.03191,2.30484-2.30483,2.30484H43.66854
			c-1.27293,0-2.30483-1.03191-2.30483-2.30484v-13.24861C41.36371,133.51805,42.39562,132.48616,43.66854,132.48616z"/>
		<path style="fill:none;stroke:#263238;stroke-width:0.55807;stroke-linecap:round;stroke-linejoin:round;" d="M63.0392,132.48616
			h13.24861c1.27293,0,2.30484,1.03189,2.30484,2.30482v13.24861c0,1.27293-1.03191,2.30484-2.30484,2.30484H63.0392
			c-1.27293,0-2.30483-1.03191-2.30483-2.30484v-13.24861C60.73437,133.51805,61.76628,132.48616,63.0392,132.48616z"/>
		<path style="fill:none;stroke:#263238;stroke-width:0.55807;stroke-linecap:round;stroke-linejoin:round;" d="M82.40429,132.48616
			H95.6529c1.27292,0,2.30484,1.03189,2.30484,2.30482v13.24861c0,1.27293-1.03192,2.30484-2.30484,2.30484H82.40429
			c-1.27292,0-2.30484-1.03191-2.30484-2.30484v-13.24861C80.09945,133.51805,81.13137,132.48616,82.40429,132.48616z"/>
		<path style="fill:none;stroke:#263238;stroke-width:0.55807;stroke-linecap:round;stroke-linejoin:round;" d="
			M101.77495,132.48616h13.2486c1.27293,0,2.30484,1.03189,2.30484,2.30482v13.24861c0,1.27293-1.03191,2.30484-2.30484,2.30484
			h-13.2486c-1.27293,0-2.30484-1.03191-2.30484-2.30484v-13.24861C99.47011,133.51805,100.50202,132.48616,101.77495,132.48616z"/>
		<path style="fill:none;stroke:#263238;stroke-width:0.55807;stroke-linecap:round;stroke-linejoin:round;" d="
			M121.14561,132.48616h13.24862c1.27292,0,2.30482,1.03189,2.30482,2.30482v13.24861c0,1.27293-1.03191,2.30484-2.30482,2.30484
			h-13.24862c-1.27292,0-2.30484-1.03191-2.30484-2.30484v-13.24861C118.84077,133.51805,119.87269,132.48616,121.14561,132.48616z"
			/>
		<path style="fill:none;stroke:#263238;stroke-width:0.55807;stroke-linecap:round;stroke-linejoin:round;" d="
			M140.51068,132.48616h13.24861c1.27293,0,2.30484,1.03189,2.30484,2.30482v13.24861c0,1.27293-1.03191,2.30484-2.30484,2.30484
			h-13.24861c-1.27292,0-2.30484-1.03191-2.30484-2.30484v-13.24861C138.20584,133.51805,139.23776,132.48616,140.51068,132.48616z"
			/>
		<path style="fill:none;stroke:#263238;stroke-width:0.55807;stroke-linecap:round;stroke-linejoin:round;" d="
			M159.88133,132.48616h13.24861c1.27293,0,2.30484,1.03189,2.30484,2.30482v13.24861c0,1.27293-1.03191,2.30484-2.30484,2.30484
			h-13.24861c-1.27292,0-2.30482-1.03191-2.30482-2.30484v-13.24861C157.57651,133.51805,158.60841,132.48616,159.88133,132.48616z"
			/>
		<path style="fill:none;stroke:#263238;stroke-width:0.55807;stroke-linecap:round;stroke-linejoin:round;" d="
			M179.25201,132.48616h13.24861c1.27293,0,2.30484,1.03189,2.30484,2.30482v13.24861c0,1.27293-1.03191,2.30484-2.30484,2.30484
			h-13.24861c-1.27293,0-2.30484-1.03191-2.30484-2.30484v-13.24861C176.94717,133.51805,177.97908,132.48616,179.25201,132.48616z"
			/>
		<path style="fill:none;stroke:#263238;stroke-width:0.55807;stroke-linecap:round;stroke-linejoin:round;" d="
			M198.61708,132.48616h13.24861c1.27293,0,2.30484,1.03189,2.30484,2.30482v13.24861c0,1.27293-1.03191,2.30484-2.30484,2.30484
			h-13.24861c-1.27293,0-2.30484-1.03191-2.30484-2.30484v-13.24861C196.31224,133.51805,197.34415,132.48616,198.61708,132.48616z"
			/>
		<path style="fill:none;stroke:#263238;stroke-width:0.55807;stroke-linecap:round;stroke-linejoin:round;" d="
			M217.98775,132.48616h13.24861c1.27293,0,2.30484,1.03189,2.30484,2.30482v13.24861c0,1.27293-1.03191,2.30484-2.30484,2.30484
			h-13.24861c-1.27292,0-2.30484-1.03191-2.30484-2.30484v-13.24861C215.68291,133.51805,216.71483,132.48616,217.98775,132.48616z"
			/>
		<path style="fill:none;stroke:#263238;stroke-width:0.55807;stroke-linecap:round;stroke-linejoin:round;" d="
			M237.35841,132.48616h13.24861c1.27292,0,2.30482,1.03189,2.30482,2.30482v13.24861c0,1.27293-1.03191,2.30484-2.30482,2.30484
			h-13.24861c-1.27293,0-2.30484-1.03191-2.30484-2.30484v-13.24861C235.05357,133.51805,236.08548,132.48616,237.35841,132.48616z"
			/>
		<path style="fill:none;stroke:#263238;stroke-width:0.55807;stroke-linecap:round;stroke-linejoin:round;" d="M24.29789,151.5722
			H37.5465c1.27293,0,2.30483,1.03191,2.30483,2.30482v13.24861c0,1.27293-1.03191,2.30484-2.30483,2.30484H24.29789
			c-1.27293,0-2.30483-1.03191-2.30483-2.30484v-13.24861C21.99305,152.60411,23.02496,151.5722,24.29789,151.5722z"/>
		<path style="fill:none;stroke:#263238;stroke-width:0.55807;stroke-linecap:round;stroke-linejoin:round;" d="M43.66854,151.5722
			h13.24862c1.27293,0,2.30483,1.03191,2.30483,2.30482v13.24861c0,1.27293-1.03191,2.30484-2.30483,2.30484H43.66854
			c-1.27293,0-2.30483-1.03191-2.30483-2.30484v-13.24861C41.36371,152.60411,42.39562,151.5722,43.66854,151.5722z"/>
		<path style="fill:none;stroke:#263238;stroke-width:0.55807;stroke-linecap:round;stroke-linejoin:round;" d="M63.0392,151.5722
			h13.24861c1.27293,0,2.30484,1.03191,2.30484,2.30482v13.24861c0,1.27293-1.03191,2.30484-2.30484,2.30484H63.0392
			c-1.27293,0-2.30483-1.03191-2.30483-2.30484v-13.24861C60.73437,152.60411,61.76628,151.5722,63.0392,151.5722z"/>
		<path style="fill:none;stroke:#263238;stroke-width:0.55807;stroke-linecap:round;stroke-linejoin:round;" d="M82.40429,151.5722
			H95.6529c1.27292,0,2.30484,1.03191,2.30484,2.30482v13.24861c0,1.27293-1.03192,2.30484-2.30484,2.30484H82.40429
			c-1.27292,0-2.30484-1.03191-2.30484-2.30484v-13.24861C80.09945,152.60411,81.13137,151.5722,82.40429,151.5722z"/>
		<path style="fill:none;stroke:#263238;stroke-width:0.55807;stroke-linecap:round;stroke-linejoin:round;" d="M101.77495,151.5722
			h13.2486c1.27293,0,2.30484,1.03191,2.30484,2.30482v13.24861c0,1.27293-1.03191,2.30484-2.30484,2.30484h-13.2486
			c-1.27293,0-2.30484-1.03191-2.30484-2.30484v-13.24861C99.47011,152.60411,100.50202,151.5722,101.77495,151.5722z"/>
		<path style="fill:none;stroke:#263238;stroke-width:0.55807;stroke-linecap:round;stroke-linejoin:round;" d="M121.14561,151.5722
			h13.24862c1.27292,0,2.30482,1.03191,2.30482,2.30482v13.24861c0,1.27293-1.03191,2.30484-2.30482,2.30484h-13.24862
			c-1.27292,0-2.30484-1.03191-2.30484-2.30484v-13.24861C118.84077,152.60411,119.87269,151.5722,121.14561,151.5722z"/>
		<path style="fill:none;stroke:#263238;stroke-width:0.55807;stroke-linecap:round;stroke-linejoin:round;" d="M140.51068,151.5722
			h13.24861c1.27293,0,2.30484,1.03191,2.30484,2.30482v13.24861c0,1.27293-1.03191,2.30484-2.30484,2.30484h-13.24861
			c-1.27292,0-2.30484-1.03191-2.30484-2.30484v-13.24861C138.20584,152.60411,139.23776,151.5722,140.51068,151.5722z"/>
		<path style="fill:none;stroke:#263238;stroke-width:0.55807;stroke-linecap:round;stroke-linejoin:round;" d="M159.88133,151.5722
			h13.24861c1.27293,0,2.30484,1.03191,2.30484,2.30482v13.24861c0,1.27293-1.03191,2.30484-2.30484,2.30484h-13.24861
			c-1.27292,0-2.30482-1.03191-2.30482-2.30484v-13.24861C157.57651,152.60411,158.60841,151.5722,159.88133,151.5722z"/>
		<path style="fill:none;stroke:#263238;stroke-width:0.55807;stroke-linecap:round;stroke-linejoin:round;" d="M179.25201,151.5722
			h13.24861c1.27293,0,2.30484,1.03191,2.30484,2.30482v13.24861c0,1.27293-1.03191,2.30484-2.30484,2.30484h-13.24861
			c-1.27293,0-2.30484-1.03191-2.30484-2.30484v-13.24861C176.94717,152.60411,177.97908,151.5722,179.25201,151.5722z"/>
		<path style="fill:none;stroke:#263238;stroke-width:0.55807;stroke-linecap:round;stroke-linejoin:round;" d="M198.61708,151.5722
			h13.24861c1.27293,0,2.30484,1.03191,2.30484,2.30482v13.24861c0,1.27293-1.03191,2.30484-2.30484,2.30484h-13.24861
			c-1.27293,0-2.30484-1.03191-2.30484-2.30484v-13.24861C196.31224,152.60411,197.34415,151.5722,198.61708,151.5722z"/>
		<path style="fill:none;stroke:#263238;stroke-width:0.55807;stroke-linecap:round;stroke-linejoin:round;" d="M217.98775,151.5722
			h13.24861c1.27293,0,2.30484,1.03191,2.30484,2.30482v13.24861c0,1.27293-1.03191,2.30484-2.30484,2.30484h-13.24861
			c-1.27292,0-2.30484-1.03191-2.30484-2.30484v-13.24861C215.68291,152.60411,216.71483,151.5722,217.98775,151.5722z"/>
		<path style="fill:none;stroke:#263238;stroke-width:0.55807;stroke-linecap:round;stroke-linejoin:round;" d="M237.35841,151.5722
			h13.24861c1.27292,0,2.30482,1.03191,2.30482,2.30482v13.24861c0,1.27293-1.03191,2.30484-2.30482,2.30484h-13.24861
			c-1.27293,0-2.30484-1.03191-2.30484-2.30484v-13.24861C235.05357,152.60411,236.08548,151.5722,237.35841,151.5722z"/>
		
			<line style="fill:none;stroke:#263238;stroke-width:0.55807;stroke-linecap:round;stroke-linejoin:round;" x1="62.03468" y1="86.116" x2="62.03468" y2="0"/>
		
			<rect x="64.68552" y="62.42587" style="fill:#263238;stroke:#263238;stroke-width:0.55807;stroke-linecap:round;stroke-linejoin:round;" width="3.06381" height="17.83596"/>
		
			<rect x="56.32561" y="62.42587" style="fill:#263238;stroke:#263238;stroke-width:0.55807;stroke-linecap:round;stroke-linejoin:round;" width="3.06381" height="17.83596"/>
		
			<line style="fill:none;stroke:#263238;stroke-width:1.11614;stroke-linecap:round;stroke-linejoin:round;" x1="21.07224" y1="86.116" x2="252.09708" y2="86.116"/>
		
			<line style="fill:none;stroke:#263238;stroke-width:0.55807;stroke-linecap:round;stroke-linejoin:round;" x1="199.70532" y1="86.116" x2="199.70532" y2="0"/>
		
			<rect x="194.68825" y="62.42587" style="fill:#263238;stroke:#263238;stroke-width:0.55807;stroke-linecap:round;stroke-linejoin:round;" width="3.06381" height="17.83596"/>
		
			<rect x="202.07713" y="62.42587" style="fill:#263238;stroke:#263238;stroke-width:0.55807;stroke-linecap:round;stroke-linejoin:round;" width="3.06381" height="17.83596"/>
	</g>
	<g id="freepik--Dishes--inject-64">
		<path style="fill:#FFFFFF;stroke:#263238;stroke-width:0.55807;stroke-linecap:round;stroke-linejoin:round;" d="
			M21.34011,195.40314h3.34843l0,0v2.95219c-0.00001,0.87225-0.7071,1.57935-1.57934,1.57935h-0.18974
			c-0.87224,0-1.57934-0.70709-1.57934-1.57935V195.40314L21.34011,195.40314z"/>
		<path style="fill:#FFFFFF;stroke:#263238;stroke-width:0.55807;stroke-linecap:round;stroke-linejoin:round;" d="
			M51.89452,195.40314h3.34843l0,0v2.95219c0,0.87225-0.7071,1.57935-1.57934,1.57935h-0.19533
			c-0.87224,0-1.57934-0.70709-1.57934-1.57935v-2.95219H51.89452z"/>
		<polygon style="fill:#FFFFFF;stroke:#263238;stroke-width:0.55807;stroke-linecap:round;stroke-linejoin:round;" points="
			57.12365,194.12515 19.5208,194.12515 33.09309,178.40985 65.7905,178.40985 		"/>
		
			<rect x="19.5208" y="194.12515" style="fill:#FFFFFF;stroke:#263238;stroke-width:0.55807;stroke-linecap:round;stroke-linejoin:round;" width="37.42427" height="3.06381"/>
		<polygon style="fill:#FFFFFF;stroke:#263238;stroke-width:0.55807;stroke-linecap:round;stroke-linejoin:round;" points="
			56.94507,194.12515 65.7905,178.40985 65.7905,181.71364 56.94507,197.18895 		"/>
		<path style="fill:#263238;stroke:#263238;stroke-width:0.55807;stroke-linecap:round;stroke-linejoin:round;" d="
			M32.49038,179.68784v4.15205c0,1.47333,2.86849,2.662,6.40666,2.662s6.40666-1.18871,6.40666-2.662v-4.15205H32.49038z"/>
		
			<ellipse style="fill:#FFFFFF;stroke:#263238;stroke-width:0.55807;stroke-linecap:round;stroke-linejoin:round;" cx="38.89704" cy="179.68784" rx="6.40666" ry="2.66199"/>
		
			<ellipse style="fill:#FFCF30;stroke:#263238;stroke-width:0.55807;stroke-linecap:round;stroke-linejoin:round;" cx="38.89704" cy="179.68784" rx="3.04149" ry="1.26125"/>
		<path style="fill:#263238;stroke:#263238;stroke-width:0.55807;stroke-linecap:round;stroke-linejoin:round;" d="
			M48.51261,180.37984v4.15205c0,1.47333,2.8629,2.662,6.40108,2.662c3.53818,0,6.40666-1.18869,6.40666-2.662v-4.15205H48.51261z"
			/>
		
			<ellipse style="fill:#FFFFFF;stroke:#263238;stroke-width:0.55807;stroke-linecap:round;stroke-linejoin:round;" cx="54.91368" cy="180.37984" rx="6.40666" ry="2.66199"/>
		
			<ellipse style="fill:#FFCF30;stroke:#263238;stroke-width:0.55807;stroke-linecap:round;stroke-linejoin:round;" cx="54.91368" cy="180.37984" rx="3.04149" ry="1.26125"/>
		<path style="fill:#263238;stroke:#263238;stroke-width:0.55807;stroke-linecap:round;stroke-linejoin:round;" d="
			M37.60231,185.40248v4.15205c0,1.47333,2.86849,2.662,6.40666,2.662c3.53818,0,6.40108-1.18871,6.40108-2.662v-4.15205H37.60231z"
			/>
		
			<ellipse style="fill:#FFFFFF;stroke:#263238;stroke-width:0.55807;stroke-linecap:round;stroke-linejoin:round;" cx="44.00897" cy="185.40248" rx="6.40666" ry="2.66199"/>
		<path style="fill:#FFCF30;stroke:#263238;stroke-width:0.55807;stroke-linecap:round;stroke-linejoin:round;" d="
			M47.05046,185.40248c0,0.6976-1.36169,1.26125-3.04149,1.26125c-1.67979,0-3.04148-0.55806-3.04148-1.26125
			c0-0.70317,1.36169-1.26682,3.04148-1.26682C45.68877,184.13567,47.05046,184.7049,47.05046,185.40248z"/>
		<polygon style="fill:#FFFFFF;stroke:#263238;stroke-width:0.55807;stroke-linecap:round;stroke-linejoin:round;" points="
			187.7291,195.83284 78.2355,195.83284 83.71017,180.11755 182.25443,180.11755 		"/>
		
			<rect x="78.2355" y="195.83284" style="fill:#FFFFFF;stroke:#263238;stroke-width:0.55807;stroke-linecap:round;stroke-linejoin:round;" width="109.31503" height="3.06381"/>
		<path style="fill:#263238;stroke:#263238;stroke-width:0.55807;stroke-linecap:round;stroke-linejoin:round;" d="
			M128.62933,178.74471c-0.72029-0.32089-1.49956-0.48813-2.28809-0.49112H96.20538
			c-3.44892-0.00308-6.24731,2.79033-6.2504,6.23924c0,0.00372,0,0.00745,0,0.01117v3.40981
			c0,0.65341,0.5297,1.18312,1.18311,1.18312h37.51356L128.62933,178.74471z"/>
		<path style="fill:#FFFFFF;stroke:#263238;stroke-width:0.55807;stroke-linecap:round;stroke-linejoin:round;" d="
			M128.62933,183.78967c0,2.92987-0.27345,5.30727-0.61388,5.30727s-0.61946-2.3774-0.61946-5.30727
			c0-2.92989,0.27904-5.30727,0.61946-5.30727S128.62933,180.85979,128.62933,183.78967z"/>
		<path style="fill:#4A4A4A;" d="M111.30681,178.25359h-1.19985c-0.38824,3.60063-0.53925,7.22289-0.45203,10.84334h1.18869
			C110.75614,185.4762,110.91089,181.85367,111.30681,178.25359z"/>
		<path style="fill:#4A4A4A;" d="M100.776,189.09692v-6.3118c0.09577-1.55827,0.45035-3.08972,1.04918-4.53154h-1.26683
			c-0.56452,1.44844-0.89057,2.97879-0.96545,4.53154v6.3118H100.776z"/>
		<rect x="120.28617" y="178.25359" style="fill:#4A4A4A;" width="1.18311" height="10.84332"/>
		<path style="fill:#FFFFFF;stroke:#263238;stroke-width:0.55807;stroke-linecap:round;stroke-linejoin:round;" d="
			M204.48242,203.21614v3.53816l22.8307,1.11615c1.7854,0.08937,3.30522-1.28552,3.39459-3.07092
			c0.00278-0.05525,0.00412-0.11057,0.00406-0.16589v-0.61388c0.00064-1.79073-1.4505-3.24292-3.24123-3.24358
			c-0.11411-0.00005-0.22812,0.00595-0.3416,0.01793L204.48242,203.21614z"/>
		<path style="fill:#263238;stroke:#263238;stroke-width:0.55807;stroke-linecap:round;stroke-linejoin:round;" d="
			M205.59856,202.28973l0.55807,9.30305c0,0-32.55789-0.37392-55.80714-6.69685L205.59856,202.28973z"/>
		<path style="fill:#FFFFFF;stroke:#263238;stroke-width:0.55807;stroke-linecap:round;stroke-linejoin:round;" d="
			M158.60336,204.52202l-8.25388,0.39066c23.24925,6.32295,55.80714,6.69685,55.80714,6.69685l-0.30693-5.13983
			C186.57948,208.03786,167.16418,205.75536,158.60336,204.52202z"/>
		<path style="fill:#263238;stroke:#FFFFFF;stroke-width:0.55807;stroke-linecap:round;stroke-linejoin:round;" d="
			M224.59532,193.91866c0,1.28915-3.48795,2.33275-7.813,2.33275s-7.813-1.04359-7.813-2.33275
			c0-1.28914,3.48795-2.33273,7.813-2.33273S224.59532,192.64067,224.59532,193.91866z"/>
		<path style="fill:#263238;stroke:#FFFFFF;stroke-width:0.55807;stroke-linecap:round;stroke-linejoin:round;" d="
			M203.34953,184.1859c0,0-0.12277,3.10846,3.90649,7.55629c2.18765,2.08719,5.58072,3.14754,9.27515,3.14754
			c3.9902,0,7.52281-0.85944,9.06308-2.65643c0,0,1.90862-1.47888,4.66547-8.04739H203.34953z"/>
		
			<ellipse style="fill:#263238;stroke:#FFFFFF;stroke-width:0.55807;stroke-linecap:round;stroke-linejoin:round;" cx="216.80463" cy="184.1859" rx="13.45509" ry="4.02369"/>
		<path style="fill:#263238;stroke:#FFFFFF;stroke-width:0.55807;stroke-linecap:round;stroke-linejoin:round;" d="
			M47.15649,214.80727c0,1.28357-3.48795,2.32718-7.813,2.32718s-7.813-1.04359-7.813-2.32718
			c0-1.28357,3.48795-2.33273,7.813-2.33273S47.15649,213.51813,47.15649,214.80727z"/>
		<path style="fill:#263238;stroke:#FFFFFF;stroke-width:0.55807;stroke-linecap:round;stroke-linejoin:round;" d="
			M25.9163,205.08009c0,0-0.12278,3.11403,3.9065,7.56186c2.18764,2.08719,5.58072,3.14754,9.27515,3.14754
			c3.99579,0,7.52838-0.85944,9.06866-2.65643c0,0,1.90303-1.48447,4.6599-8.05296H25.9163z"/>
		
			<ellipse style="fill:#263238;stroke:#FFFFFF;stroke-width:0.55807;stroke-linecap:round;stroke-linejoin:round;" cx="39.36582" cy="205.05777" rx="13.4551" ry="4.02369"/>
		
			<ellipse style="fill:#FFFFFF;stroke:#263238;stroke-width:0.55807;stroke-linecap:round;stroke-linejoin:round;" cx="131.40854" cy="235.61777" rx="48.83684" ry="25.53177"/>
		
			<ellipse style="fill:#FFFFFF;stroke:#263238;stroke-width:0.55807;stroke-linecap:round;stroke-linejoin:round;" cx="131.40854" cy="234.1891" rx="55.22116" ry="25.53177"/>
		
			<ellipse style="fill:#FFFFFF;stroke:#263238;stroke-width:0.55807;stroke-linecap:round;stroke-linejoin:round;" cx="131.40854" cy="232.76044" rx="55.22116" ry="25.53177"/>
		
			<ellipse style="fill:#FFFFFF;stroke:#263238;stroke-width:0.27904;stroke-linecap:round;stroke-linejoin:round;" cx="131.40854" cy="232.76044" rx="41.73817" ry="19.2981"/>
		<path style="fill:#FFFFFF;stroke:#263238;stroke-width:0.55807;stroke-linecap:round;stroke-linejoin:round;" d="
			M147.37495,229.41757c0,0,9.29189-8.57755,23.22136-8.92914s15.00096,7.86322,13.9518,10.00623
			c-1.04918,2.14299-6.42899,1.0715-12.50081,2.50015c-6.07181,1.42867-21.51923,3.41541-24.15332,1.35054
			C145.25987,232.2805,146.30347,230.84625,147.37495,229.41757z"/>
		<path style="fill:none;stroke:#263238;stroke-width:0.55807;stroke-linecap:round;stroke-linejoin:round;" d="
			M162.67169,226.05241c0,0,4.0237,1.34496,5.69791,5.02264"/>
		<path style="fill:none;stroke:#263238;stroke-width:0.55807;stroke-linecap:round;stroke-linejoin:round;" d="
			M168.20219,225.38274c2.11485,0.93314,3.87511,2.51932,5.02263,4.52596"/>
		<path style="fill:none;stroke:#263238;stroke-width:0.55807;stroke-linecap:round;stroke-linejoin:round;" d="
			M174.06752,224.05452c0,0,3.18658,1.00452,5.87091,5.69791"/>
		<path style="fill:none;stroke:#263238;stroke-width:0.55807;stroke-linecap:round;stroke-linejoin:round;" d="
			M150.93546,229.40642c0,0,11.4014-7.02611,21.96011-6.535"/>
		<path style="fill:#FFFFFF;stroke:#263238;stroke-width:0.55807;stroke-linecap:round;stroke-linejoin:round;" d="
			M147.54239,221.63249c1.58966,0.87312,3.53088,0.80019,5.05054-0.18974c1.99232-1.24451,5.81511-3.1252,11.5744-3.8172
			c8.92914-1.07152,7.85764-5.3575,3.21449-7.14331c-4.64314-1.78583-13.95178-1.42867-17.50111,2.50017
			C147.00105,216.14664,144.35579,219.77969,147.54239,221.63249z"/>
		<path style="fill:none;stroke:#263238;stroke-width:0.55807;stroke-linecap:round;stroke-linejoin:round;" d="M149.7635,218.68028
			c0,0,3.68884-7.21028,12.07109-7.21028"/>
		<path style="fill:none;stroke:#263238;stroke-width:0.55807;stroke-linecap:round;stroke-linejoin:round;" d="
			M153.95462,214.15434c2.27475,0.28041,4.45393,1.08257,6.3676,2.3439"/>
		<path style="fill:none;stroke:#263238;stroke-width:0.55807;stroke-linecap:round;stroke-linejoin:round;" d="
			M161.66718,212.47453c1.78835,0.46428,3.44951,1.32443,4.86079,2.51691"/>
		<path style="fill:none;stroke:#263238;stroke-width:0.55807;stroke-linecap:round;stroke-linejoin:round;" d="
			M151.77815,216.66566c0,0,3.01358,0.8371,3.68327,1.67421"/>
		<path style="fill:#FFFFFF;stroke:#263238;stroke-width:0.55807;stroke-linecap:round;stroke-linejoin:round;" d="
			M140.23164,216.91121c0,0,1.07152-5.02264-2.50015-8.57196c-3.57166-3.54933-13.21513-3.21451-15.00096-0.35718
			c-1.78583,2.85732,6.78615,4.28598,6.78615,8.21481s3.90651,7.50606,7.50049,6.07741
			C140.61115,220.84563,140.23164,216.91121,140.23164,216.91121z"/>
		<path style="fill:none;stroke:#263238;stroke-width:0.55807;stroke-linecap:round;stroke-linejoin:round;" d="
			M132.50235,207.78116c-2.2796-0.12755-4.54836,0.39706-6.54059,1.51236"/>
		<path style="fill:none;stroke:#263238;stroke-width:0.55807;stroke-linecap:round;stroke-linejoin:round;" d="
			M134.00916,210.80032c0,0-3.68886-0.33484-5.86533,0.66969"/>
		<path style="fill:none;stroke:#263238;stroke-width:0.55807;stroke-linecap:round;stroke-linejoin:round;" d="
			M134.67883,213.81949c0,0-2.85175,0.33485-3.85626,1.00453"/>
		<path style="fill:#FFFFFF;stroke:#263238;stroke-width:0.55807;stroke-linecap:round;stroke-linejoin:round;" d="
			M123.00399,221.63249c-1.5819,0.86443-3.51048,0.79156-5.02264-0.18974c-1.99232-1.24451-5.82069-3.1252-11.57441-3.8172
			c-8.92914-1.07152-7.86322-5.3575-3.21449-7.14331c4.64874-1.78583,13.95178-1.42867,17.50112,2.50017
			C123.5509,216.14664,126.19616,219.77969,123.00399,221.63249z"/>
		<path style="fill:none;stroke:#263238;stroke-width:0.55807;stroke-linecap:round;stroke-linejoin:round;" d="
			M107.69051,212.47453c0,0,5.02264-1.67421,8.04739-1.17195"/>
		<path style="fill:none;stroke:#263238;stroke-width:0.55807;stroke-linecap:round;stroke-linejoin:round;" d="
			M113.56141,213.48465c1.73972-0.58568,3.62335-0.58568,5.36307,0"/>
		<path style="fill:none;stroke:#263238;stroke-width:0.55807;stroke-linecap:round;stroke-linejoin:round;" d="
			M116.07273,216.33081c0.50226,0,2.85175-0.66969,5.02264,0"/>
		<path style="fill:#FFFFFF;stroke:#263238;stroke-width:0.55807;stroke-linecap:round;stroke-linejoin:round;" d="
			M79.13957,227.63176c0,0,9.28631-8.57756,23.21577-8.92914c13.92947-0.35159,15.00654,7.86322,13.95178,10.00621
			s-6.42899,1.0715-12.50639,2.50017c-6.07739,1.42867-21.51365,3.41539-24.15333,1.35054
			C77.00774,230.49469,78.07924,229.07716,79.13957,227.63176z"/>
		<path style="fill:none;stroke:#263238;stroke-width:0.55807;stroke-linecap:round;stroke-linejoin:round;" d="M82.38197,229.23901
			c0,0,0.16742-2.68433,5.19564-5.69791"/>
		<path style="fill:none;stroke:#263238;stroke-width:0.55807;stroke-linecap:round;stroke-linejoin:round;" d="M88.2473,227.22437
			c0,0,0.66969-2.51132,5.02264-5.69791"/>
		<path style="fill:none;stroke:#263238;stroke-width:0.55807;stroke-linecap:round;stroke-linejoin:round;" d="M94.44746,225.55014
			c0,0,1.11614-3.87302,4.52596-5.36305"/>
		<path style="fill:none;stroke:#263238;stroke-width:0.55807;stroke-linecap:round;stroke-linejoin:round;" d="
			M103.33197,220.01965c0,0-2.00906,1.67422-2.51132,3.18658"/>
		
			<ellipse style="fill:#FFFFFF;stroke:#263238;stroke-width:0.55807;stroke-linecap:round;stroke-linejoin:round;" cx="134.77928" cy="225.31018" rx="13.58904" ry="7.32189"/>
		
			<ellipse style="fill:#FFFFFF;stroke:#263238;stroke-width:0.55807;stroke-linecap:round;stroke-linejoin:round;" cx="134.7793" cy="223.40157" rx="14.64938" ry="7.32189"/>
		
			<ellipse style="fill:#263238;stroke:#263238;stroke-width:0.55807;stroke-linecap:round;stroke-linejoin:round;" cx="134.77928" cy="224.99208" rx="11.67485" ry="5.73139"/>
		<path style="fill:#263238;stroke:#263238;stroke-width:0.55807;stroke-linecap:round;stroke-linejoin:round;" d="
			M100.44115,226.76674v6.29504c0,2.23228,3.66653,4.03487,8.19249,4.03487c4.52596,0,8.19249-1.80815,8.19249-4.03487v-6.29504
			H100.44115z"/>
		
			<ellipse style="fill:#FFFFFF;stroke:#263238;stroke-width:0.55807;stroke-linecap:round;stroke-linejoin:round;" cx="108.63364" cy="226.76674" rx="8.19248" ry="4.02928"/>
		
			<ellipse style="fill:#FFCF30;stroke:#263238;stroke-width:0.55807;stroke-linecap:round;stroke-linejoin:round;" cx="108.63364" cy="226.76674" rx="3.88976" ry="1.91418"/>
		<path style="fill:#263238;stroke:#263238;stroke-width:0.55807;stroke-linecap:round;stroke-linejoin:round;" d="
			M87.77851,233.12877v6.29504c0,2.23228,3.66653,4.03487,8.1869,4.03487c4.52038,0,8.19249-1.80815,8.19249-4.03487v-6.29504
			H87.77851z"/>
		
			<ellipse style="fill:#FFFFFF;stroke:#263238;stroke-width:0.55807;stroke-linecap:round;stroke-linejoin:round;" cx="95.96542" cy="233.12877" rx="8.19248" ry="4.02928"/>
		<path style="fill:#FFCF30;stroke:#263238;stroke-width:0.55807;stroke-linecap:round;stroke-linejoin:round;" d="
			M99.85518,233.12877c0,1.06033-1.74118,1.91418-3.9065,1.91418s-3.9065-0.85385-3.9065-1.91418s1.74118-1.91418,3.9065-1.91418
			S99.85518,232.07401,99.85518,233.12877z"/>
		<path style="fill:#263238;stroke:#263238;stroke-width:0.55807;stroke-linecap:round;stroke-linejoin:round;" d="
			M114.52129,233.96028v6.27831c0,2.23228,3.66653,4.02928,8.1869,4.02928c4.52038,0,8.1925-1.797,8.1925-4.02928v-6.27831
			H114.52129z"/>
		
			<ellipse style="fill:#FFFFFF;stroke:#263238;stroke-width:0.55807;stroke-linecap:round;stroke-linejoin:round;" cx="122.70821" cy="233.96028" rx="8.19248" ry="4.02928"/>
		<path style="fill:#FFCF30;stroke:#263238;stroke-width:0.55807;stroke-linecap:round;stroke-linejoin:round;" d="
			M126.57564,233.96028c0,1.05476-1.74118,1.91418-3.90649,1.91418c-2.16532,0-3.9065-0.85944-3.9065-1.91418
			c0-1.05473,1.74677-1.91417,3.9065-1.91417C124.82887,232.04611,126.57564,232.89996,126.57564,233.96028z"/>
		<path style="fill:#263238;stroke:#263238;stroke-width:0.55807;stroke-linecap:round;stroke-linejoin:round;" d="
			M147.87164,234.33977v6.29504c0,2.23228,3.66653,4.03487,8.19249,4.03487s8.18692-1.80814,8.18692-4.03487v-6.29504H147.87164z"/>
		<path style="fill:#FFFFFF;stroke:#263238;stroke-width:0.55807;stroke-linecap:round;stroke-linejoin:round;" d="
			M164.25105,234.33977c0,2.23228-3.66653,4.02928-8.18692,4.02928s-8.19249-1.80258-8.19249-4.02928
			s3.66653-4.02927,8.19249-4.02927S164.25105,232.11307,164.25105,234.33977z"/>
		<path style="fill:#FFCF30;stroke:#263238;stroke-width:0.55807;stroke-linecap:round;stroke-linejoin:round;" d="
			M159.9483,234.33977c0,1.05476-1.74118,1.91418-3.90649,1.91418c-2.16533,0-3.90651-0.85944-3.90651-1.91418
			s1.74118-1.91417,3.90651-1.91417C158.20712,232.4256,159.9483,233.28502,159.9483,234.33977z"/>
		<path style="fill:#263238;stroke:#263238;stroke-width:0.55807;stroke-linecap:round;stroke-linejoin:round;" d="
			M101.94237,239.88142v6.29504c0,2.23228,3.66653,4.02927,8.19249,4.02927c4.52596,0,8.18691-1.80257,8.18691-4.02927v-6.29504
			H101.94237z"/>
		
			<ellipse style="fill:#FFFFFF;stroke:#263238;stroke-width:0.55807;stroke-linecap:round;stroke-linejoin:round;" cx="110.13485" cy="239.88142" rx="8.19249" ry="4.02928"/>
		
			<ellipse style="fill:#FFCF30;stroke:#263238;stroke-width:0.55807;stroke-linecap:round;stroke-linejoin:round;" cx="110.13485" cy="239.88142" rx="3.88976" ry="1.91418"/>
		<path style="fill:#263238;stroke:#263238;stroke-width:0.55807;stroke-linecap:round;stroke-linejoin:round;" d="
			M131.77687,237.75517v6.29504c0,2.23228,3.66653,4.03485,8.19249,4.03485c4.52594,0,8.19247-1.80814,8.19247-4.03485v-6.29504
			H131.77687z"/>
		
			<ellipse style="fill:#FFFFFF;stroke:#263238;stroke-width:0.55807;stroke-linecap:round;stroke-linejoin:round;" cx="139.96936" cy="237.75517" rx="8.19248" ry="4.02928"/>
		
			<ellipse style="fill:#FFCF30;stroke:#263238;stroke-width:0.55807;stroke-linecap:round;stroke-linejoin:round;" cx="139.96936" cy="237.75517" rx="3.88976" ry="1.91418"/>
		<path style="fill:#263238;stroke:#263238;stroke-width:0.55807;stroke-linecap:round;stroke-linejoin:round;" d="
			M120.28059,243.87164v6.30061c0,2.23228,3.66653,4.02928,8.19249,4.02928s8.19247-1.80258,8.19247-4.02928v-6.30061H120.28059z"/>
		
			<ellipse style="fill:#FFFFFF;stroke:#263238;stroke-width:0.55807;stroke-linecap:round;stroke-linejoin:round;" cx="128.47308" cy="243.87164" rx="8.19248" ry="4.02928"/>
		
			<ellipse style="fill:#FFCF30;stroke:#263238;stroke-width:0.55807;stroke-linecap:round;stroke-linejoin:round;" cx="128.47308" cy="243.87164" rx="3.88976" ry="1.91418"/>
	</g>
	<g id="freepik--Table--inject-64">
		
			<line style="fill:none;stroke:#263238;stroke-width:0.55807;stroke-linecap:round;stroke-linejoin:round;" x1="270" y1="176.47893" x2="0.23385" y2="176.47893"/>
	</g>
	<g id="freepik--Character--inject-64">
		<path style="fill:#263238;stroke:#263238;stroke-width:0.55807;stroke-linecap:round;stroke-linejoin:round;" d="
			M135.31505,78.02397c0,0-15.96085,4.92776-26.78744,7.88555c-10.82658,2.95778-15.37487,8.87333-16.74214,11.03865
			s-15.99433,29.37129-15.99433,29.37129l25.42574,15.37486l-6.31178,34.27118h81.84117l3.51027-39.39986l2.04813,8.71149
			l31.06786-0.63062c0,0-4.91661-28.96391-8.46596-38.42323s-9.85555-12.41708-18.72328-16.36266
			c-8.86775-3.94557-30.76093-11.46276-34.49442-12.22731C147.95535,76.86877,135.31505,78.02397,135.31505,78.02397z"/>
		
			<line style="fill:none;stroke:#737373;stroke-width:0.55807;stroke-linecap:round;stroke-linejoin:round;" x1="98.85065" y1="139.91966" x2="107.72399" y2="119.61703"/>
		
			<line style="fill:none;stroke:#737373;stroke-width:0.55807;stroke-linecap:round;stroke-linejoin:round;" x1="180.25653" y1="136.56567" x2="177.34898" y2="127.24029"/>
		<polygon style="fill:#FFFFFF;stroke:#263238;stroke-width:0.55807;stroke-linecap:round;stroke-linejoin:round;" points="
			137.24039,99.31439 149.06592,124.44434 156.90125,101.68062 		"/>
		<path style="fill:#FFCF30;stroke:#263238;stroke-width:0.55807;stroke-linecap:round;stroke-linejoin:round;" d="
			M142.61461,102.09359l8.03622,21.33507l-10.37454,18.47775c0,0-1.57933-14.73309-5.02264-27.3455
			s-3.03592-30.43163-2.31042-37.0113L142.61461,102.09359z"/>
		<path style="fill:#FFCF30;stroke:#263238;stroke-width:0.55807;stroke-linecap:round;stroke-linejoin:round;" d="
			M153.64769,101.47971c0,0-20.25241,55.51694-41.14661,74.83179h15.74879c0,0,22.42329-33.43405,31.29665-52.75449
			c5.40099-11.96638,8.73343-24.76208,9.85555-37.84282L153.64769,101.47971z"/>
		<path style="fill:#FFFFFF;stroke:#263238;stroke-width:0.55807;stroke-linecap:round;stroke-linejoin:round;" d="
			M133.40643,68.91066c0,0-1.31705-3.06939-3.65536-1.46214s-1.16637,8.1869,0,11.10562
			c1.16637,2.91871,4.09624,3.22007,4.09624,1.46214C133.84731,78.25835,133.40643,68.91066,133.40643,68.91066z"/>
		<path style="fill:#FFFFFF;stroke:#263238;stroke-width:0.55807;stroke-linecap:round;stroke-linejoin:round;" d="
			M172.63885,72.46558c0,0,1.67422-2.87407,3.81163-0.97663c2.13741,1.89745,0.10045,8.26504-1.43982,11.01075
			s-4.46457,2.65642-4.24692,0.92081S172.63885,72.46558,172.63885,72.46558z"/>
		<path style="fill:#263238;stroke:#263238;stroke-width:0.55807;stroke-linecap:round;stroke-linejoin:round;" d="
			M135.74475,59.11093c0,0-0.70876,25.11322-0.70876,30.54325s1.67421,13.73972,8.85101,17.97549
			c7.1768,4.23576,13.58347,0.15068,16.88725-4.23576c3.30379-4.38644,8.7394-26.01729,8.7394-31.8603
			c0-5.843-0.70874-16.66401-7.55629-21.76478c-5.38539-4.0237-16.88725-4.38644-21.72572,1.46215
			C136.55954,55.65088,135.74475,59.11093,135.74475,59.11093z"/>
		<path style="fill:#FFFFFF;stroke:#263238;stroke-width:0.55807;stroke-linecap:round;stroke-linejoin:round;" d="
			M132.96556,55.32162c0,0-0.87617,25.11321-0.87617,30.54883c0,5.43562,2.04811,13.73972,10.96051,17.97549
			c8.91241,4.23576,16.80911,0.14509,20.8998-4.23576c4.09067-4.38086,10.81541-26.01729,10.81541-31.86588
			s-0.87617-16.65843-9.35327-21.76479c-6.66338-4.01811-20.89978-4.38086-26.88788,1.46215
			C133.98125,51.86158,132.96556,55.32162,132.96556,55.32162z"/>
		<path style="fill:none;stroke:#263238;stroke-width:0.55807;stroke-linecap:round;stroke-linejoin:round;" d="M157.2305,83.53213
			c0,0,4.67664-2.79035,9.05751-0.73107"/>
		<path style="fill:none;stroke:#263238;stroke-width:0.55807;stroke-linecap:round;stroke-linejoin:round;" d="M138.22818,78.55972
			c3.04924-0.27657,5.99265,1.19513,7.60092,3.80046"/>
		<path style="fill:none;stroke:#263238;stroke-width:1.67421;stroke-linecap:round;stroke-linejoin:round;" d="M148.60831,76.95247
			c0,0-4.82732-3.21449-10.08435-1.60725"/>
		<path style="fill:none;stroke:#263238;stroke-width:1.67421;stroke-linecap:round;stroke-linejoin:round;" d="M155.91347,77.97932
			c0,0,4.82173-3.34843,11.83669,0.4353"/>
		<path style="fill:none;stroke:#263238;stroke-width:0.55807;stroke-linecap:round;stroke-linejoin:round;" d="M158.54198,84.26321
			c1.47733,0.44766,3.0542,0.44766,4.53154,0"/>
		<path style="fill:none;stroke:#263238;stroke-width:0.55807;stroke-linecap:round;stroke-linejoin:round;" d="M145.09804,83.23635
			c-1.90199-0.13158-3.70358-0.90257-5.11194-2.18764"/>
		<path style="fill:none;stroke:#263238;stroke-width:0.55807;stroke-linecap:round;stroke-linejoin:round;" d="M157.6658,82.36018
			c0,0,1.17195-2.33832,5.2626-2.04254"/>
		<path style="fill:none;stroke:#263238;stroke-width:0.55807;stroke-linecap:round;stroke-linejoin:round;" d="M146.41507,81.33891
			c0,0-0.73106-3.06939-3.06938-3.51026"/>
		<path style="fill:none;stroke:#263238;stroke-width:0.55807;stroke-linecap:round;stroke-linejoin:round;" d="M147.00105,89.67091
			c-0.24489,0.73104-0.02452,1.53761,0.55807,2.04255c1.02686,1.02685,3.51027,3.06939,4.53154,2.33832
			c1.02126-0.73107,1.60725-0.4353,2.79036-1.89744c0.68015-0.7606,0.99945-1.77747,0.87617-2.79036"/>
		<path style="fill:none;stroke:#263238;stroke-width:0.55807;stroke-linecap:round;stroke-linejoin:round;" d="M139.41129,91.86414
			c0,0,5.55281,4.09066,10.22945,4.82173c4.67662,0.73108,11.54649-3.06939,11.54649-3.06939"/>
		<path style="fill:none;stroke:#263238;stroke-width:0.55807;stroke-linecap:round;stroke-linejoin:round;" d="M141.29756,91.27817
			c0,0-2.92429,0.2902-2.92429,1.02127"/>
		<path style="fill:none;stroke:#263238;stroke-width:0.55807;stroke-linecap:round;stroke-linejoin:round;" d="M159.85902,93.03051
			c0,0,1.90303,0.44087,1.90303,1.89744"/>
		<path style="fill:#FFCF30;stroke:#263238;stroke-width:0.55807;stroke-linecap:round;stroke-linejoin:round;" d="
			M133.27249,54.88633c0,0,5.26262,6.42898,20.45891,7.16005c15.19629,0.73108,20.02361-3.50469,20.02361-3.50469l-0.44089-1.90302
			c0,0,0.29578-0.87617,1.17197,0.29578c0.87617,1.17195,1.46214,8.32643,1.89743,10.22945
			c0.4353,1.90302-1.60724,3.64978-2.79036,4.09067c-1.18311,0.44088-11.83669,4.67664-24.55515,2.19321
			c-9.12447-1.78583-17.2444-6.13879-17.97546-7.01495c-0.73108-0.87617-0.29021-7.60094-0.29021-9.64906
			c0-2.04812,2.62852-4.23577,3.64978-4.38086L133.27249,54.88633z"/>
		<path style="fill:#FFCF30;stroke:#263238;stroke-width:0.55807;stroke-linecap:round;stroke-linejoin:round;" d="
			M175.39574,63.02301c0,0-6.86986-1.60725-9.06308,0c-2.19321,1.60724,0,9.48722,1.46214,9.0575
			S172.33749,71.50011,175.39574,63.02301z"/>
		<path style="fill:#FFCF30;stroke:#263238;stroke-width:0.55807;stroke-linecap:round;stroke-linejoin:round;" d="
			M175.39574,63.02301c0.37389-2.90189,0.91046-5.7805,1.60722-8.6222c0.87619-3.06381,2.91873,2.19322,2.91873,7.31074
			S175.39574,63.02301,175.39574,63.02301z"/>
		<polygon style="fill:#FFCF30;stroke:#263238;stroke-width:0.55807;stroke-linecap:round;stroke-linejoin:round;" points="
			173.69919,62.59887 174.36888,66.10914 176.70718,63.6034 175.87567,60.92466 		"/>
		<path style="fill:#FFCF30;stroke:#263238;stroke-width:0.55807;stroke-linecap:round;stroke-linejoin:round;" d="
			M180.97646,146.29285c0,0,1.04918-5.58072,3.85068-8.87334c2.80151-3.29262,15.06793-3.27028,20.5482-2.33273
			c5.48027,0.93756,9.6937,7.35538,8.75613,12.60684c-0.93755,5.25145-3.96788,10.97726-5.36864,13.31
			c-1.40077,2.33273-4.55386,2.91872-9.45932,0.35159C194.39806,158.78807,180.97646,146.29285,180.97646,146.29285z"/>
		<path style="fill:#FFFFFF;stroke:#263238;stroke-width:0.55807;stroke-linecap:round;stroke-linejoin:round;" d="
			M155.42235,166.72383c0,0,26.60886-0.39066,35.87283-0.39066c9.26399,0,16.36267-4.53712,16.36267-9.26399
			c0-4.72685-11.23956-13.01422-17.7411-13.8011s-17.93642,6.89775-27.39572,9.66022
			c-9.4593,2.76245-12.02643,1.18311-13.99643,1.18311c-1.96999,0-5.32401-0.39622-8.4771,0.78688
			c-3.15311,1.18311-6.30621,6.3062-7.68465,8.47711c-1.37845,2.1709-5.32401,4.92775-4.73245,6.89775
			c0.59155,1.96999,8.67242,4.92776,12.4171,4.92776c2.42749-0.07158,4.7986-0.74878,6.89775-1.97
			c0,0-2.75688,5.51933,0.59155,4.13531s4.53712-5.31842,5.91556-7.09308
			C154.20944,169.14862,154.86853,167.96115,155.42235,166.72383z"/>
		<path style="fill:#263238;stroke:#263238;stroke-width:0.55807;stroke-linecap:round;stroke-linejoin:round;" d="
			M130.39844,160.72456v4.17438c0,1.46774,2.8629,2.662,6.40108,2.662c3.53816,0,6.40665-1.21101,6.40665-2.662v-4.15764
			L130.39844,160.72456z"/>
		
			<ellipse style="fill:#FFFFFF;stroke:#263238;stroke-width:0.55807;stroke-linecap:round;stroke-linejoin:round;" cx="136.79951" cy="160.72456" rx="6.40666" ry="2.66199"/>
		<path style="fill:#FFCF30;stroke:#263238;stroke-width:0.55807;stroke-linecap:round;stroke-linejoin:round;" d="
			M139.84099,160.72456c0,0.69759-1.36169,1.26682-3.04149,1.26682c-1.67978,0-3.04149-0.55806-3.04149-1.26682
			c0-0.70874,1.36171-1.26125,3.04149-1.26125C138.47929,159.46332,139.84099,160.02698,139.84099,160.72456z"/>
		<path style="fill:none;stroke:#263238;stroke-width:0.55807;stroke-linecap:round;stroke-linejoin:round;" d="
			M155.42235,166.72383c0.22087-1.83315,0.22087-3.68619,0-5.51933c-0.25079-1.44167-0.86118-2.7968-1.77466-3.93999"/>
		<path style="fill:none;stroke:#263238;stroke-width:0.55807;stroke-linecap:round;stroke-linejoin:round;" d="
			M146.41507,158.90527c0,0-2.23228,2.68431-1.28355,4.89986s3.15311,5.84302,3.0359,6.65779
			c-0.11719,0.81477-1.22217,2.79036-1.22217,2.79036"/>
		<path style="fill:#FFFFFF;stroke:#263238;stroke-width:0.55807;stroke-linecap:round;stroke-linejoin:round;" d="
			M130.30356,173.73322c0,0-4.78826-3.3875-4.78826-5.13983s2.91871-8.05298,3.96789-6.30621
			c1.04918,1.74678,0.1172,3.97348-0.1116,5.02264c-0.22882,1.04918,1.04916,2.68433,1.04916,2.68433"/>
		<path style="fill:#FFFFFF;stroke:#263238;stroke-width:0.55807;stroke-linecap:round;stroke-linejoin:round;" d="
			M136.37537,175.25116c0,0-3.85626,0.55807-5.48584,0c-1.62956-0.55806-2.57271-8.75613-1.75233-10.15691
			c0.82036-1.40076,1.98116,0.1172,2.33273,1.62958c0.35158,1.51239,1.75233,5.49142,2.79036,6.3062"/>
		<path style="fill:#FFFFFF;stroke:#263238;stroke-width:0.55807;stroke-linecap:round;stroke-linejoin:round;" d="
			M136.49257,171.16609c0,0-4.46457-5.13983-5.49142-2.92429c-1.02684,2.21555,3.73909,6.5406,5.72581,7.58978
			c1.98674,1.04916,4.20229-0.55807,4.20229-0.55807"/>
		<path style="fill:#FFFFFF;stroke:#263238;stroke-width:0.55807;stroke-linecap:round;stroke-linejoin:round;" d="
			M143.37917,173.27002c0,0-5.72023-7.58977-7.35538-5.36864s3.0359,7.35538,5.02264,8.17017
			c1.98672,0.8148,5.13426-2.79036,5.13426-2.79036"/>
		<path style="fill:#FFFFFF;stroke:#263238;stroke-width:0.55807;stroke-linecap:round;stroke-linejoin:round;" d="
			M135.46571,143.36856c0,0,5.91556,4.28598,6.50153,5.17331c0.58597,0.88734,0.59155,8.57198,0.59155,9.90578
			s-2.06487,2.23228-3.10287,1.62399c-1.03799-0.60831-1.77466-6.50154-1.91977-8.2762
			c-0.1451-1.77466-2.79034-6.35645-2.79034-6.35645S134.13751,142.92209,135.46571,143.36856z"/>
		<path style="fill:#FFCF30;stroke:#263238;stroke-width:0.55807;stroke-linecap:round;stroke-linejoin:round;" d="
			M64.80271,145.73477c0,0-2.36622,0-2.662-2.95776c-0.29578-2.95778,4.87754-15.67065,6.80289-18.03687
			c1.92534-2.36623,13.89597-2.07045,18.91862-0.1451s7.53954,4.58176,9.16911,7.53954
			c1.12922,1.98331,1.73962,4.21954,1.77467,6.50153c0.04465,1.28355-5.02264,5.32401-13.6002,5.02264
			S64.80271,145.73477,64.80271,145.73477z"/>
		<path style="fill:#FFFFFF;stroke:#263238;stroke-width:0.55807;stroke-linecap:round;stroke-linejoin:round;" d="
			M89.18485,133.02191c0,0,24.3933,5.76486,31.04552,5.76486c6.65222,0,12.71287,0.44089,13.74531,1.4789
			c1.03242,1.03799,3.84511,7.25493,4.46457,8.86775c0.61945,1.61284-0.15068,11.68044-0.74223,12.83565
			s-3.10287,0.29578-3.10287,0.29578l-0.44087-1.91977c0,0-0.59155,2.07045-3.40425,1.03801c0,0-1.91975,1.62399-2.79035,1.62399
			h-1.38403c0,0-0.29578,1.18311-2.36623,1.18311c-2.07044,0-5.76488-1.62958-7.09866-3.84512
			c-1.33379-2.21555-7.53954-9.90576-7.98042-9.7551c-0.44089,0.15068-15.06793,3.10287-23.36087,3.10287
			s-18.90746-1.75232-21.69781-6.47917c-2.79036-4.72687,2.95219-12.12691,7.98042-14.93399
			C77.08029,129.47258,89.18485,133.02191,89.18485,133.02191z"/>
		<path style="fill:none;stroke:#263238;stroke-width:0.55807;stroke-linecap:round;stroke-linejoin:round;" d="
			M129.40506,145.73477c0,0,3.54935,4.87755,4.1409,6.79732c0.59155,1.91975,0.59155,7.81299,0.59155,7.81299"/>
		<path style="fill:none;stroke:#263238;stroke-width:0.55807;stroke-linecap:round;stroke-linejoin:round;" d="
			M123.34441,150.16586c0,0,2.07044,3.54933,3.69443,6.21133c1.10479,1.76382,2.3397,3.44269,3.69444,5.02264"/>
		<path style="fill:none;stroke:#263238;stroke-width:0.55807;stroke-linecap:round;stroke-linejoin:round;" d="
			M117.57953,154.01097c1.48647,1.80383,3.06415,3.53052,4.72687,5.17331c1.92535,1.77467,4.29157,3.84512,4.29157,3.84512"/>
	</g>
	<g id="freepik--Plant--inject-64">
		<path style="fill:#FFFFFF;stroke:#263238;stroke-width:0.55807;stroke-linecap:round;stroke-linejoin:round;" d="
			M257.30386,166.9415c-11.58556,6.66336-19.68317,0-19.68317,0l-0.98221,8.72266
			c-0.58797,5.21826-0.55609,10.48778,0.09488,15.69855l0,0c0.50195,4.08078,3.96935,7.14586,8.08089,7.14331h5.09517
			c4.22256-0.0047,7.78055-3.15355,8.29852-7.34422l0,0c0.63901-5.19887,0.66336-10.45491,0.07254-15.65948L257.30386,166.9415z"/>
		
			<ellipse style="fill:#263238;stroke:#263238;stroke-width:0.55807;stroke-linecap:round;stroke-linejoin:round;" cx="247.39252" cy="167.0531" rx="9.77184" ry="3.5605"/>
		<path style="fill:#FFCF30;stroke:#263238;stroke-width:0.55807;stroke-linecap:round;stroke-linejoin:round;" d="
			M243.50276,168.57663c-1.60999-0.50259-3.07852-1.37834-4.28598-2.55595c-0.87143-0.88716-1.87018-1.63953-2.96336-2.23228
			c-2.36621-1.18311-7.28841-2.16531-7.28841-2.16531s4.33621-0.98779,7.67906-0.19533
			c3.34286,0.79245,5.71465,4.1353,5.71465,4.1353s-0.98778-1.37843-2.36621-5.51375
			c-1.37843-4.1353-1.37843-13.00864-1.37843-13.00864c2.10683,2.45137,3.77228,5.24976,4.92218,8.27061
			c0.95541,2.74594,1.61578,5.58578,1.96999,8.47153c0,0-0.39066-6.89218,0.78688-10.83217s4.53154-8.86218,4.53154-8.86218
			s0.19533,8.66685-1.18312,13.39372c-1.37843,4.72687-1.9644,6.89777-1.9644,6.89777
			c0.86208-2.45538,2.27695-4.67982,4.13531-6.50153c2.95778-2.75688,10.04527-5.11752,10.04527-5.11752
			s-3.34842,6.1053-5.51373,8.07529c-2.16533,1.97-4.33064,4.13531-4.33064,4.13531s2.36064-1.74677,6.49037-1.74677
			s9.0575,2.75688,9.0575,2.75688s-10.52521-0.06139-14.40381,1.74677c-0.77661,0.38098-1.60051,0.65686-2.44994,0.82036
			l-2.13742,0.37949c-1.69055,0.30099-3.42876,0.18994-5.06728-0.32367L243.50276,168.57663z"/>
		
			<line style="fill:none;stroke:#263238;stroke-width:0.55807;stroke-linecap:round;stroke-linejoin:round;" x1="243.45813" y1="166.67361" x2="241.0305" y2="164.99382"/>
		
			<line style="fill:none;stroke:#263238;stroke-width:0.55807;stroke-linecap:round;stroke-linejoin:round;" x1="246.0699" y1="167.97949" x2="242.71031" y2="159.02246"/>
		
			<line style="fill:none;stroke:#263238;stroke-width:0.55807;stroke-linecap:round;stroke-linejoin:round;" x1="246.0699" y1="167.97949" x2="247.93385" y2="156.03677"/>
		
			<line style="fill:none;stroke:#263238;stroke-width:0.55807;stroke-linecap:round;stroke-linejoin:round;" x1="246.0699" y1="167.97949" x2="252.41516" y2="160.14418"/>
		
			<line style="fill:none;stroke:#263238;stroke-width:0.55807;stroke-linecap:round;stroke-linejoin:round;" x1="247.39252" y1="167.82324" x2="254.09497" y2="164.80966"/>
		<path style="fill:none;stroke:#FFCF30;stroke-width:0.55807;stroke-linecap:round;stroke-linejoin:round;" d="M240.8631,182.19916
			c0,5.23471-0.81479,9.48721-1.81932,9.48721c-1.00455,0-1.81374-4.24133-1.81374-9.48721
			c0-5.24586,0.81479-9.48721,1.81374-9.48721S240.8631,176.94212,240.8631,182.19916z"/>
		
			<ellipse style="fill:none;stroke:#FFCF30;stroke-width:0.55807;stroke-linecap:round;stroke-linejoin:round;" cx="247.31439" cy="184.79977" rx="4.03486" ry="11.29536"/>
		
			<ellipse style="fill:none;stroke:#FFCF30;stroke-width:0.55807;stroke-linecap:round;stroke-linejoin:round;" cx="255.18321" cy="181.97594" rx="1.41192" ry="9.68254"/>
	</g>
</g>
</svg>
