<?xml version="1.0" encoding="utf-8"?>
<!-- Generator: Adobe Illustrator 24.2.1, SVG Export Plug-In . SVG Version: 6.00 Build 0)  -->
<svg version="1.0" id="Layer_1" xmlns="http://www.w3.org/2000/svg" xmlns:xlink="http://www.w3.org/1999/xlink" x="0px" y="0px"
	 width="500px" height="500px" viewBox="0 0 500 500" style="enable-background:new 0 0 500 500;" xml:space="preserve">
<g>
	<g id="freepik--background-simple--inject-64">
		<path style="fill:#FFCF30;" d="M333.83939,23.53151c0,0-81.58176-29.00939-161.66501,17.19687
			S51.68261,178.57202,16.97884,252.0204S2.25195,400.16769,63.38144,434.23077s102.70583-16.15308,188.47313-18.60239
			c85.76729-2.44928,108.82393,9.81793,179.98836-38.63092s84.0311-162.86386,27.90356-247.52538
			S333.83939,23.53151,333.83939,23.53151z"/>
		<path style="opacity:0.7;fill:#FFFFFF;enable-background:new    ;" d="M333.83939,23.53151
			c0,0-81.58176-29.00939-161.66501,17.19687S51.68261,178.57202,16.97884,252.0204S2.25195,400.16769,63.38144,434.23077
			s102.70583-16.15308,188.47313-18.60239c85.76729-2.44928,108.82393,9.81793,179.98836-38.63092
			s84.0311-162.86386,27.90356-247.52538S333.83939,23.53151,333.83939,23.53151z"/>
	</g>
	<g id="freepik--Kitchen--inject-64">
		<path style="fill:none;stroke:#263238;stroke-width:1.03346;stroke-linecap:round;stroke-linejoin:round;" d="M44.99609,182.85056
			h24.53447c2.35728,0,4.2682,1.91098,4.2682,4.26823v24.53445c0,2.35727-1.91094,4.26823-4.2682,4.26823H44.99609
			c-2.35728,0-4.2682-1.91096-4.2682-4.26823v-24.53445C40.72787,184.76154,42.63882,182.85056,44.99609,182.85056z"/>
		<path style="fill:none;stroke:#263238;stroke-width:1.03346;stroke-linecap:round;stroke-linejoin:round;" d="M80.86767,182.85056
			h24.53448c2.35728,0,4.2682,1.91098,4.2682,4.26823v24.53445c0,2.35727-1.91094,4.26823-4.2682,4.26823H80.86767
			c-2.35728,0-4.2682-1.91096-4.2682-4.26823v-24.53445C76.59946,184.76154,78.51041,182.85056,80.86767,182.85056z"/>
		<path style="fill:none;stroke:#263238;stroke-width:1.03346;stroke-linecap:round;stroke-linejoin:round;" d="
			M116.73926,182.85056h24.53447c2.35727,0,4.26822,1.91098,4.26822,4.26823v24.53445c0,2.35727-1.91093,4.26823-4.26822,4.26823
			h-24.53447c-2.35728,0-4.2682-1.91096-4.2682-4.26823v-24.53445C112.47106,184.76154,114.382,182.85056,116.73926,182.85056z"/>
		<path style="fill:none;stroke:#263238;stroke-width:1.03346;stroke-linecap:round;stroke-linejoin:round;" d="
			M152.60054,182.85056h24.53447c2.35725,0,4.26822,1.91098,4.26822,4.26823v24.53445c0,2.35727-1.91096,4.26823-4.26822,4.26823
			h-24.53447c-2.35725,0-4.26822-1.91096-4.26822-4.26823v-24.53445C148.33232,184.76154,150.24329,182.85056,152.60054,182.85056z"
			/>
		<path style="fill:none;stroke:#263238;stroke-width:1.03346;stroke-linecap:round;stroke-linejoin:round;" d="
			M188.47212,182.85056h24.53444c2.35727,0,4.26822,1.91098,4.26822,4.26823v24.53445c0,2.35727-1.91093,4.26823-4.26822,4.26823
			h-24.53444c-2.35727,0-4.26822-1.91096-4.26822-4.26823v-24.53445C184.2039,184.76154,186.11485,182.85056,188.47212,182.85056z"
			/>
		<path style="fill:none;stroke:#263238;stroke-width:1.03346;stroke-linecap:round;stroke-linejoin:round;" d="
			M224.34372,182.85056h24.53448c2.35725,0,4.26819,1.91098,4.26819,4.26823v24.53445c0,2.35727-1.91093,4.26823-4.26819,4.26823
			h-24.53448c-2.35725,0-4.26822-1.91096-4.26822-4.26823v-24.53445C220.0755,184.76154,221.98647,182.85056,224.34372,182.85056z"
			/>
		<path style="fill:none;stroke:#263238;stroke-width:1.03346;stroke-linecap:round;stroke-linejoin:round;" d="
			M260.20496,182.85056h24.53448c2.35727,0,4.26822,1.91098,4.26822,4.26823v24.53445c0,2.35727-1.91095,4.26823-4.26822,4.26823
			h-24.53448c-2.35724,0-4.26822-1.91096-4.26822-4.26823v-24.53445C255.93674,184.76154,257.84772,182.85056,260.20496,182.85056z"
			/>
		<path style="fill:none;stroke:#263238;stroke-width:1.03346;stroke-linecap:round;stroke-linejoin:round;" d="
			M296.07654,182.85056h24.53448c2.35727,0,4.26822,1.91098,4.26822,4.26823v24.53445c0,2.35727-1.91095,4.26823-4.26822,4.26823
			h-24.53448c-2.35724,0-4.26819-1.91096-4.26819-4.26823v-24.53445C291.80835,184.76154,293.7193,182.85056,296.07654,182.85056z"
			/>
		<path style="fill:none;stroke:#263238;stroke-width:1.03346;stroke-linecap:round;stroke-linejoin:round;" d="
			M331.94818,182.85056h24.53445c2.3573,0,4.26822,1.91098,4.26822,4.26823v24.53445c0,2.35727-1.91092,4.26823-4.26822,4.26823
			h-24.53445c-2.3573,0-4.26822-1.91096-4.26822-4.26823v-24.53445C327.67996,184.76154,329.59088,182.85056,331.94818,182.85056z"
			/>
		<path style="fill:none;stroke:#263238;stroke-width:1.03346;stroke-linecap:round;stroke-linejoin:round;" d="
			M367.80942,182.85056h24.53445c2.3573,0,4.26822,1.91098,4.26822,4.26823v24.53445c0,2.35727-1.91092,4.26823-4.26822,4.26823
			h-24.53445c-2.3573,0-4.26822-1.91096-4.26822-4.26823v-24.53445C363.5412,184.76154,365.45212,182.85056,367.80942,182.85056z"/>
		<path style="fill:none;stroke:#263238;stroke-width:1.03346;stroke-linecap:round;stroke-linejoin:round;" d="M403.681,182.85056
			h24.53448c2.35727,0,4.26822,1.91098,4.26822,4.26823v24.53445c0,2.35727-1.91095,4.26823-4.26822,4.26823H403.681
			c-2.35724,0-4.26822-1.91096-4.26822-4.26823v-24.53445C399.41278,184.76154,401.32376,182.85056,403.681,182.85056z"/>
		<path style="fill:none;stroke:#263238;stroke-width:1.03346;stroke-linecap:round;stroke-linejoin:round;" d="
			M439.55261,182.85056h24.53448c2.35724,0,4.26819,1.91098,4.26819,4.26823v24.53445c0,2.35727-1.91095,4.26823-4.26819,4.26823
			h-24.53448c-2.35727,0-4.26822-1.91096-4.26822-4.26823v-24.53445C435.28439,184.76154,437.19534,182.85056,439.55261,182.85056z"
			/>
		<path style="fill:none;stroke:#263238;stroke-width:1.03346;stroke-linecap:round;stroke-linejoin:round;" d="M44.99609,218.1951
			h24.53447c2.35728,0,4.2682,1.91095,4.2682,4.26822v24.53445c0,2.35725-1.91094,4.26823-4.2682,4.26823H44.99609
			c-2.35728,0-4.2682-1.91098-4.2682-4.26823v-24.53445C40.72787,220.10603,42.63882,218.1951,44.99609,218.1951z"/>
		<path style="fill:none;stroke:#263238;stroke-width:1.03346;stroke-linecap:round;stroke-linejoin:round;" d="M80.86767,218.1951
			h24.53448c2.35728,0,4.2682,1.91095,4.2682,4.26822v24.53445c0,2.35725-1.91094,4.26823-4.2682,4.26823H80.86767
			c-2.35728,0-4.2682-1.91098-4.2682-4.26823v-24.53445C76.59946,220.10603,78.51041,218.1951,80.86767,218.1951z"/>
		<path style="fill:none;stroke:#263238;stroke-width:1.03346;stroke-linecap:round;stroke-linejoin:round;" d="M116.73926,218.1951
			h24.53447c2.35727,0,4.26822,1.91095,4.26822,4.26822v24.53445c0,2.35725-1.91093,4.26823-4.26822,4.26823h-24.53447
			c-2.35728,0-4.2682-1.91098-4.2682-4.26823v-24.53445C112.47106,220.10603,114.382,218.1951,116.73926,218.1951z"/>
		<path style="fill:none;stroke:#263238;stroke-width:1.03346;stroke-linecap:round;stroke-linejoin:round;" d="M152.60054,218.1951
			h24.53447c2.35725,0,4.26822,1.91095,4.26822,4.26822v24.53445c0,2.35725-1.91096,4.26823-4.26822,4.26823h-24.53447
			c-2.35725,0-4.26822-1.91098-4.26822-4.26823v-24.53445C148.33232,220.10603,150.24329,218.1951,152.60054,218.1951z"/>
		<path style="fill:none;stroke:#263238;stroke-width:1.03346;stroke-linecap:round;stroke-linejoin:round;" d="M188.47212,218.1951
			h24.53444c2.35727,0,4.26822,1.91095,4.26822,4.26822v24.53445c0,2.35725-1.91093,4.26823-4.26822,4.26823h-24.53444
			c-2.35727,0-4.26822-1.91098-4.26822-4.26823v-24.53445C184.2039,220.10603,186.11485,218.1951,188.47212,218.1951z"/>
		<path style="fill:none;stroke:#263238;stroke-width:1.03346;stroke-linecap:round;stroke-linejoin:round;" d="M224.34372,218.1951
			h24.53448c2.35725,0,4.26819,1.91095,4.26819,4.26822v24.53445c0,2.35725-1.91093,4.26823-4.26819,4.26823h-24.53448
			c-2.35725,0-4.26822-1.91098-4.26822-4.26823v-24.53445C220.0755,220.10603,221.98647,218.1951,224.34372,218.1951z"/>
		<path style="fill:none;stroke:#263238;stroke-width:1.03346;stroke-linecap:round;stroke-linejoin:round;" d="M260.20496,218.1951
			h24.53448c2.35727,0,4.26822,1.91095,4.26822,4.26822v24.53445c0,2.35725-1.91095,4.26823-4.26822,4.26823h-24.53448
			c-2.35724,0-4.26822-1.91098-4.26822-4.26823v-24.53445C255.93674,220.10603,257.84772,218.1951,260.20496,218.1951z"/>
		<path style="fill:none;stroke:#263238;stroke-width:1.03346;stroke-linecap:round;stroke-linejoin:round;" d="M296.07654,218.1951
			h24.53448c2.35727,0,4.26822,1.91095,4.26822,4.26822v24.53445c0,2.35725-1.91095,4.26823-4.26822,4.26823h-24.53448
			c-2.35724,0-4.26819-1.91098-4.26819-4.26823v-24.53445C291.80835,220.10603,293.7193,218.1951,296.07654,218.1951z"/>
		<path style="fill:none;stroke:#263238;stroke-width:1.03346;stroke-linecap:round;stroke-linejoin:round;" d="M331.94818,218.1951
			h24.53445c2.3573,0,4.26822,1.91095,4.26822,4.26822v24.53445c0,2.35725-1.91092,4.26823-4.26822,4.26823h-24.53445
			c-2.3573,0-4.26822-1.91098-4.26822-4.26823v-24.53445C327.67996,220.10603,329.59088,218.1951,331.94818,218.1951z"/>
		<path style="fill:none;stroke:#263238;stroke-width:1.03346;stroke-linecap:round;stroke-linejoin:round;" d="M367.80942,218.1951
			h24.53445c2.3573,0,4.26822,1.91095,4.26822,4.26822v24.53445c0,2.35725-1.91092,4.26823-4.26822,4.26823h-24.53445
			c-2.3573,0-4.26822-1.91098-4.26822-4.26823v-24.53445C363.5412,220.10603,365.45212,218.1951,367.80942,218.1951z"/>
		<path style="fill:none;stroke:#263238;stroke-width:1.03346;stroke-linecap:round;stroke-linejoin:round;" d="M403.681,218.1951
			h24.53448c2.35727,0,4.26822,1.91095,4.26822,4.26822v24.53445c0,2.35725-1.91095,4.26823-4.26822,4.26823H403.681
			c-2.35724,0-4.26822-1.91098-4.26822-4.26823v-24.53445C399.41278,220.10603,401.32376,218.1951,403.681,218.1951z"/>
		<path style="fill:none;stroke:#263238;stroke-width:1.03346;stroke-linecap:round;stroke-linejoin:round;" d="M439.55261,218.1951
			h24.53448c2.35724,0,4.26819,1.91095,4.26819,4.26822v24.53445c0,2.35725-1.91095,4.26823-4.26819,4.26823h-24.53448
			c-2.35727,0-4.26822-1.91098-4.26822-4.26823v-24.53445C435.28439,220.10603,437.19534,218.1951,439.55261,218.1951z"/>
		<path style="fill:none;stroke:#263238;stroke-width:1.03346;stroke-linecap:round;stroke-linejoin:round;" d="M44.99609,253.53961
			h24.53447c2.35728,0,4.2682,1.91092,4.2682,4.26819v24.53448c0,2.35727-1.91094,4.26822-4.2682,4.26822H44.99609
			c-2.35728,0-4.2682-1.91095-4.2682-4.26822V257.8078C40.72787,255.45053,42.63882,253.53961,44.99609,253.53961z"/>
		<path style="fill:none;stroke:#263238;stroke-width:1.03346;stroke-linecap:round;stroke-linejoin:round;" d="M80.86767,253.53961
			h24.53448c2.35728,0,4.2682,1.91092,4.2682,4.26819v24.53448c0,2.35727-1.91094,4.26822-4.2682,4.26822H80.86767
			c-2.35728,0-4.2682-1.91095-4.2682-4.26822V257.8078C76.59946,255.45053,78.51041,253.53961,80.86767,253.53961z"/>
		<path style="fill:none;stroke:#263238;stroke-width:1.03346;stroke-linecap:round;stroke-linejoin:round;" d="
			M116.73926,253.53961h24.53447c2.35727,0,4.26822,1.91092,4.26822,4.26819v24.53448c0,2.35727-1.91093,4.26822-4.26822,4.26822
			h-24.53447c-2.35728,0-4.2682-1.91095-4.2682-4.26822V257.8078C112.47106,255.45053,114.382,253.53961,116.73926,253.53961z"/>
		<path style="fill:none;stroke:#263238;stroke-width:1.03346;stroke-linecap:round;stroke-linejoin:round;" d="
			M152.60054,253.53961h24.53447c2.35725,0,4.26822,1.91092,4.26822,4.26819v24.53448c0,2.35727-1.91096,4.26822-4.26822,4.26822
			h-24.53447c-2.35725,0-4.26822-1.91095-4.26822-4.26822V257.8078C148.33232,255.45053,150.24329,253.53961,152.60054,253.53961z"
			/>
		<path style="fill:none;stroke:#263238;stroke-width:1.03346;stroke-linecap:round;stroke-linejoin:round;" d="
			M188.47212,253.53961h24.53444c2.35727,0,4.26822,1.91092,4.26822,4.26819v24.53448c0,2.35727-1.91093,4.26822-4.26822,4.26822
			h-24.53444c-2.35727,0-4.26822-1.91095-4.26822-4.26822V257.8078C184.2039,255.45053,186.11485,253.53961,188.47212,253.53961z"/>
		<path style="fill:none;stroke:#263238;stroke-width:1.03346;stroke-linecap:round;stroke-linejoin:round;" d="
			M224.34372,253.53961h24.53448c2.35725,0,4.26819,1.91092,4.26819,4.26819v24.53448c0,2.35727-1.91093,4.26822-4.26819,4.26822
			h-24.53448c-2.35725,0-4.26822-1.91095-4.26822-4.26822V257.8078C220.0755,255.45053,221.98647,253.53961,224.34372,253.53961z"/>
		<path style="fill:none;stroke:#263238;stroke-width:1.03346;stroke-linecap:round;stroke-linejoin:round;" d="
			M260.20496,253.53961h24.53448c2.35727,0,4.26822,1.91092,4.26822,4.26819v24.53448c0,2.35727-1.91095,4.26822-4.26822,4.26822
			h-24.53448c-2.35724,0-4.26822-1.91095-4.26822-4.26822V257.8078C255.93674,255.45053,257.84772,253.53961,260.20496,253.53961z"
			/>
		<path style="fill:none;stroke:#263238;stroke-width:1.03346;stroke-linecap:round;stroke-linejoin:round;" d="
			M296.07654,253.53961h24.53448c2.35727,0,4.26822,1.91092,4.26822,4.26819v24.53448c0,2.35727-1.91095,4.26822-4.26822,4.26822
			h-24.53448c-2.35724,0-4.26819-1.91095-4.26819-4.26822V257.8078C291.80835,255.45053,293.7193,253.53961,296.07654,253.53961z"/>
		<path style="fill:none;stroke:#263238;stroke-width:1.03346;stroke-linecap:round;stroke-linejoin:round;" d="
			M331.94818,253.53961h24.53445c2.3573,0,4.26822,1.91092,4.26822,4.26819v24.53448c0,2.35727-1.91092,4.26822-4.26822,4.26822
			h-24.53445c-2.3573,0-4.26822-1.91095-4.26822-4.26822V257.8078C327.67996,255.45053,329.59088,253.53961,331.94818,253.53961z"/>
		<path style="fill:none;stroke:#263238;stroke-width:1.03346;stroke-linecap:round;stroke-linejoin:round;" d="
			M367.80942,253.53961h24.53445c2.3573,0,4.26822,1.91092,4.26822,4.26819v24.53448c0,2.35727-1.91092,4.26822-4.26822,4.26822
			h-24.53445c-2.3573,0-4.26822-1.91095-4.26822-4.26822V257.8078C363.5412,255.45053,365.45212,253.53961,367.80942,253.53961z"/>
		<path style="fill:none;stroke:#263238;stroke-width:1.03346;stroke-linecap:round;stroke-linejoin:round;" d="M403.681,253.53961
			h24.53448c2.35727,0,4.26822,1.91092,4.26822,4.26819v24.53448c0,2.35727-1.91095,4.26822-4.26822,4.26822H403.681
			c-2.35724,0-4.26822-1.91095-4.26822-4.26822V257.8078C399.41278,255.45053,401.32376,253.53961,403.681,253.53961z"/>
		<path style="fill:none;stroke:#263238;stroke-width:1.03346;stroke-linecap:round;stroke-linejoin:round;" d="
			M439.55261,253.53961h24.53448c2.35724,0,4.26819,1.91092,4.26819,4.26819v24.53448c0,2.35727-1.91095,4.26822-4.26819,4.26822
			h-24.53448c-2.35727,0-4.26822-1.91095-4.26822-4.26822V257.8078C435.28439,255.45053,437.19534,253.53961,439.55261,253.53961z"
			/>
		<path style="fill:none;stroke:#263238;stroke-width:1.03346;stroke-linecap:round;stroke-linejoin:round;" d="M44.99609,288.88416
			h24.53447c2.35728,0,4.2682,1.91092,4.2682,4.26819v24.53445c0,2.3573-1.91094,4.26822-4.2682,4.26822H44.99609
			c-2.35728,0-4.2682-1.91092-4.2682-4.26822v-24.53445C40.72787,290.79507,42.63882,288.88416,44.99609,288.88416z"/>
		<path style="fill:none;stroke:#263238;stroke-width:1.03346;stroke-linecap:round;stroke-linejoin:round;" d="M80.86767,288.88416
			h24.53448c2.35728,0,4.2682,1.91092,4.2682,4.26819v24.53445c0,2.3573-1.91094,4.26822-4.2682,4.26822H80.86767
			c-2.35728,0-4.2682-1.91092-4.2682-4.26822v-24.53445C76.59946,290.79507,78.51041,288.88416,80.86767,288.88416z"/>
		<path style="fill:none;stroke:#263238;stroke-width:1.03346;stroke-linecap:round;stroke-linejoin:round;" d="
			M116.73926,288.88416h24.53447c2.35727,0,4.26822,1.91092,4.26822,4.26819v24.53445c0,2.3573-1.91093,4.26822-4.26822,4.26822
			h-24.53447c-2.35728,0-4.2682-1.91092-4.2682-4.26822v-24.53445C112.47106,290.79507,114.382,288.88416,116.73926,288.88416z"/>
		<path style="fill:none;stroke:#263238;stroke-width:1.03346;stroke-linecap:round;stroke-linejoin:round;" d="
			M152.60054,288.88416h24.53447c2.35725,0,4.26822,1.91092,4.26822,4.26819v24.53445c0,2.3573-1.91096,4.26822-4.26822,4.26822
			h-24.53447c-2.35725,0-4.26822-1.91092-4.26822-4.26822v-24.53445C148.33232,290.79507,150.24329,288.88416,152.60054,288.88416z"
			/>
		<path style="fill:none;stroke:#263238;stroke-width:1.03346;stroke-linecap:round;stroke-linejoin:round;" d="
			M188.47212,288.88416h24.53444c2.35727,0,4.26822,1.91092,4.26822,4.26819v24.53445c0,2.3573-1.91093,4.26822-4.26822,4.26822
			h-24.53444c-2.35727,0-4.26822-1.91092-4.26822-4.26822v-24.53445C184.2039,290.79507,186.11485,288.88416,188.47212,288.88416z"
			/>
		<path style="fill:none;stroke:#263238;stroke-width:1.03346;stroke-linecap:round;stroke-linejoin:round;" d="
			M224.34372,288.88416h24.53448c2.35725,0,4.26819,1.91092,4.26819,4.26819v24.53445c0,2.3573-1.91093,4.26822-4.26819,4.26822
			h-24.53448c-2.35725,0-4.26822-1.91092-4.26822-4.26822v-24.53445C220.0755,290.79507,221.98647,288.88416,224.34372,288.88416z"
			/>
		<path style="fill:none;stroke:#263238;stroke-width:1.03346;stroke-linecap:round;stroke-linejoin:round;" d="
			M260.20496,288.88416h24.53448c2.35727,0,4.26822,1.91092,4.26822,4.26819v24.53445c0,2.3573-1.91095,4.26822-4.26822,4.26822
			h-24.53448c-2.35724,0-4.26822-1.91092-4.26822-4.26822v-24.53445C255.93674,290.79507,257.84772,288.88416,260.20496,288.88416z"
			/>
		<path style="fill:none;stroke:#263238;stroke-width:1.03346;stroke-linecap:round;stroke-linejoin:round;" d="
			M296.07654,288.88416h24.53448c2.35727,0,4.26822,1.91092,4.26822,4.26819v24.53445c0,2.3573-1.91095,4.26822-4.26822,4.26822
			h-24.53448c-2.35724,0-4.26819-1.91092-4.26819-4.26822v-24.53445C291.80835,290.79507,293.7193,288.88416,296.07654,288.88416z"
			/>
		<path style="fill:none;stroke:#263238;stroke-width:1.03346;stroke-linecap:round;stroke-linejoin:round;" d="
			M331.94818,288.88416h24.53445c2.3573,0,4.26822,1.91092,4.26822,4.26819v24.53445c0,2.3573-1.91092,4.26822-4.26822,4.26822
			h-24.53445c-2.3573,0-4.26822-1.91092-4.26822-4.26822v-24.53445C327.67996,290.79507,329.59088,288.88416,331.94818,288.88416z"
			/>
		<path style="fill:none;stroke:#263238;stroke-width:1.03346;stroke-linecap:round;stroke-linejoin:round;" d="
			M367.80942,288.88416h24.53445c2.3573,0,4.26822,1.91092,4.26822,4.26819v24.53445c0,2.3573-1.91092,4.26822-4.26822,4.26822
			h-24.53445c-2.3573,0-4.26822-1.91092-4.26822-4.26822v-24.53445C363.5412,290.79507,365.45212,288.88416,367.80942,288.88416z"/>
		<path style="fill:none;stroke:#263238;stroke-width:1.03346;stroke-linecap:round;stroke-linejoin:round;" d="M403.681,288.88416
			h24.53448c2.35727,0,4.26822,1.91092,4.26822,4.26819v24.53445c0,2.3573-1.91095,4.26822-4.26822,4.26822H403.681
			c-2.35724,0-4.26822-1.91092-4.26822-4.26822v-24.53445C399.41278,290.79507,401.32376,288.88416,403.681,288.88416z"/>
		<path style="fill:none;stroke:#263238;stroke-width:1.03346;stroke-linecap:round;stroke-linejoin:round;" d="
			M439.55261,288.88416h24.53448c2.35724,0,4.26819,1.91092,4.26819,4.26819v24.53445c0,2.3573-1.91095,4.26822-4.26819,4.26822
			h-24.53448c-2.35727,0-4.26822-1.91092-4.26822-4.26822v-24.53445C435.28439,290.79507,437.19534,288.88416,439.55261,288.88416z"
			/>
		
			<line style="fill:none;stroke:#263238;stroke-width:1.03346;stroke-linecap:round;stroke-linejoin:round;" x1="114.87904" y1="167.66895" x2="114.87904" y2="8.19488"/>
		
			<rect x="119.78799" y="123.79833" style="fill:#263238;stroke:#263238;stroke-width:1.03346;stroke-linecap:round;stroke-linejoin:round;" width="5.67373" height="33.02955"/>
		
			<rect x="104.30669" y="123.79833" style="fill:#263238;stroke:#263238;stroke-width:1.03346;stroke-linecap:round;stroke-linejoin:round;" width="5.67372" height="33.02955"/>
		
			<line style="fill:none;stroke:#263238;stroke-width:2.06693;stroke-linecap:round;stroke-linejoin:round;" x1="39.02267" y1="167.66895" x2="466.84644" y2="167.66895"/>
		
			<line style="fill:none;stroke:#263238;stroke-width:1.03346;stroke-linecap:round;stroke-linejoin:round;" x1="369.82468" y1="167.66895" x2="369.82468" y2="8.19488"/>
		
			<rect x="360.53378" y="123.79833" style="fill:#263238;stroke:#263238;stroke-width:1.03346;stroke-linecap:round;stroke-linejoin:round;" width="5.67373" height="33.02955"/>
		
			<rect x="374.21692" y="123.79833" style="fill:#263238;stroke:#263238;stroke-width:1.03346;stroke-linecap:round;stroke-linejoin:round;" width="5.67373" height="33.02955"/>
	</g>
	<g id="freepik--Dishes--inject-64">
		<path style="fill:#FFFFFF;stroke:#263238;stroke-width:1.03346;stroke-linecap:round;stroke-linejoin:round;" d="
			M39.51873,370.05252h6.2008l0,0v5.46704c-0.00002,1.6153-1.30944,2.92471-2.92471,2.92471h-0.35137
			c-1.61526,0-2.9247-1.30942-2.9247-2.92471v-5.46704H39.51873z"/>
		<path style="fill:#FFFFFF;stroke:#263238;stroke-width:1.03346;stroke-linecap:round;stroke-linejoin:round;" d="
			M96.10097,370.05252h6.2008l0,0v5.46704c0,1.6153-1.30945,2.92471-2.92471,2.92471h-0.36172
			c-1.61526,0-2.92471-1.30942-2.92471-2.92471v-5.46704H96.10097z"/>
		<polygon style="fill:#FFFFFF;stroke:#263238;stroke-width:1.03346;stroke-linecap:round;stroke-linejoin:round;" points="
			105.78454,367.68588 36.14963,367.68588 61.2835,338.5835 121.83426,338.5835 		"/>
		
			<rect x="36.14963" y="367.68588" style="fill:#FFFFFF;stroke:#263238;stroke-width:1.03346;stroke-linecap:round;stroke-linejoin:round;" width="69.3042" height="5.67373"/>
		<polygon style="fill:#FFFFFF;stroke:#263238;stroke-width:1.03346;stroke-linecap:round;stroke-linejoin:round;" points="
			105.45383,367.68588 121.83426,338.5835 121.83426,344.7016 105.45383,373.35959 		"/>
		<path style="fill:#263238;stroke:#263238;stroke-width:1.03346;stroke-linecap:round;stroke-linejoin:round;" d="
			M60.16737,340.95013v7.68896c0,2.72839,5.31202,4.92966,11.86419,4.92966c6.55217,0,11.86419-2.20132,11.86419-4.92966v-7.68896
			H60.16737z"/>
		
			<ellipse style="fill:#FFFFFF;stroke:#263238;stroke-width:1.03346;stroke-linecap:round;stroke-linejoin:round;" cx="72.03156" cy="340.95013" rx="11.86419" ry="4.92961"/>
		
			<ellipse style="fill:#FFCF30;stroke:#263238;stroke-width:1.03346;stroke-linecap:round;stroke-linejoin:round;" cx="72.03156" cy="340.95013" rx="5.63239" ry="2.33564"/>
		<path style="fill:#263238;stroke:#263238;stroke-width:1.03346;stroke-linecap:round;stroke-linejoin:round;" d="
			M89.83817,342.2316v7.689c0,2.72839,5.30167,4.92963,11.85385,4.92963s11.86418-2.20126,11.86418-4.92963v-7.689H89.83817z"/>
		
			<ellipse style="fill:#FFFFFF;stroke:#263238;stroke-width:1.03346;stroke-linecap:round;stroke-linejoin:round;" cx="101.692" cy="342.2316" rx="11.86419" ry="4.92961"/>
		
			<ellipse style="fill:#FFCF30;stroke:#263238;stroke-width:1.03346;stroke-linecap:round;stroke-linejoin:round;" cx="101.692" cy="342.2316" rx="5.63239" ry="2.33564"/>
		<path style="fill:#263238;stroke:#263238;stroke-width:1.03346;stroke-linecap:round;stroke-linejoin:round;" d="
			M69.63391,351.53281v7.689c0,2.72836,5.31201,4.92963,11.86419,4.92963c6.55219,0,11.85385-2.20132,11.85385-4.92963v-7.689
			H69.63391z"/>
		
			<ellipse style="fill:#FFFFFF;stroke:#263238;stroke-width:1.03346;stroke-linecap:round;stroke-linejoin:round;" cx="81.49809" cy="351.53281" rx="11.86418" ry="4.92961"/>
		<path style="fill:#FFCF30;stroke:#263238;stroke-width:1.03346;stroke-linecap:round;stroke-linejoin:round;" d="
			M87.13049,351.53281c0,1.29184-2.52165,2.33563-5.63239,2.33563c-3.11073,0-5.63237-1.03345-5.63237-2.33563
			s2.52164-2.34595,5.63237-2.34595C84.60883,349.18686,87.13049,350.24097,87.13049,351.53281z"/>
		<polygon style="fill:#FFFFFF;stroke:#263238;stroke-width:1.03346;stroke-linecap:round;stroke-linejoin:round;" points="
			347.64648,370.84827 144.88055,370.84827 155.01883,341.74591 337.50821,341.74591 		"/>
		
			<rect x="144.88055" y="370.84827" style="fill:#FFFFFF;stroke:#263238;stroke-width:1.03346;stroke-linecap:round;stroke-linejoin:round;" width="202.43526" height="5.67373"/>
		<path style="fill:#263238;stroke:#263238;stroke-width:1.03346;stroke-linecap:round;stroke-linejoin:round;" d="
			M238.20247,339.20358c-1.33388-0.59424-2.77696-0.90393-4.23721-0.90948h-55.80714
			c-6.38689-0.00571-11.56908,5.1673-11.5748,11.55417c0,0.0069,0,0.01379,0,0.02069v6.31445
			c0,1.21002,0.98093,2.19095,2.19095,2.19095h69.46954L238.20247,339.20358z"/>
		<path style="fill:#FFFFFF;stroke:#263238;stroke-width:1.03346;stroke-linecap:round;stroke-linejoin:round;" d="
			M238.20247,348.54611c0,5.42569-0.50639,9.82828-1.13681,9.82828s-1.14714-4.40259-1.14714-9.82828
			c0-5.42572,0.51672-9.82828,1.14714-9.82828S238.20247,343.12039,238.20247,348.54611z"/>
		<path style="fill:#4A4A4A;" d="M206.12372,338.2941h-2.22194c-0.71896,6.66785-0.99863,13.37573-0.8371,20.08026h2.20128
			C205.10397,351.66931,205.39053,344.96094,206.12372,338.2941z"/>
		<path style="fill:#4A4A4A;" d="M186.62222,358.37436v-11.68851c0.17735-2.88568,0.83398-5.72171,1.94293-8.39175h-2.34599
			c-1.04541,2.68231-1.6492,5.5163-1.78786,8.39175v11.68851H186.62222z"/>
		<rect x="222.75217" y="338.2941" style="fill:#4A4A4A;" width="2.19095" height="20.08023"/>
		<path style="fill:#FFFFFF;stroke:#263238;stroke-width:1.03346;stroke-linecap:round;stroke-linejoin:round;" d="
			M378.67114,384.52106v6.55215l42.27908,2.06696c3.3063,0.1655,6.12079-2.38062,6.28629-5.68692
			c0.00516-0.10229,0.00763-0.20474,0.00751-0.30719v-1.13681c0.00119-3.31616-2.6861-6.0054-6.00226-6.00662
			c-0.2113-0.00009-0.42245,0.01102-0.6326,0.0332L378.67114,384.52106z"/>
		<path style="fill:#263238;stroke:#263238;stroke-width:1.03346;stroke-linecap:round;stroke-linejoin:round;" d="
			M380.73807,382.80548l1.03348,17.22787c0,0-60.29239-0.69241-103.34656-12.40158L380.73807,382.80548z"/>
		<path style="fill:#FFFFFF;stroke:#263238;stroke-width:1.03346;stroke-linecap:round;stroke-linejoin:round;" d="
			M293.70993,386.93936l-15.28494,0.72342c43.05417,11.70917,103.34656,12.40158,103.34656,12.40158l-0.56839-9.51819
			C345.51755,393.45016,309.56329,389.2233,293.70993,386.93936z"/>
		<path style="fill:#263238;stroke:#FFFFFF;stroke-width:1.03346;stroke-linecap:round;stroke-linejoin:round;" d="
			M415.91727,367.3035c0,2.38733-6.45917,4.31992-14.46854,4.31992s-14.46851-1.93259-14.46851-4.31992
			c0-2.3873,6.45914-4.31989,14.46851-4.31989S415.91727,364.93686,415.91727,367.3035z"/>
		<path style="fill:#263238;stroke:#FFFFFF;stroke-width:1.03346;stroke-linecap:round;stroke-linejoin:round;" d="
			M376.57321,349.27988c0,0-0.22736,5.75641,7.23425,13.99313c4.05121,3.86514,10.33466,5.82877,17.17618,5.82877
			c7.38928,0,13.93115-1.59155,16.78351-4.91931c0,0,3.53445-2.73868,8.63974-14.90259H376.57321z"/>
		
			<ellipse style="fill:#263238;stroke:#FFFFFF;stroke-width:1.03346;stroke-linecap:round;stroke-linejoin:round;" cx="401.49005" cy="349.27988" rx="24.91684" ry="7.45129"/>
		<path style="fill:#263238;stroke:#FFFFFF;stroke-width:1.03346;stroke-linecap:round;stroke-linejoin:round;" d="
			M87.32684,405.98611c0,2.37698-6.45917,4.30957-14.46851,4.30957s-14.46852-1.93256-14.46852-4.30957
			c0-2.37698,6.45917-4.31989,14.46852-4.31989S87.32684,403.59882,87.32684,405.98611z"/>
		<path style="fill:#263238;stroke:#FFFFFF;stroke-width:1.03346;stroke-linecap:round;stroke-linejoin:round;" d="
			M47.99315,387.97281c0,0-0.22737,5.76672,7.23426,14.00345c4.05119,3.86517,10.33466,5.8288,17.1762,5.8288
			c7.39961,0,13.94145-1.59155,16.79382-4.91934c0,0,3.52413-2.74899,8.62945-14.9129H47.99315z"/>
		
			<ellipse style="fill:#263238;stroke:#FFFFFF;stroke-width:1.03346;stroke-linecap:round;stroke-linejoin:round;" cx="72.89967" cy="387.93149" rx="24.91685" ry="7.45129"/>
		
			<ellipse style="fill:#FFFFFF;stroke:#263238;stroke-width:1.03346;stroke-linecap:round;stroke-linejoin:round;" cx="243.34915" cy="444.52408" rx="90.43859" ry="47.28105"/>
		
			<ellipse style="fill:#FFFFFF;stroke:#263238;stroke-width:1.03346;stroke-linecap:round;stroke-linejoin:round;" cx="243.34915" cy="441.87839" rx="102.26141" ry="47.28107"/>
		
			<ellipse style="fill:#FFFFFF;stroke:#263238;stroke-width:1.03346;stroke-linecap:round;stroke-linejoin:round;" cx="243.34915" cy="439.23273" rx="102.26141" ry="47.28105"/>
		
			<ellipse style="fill:#FFFFFF;stroke:#263238;stroke-width:0.51674;stroke-linecap:round;stroke-linejoin:round;" cx="243.34915" cy="439.23273" rx="77.29292" ry="35.73721"/>
		<path style="fill:#FFFFFF;stroke:#263238;stroke-width:1.03346;stroke-linecap:round;stroke-linejoin:round;" d="
			M272.9166,433.04224c0,0,17.20718-15.88434,43.0025-16.53546c25.79532-0.65109,27.77957,14.56152,25.83667,18.53006
			c-1.94293,3.96851-11.90555,1.98425-23.14966,4.62991c-11.24408,2.64566-39.8504,6.32483-44.72836,2.50101
			C268.99976,438.34396,270.93234,435.68793,272.9166,433.04224z"/>
		<path style="fill:none;stroke:#263238;stroke-width:1.03346;stroke-linecap:round;stroke-linejoin:round;" d="
			M301.24387,426.81046c0,0,7.45129,2.49066,10.5517,9.30118"/>
		<path style="fill:none;stroke:#263238;stroke-width:1.03346;stroke-linecap:round;stroke-linejoin:round;" d="
			M311.48553,425.57031c3.91641,1.72803,7.17615,4.66541,9.30118,8.38141"/>
		<path style="fill:none;stroke:#263238;stroke-width:1.03346;stroke-linecap:round;stroke-linejoin:round;" d="
			M322.34726,423.11066c0,0,5.90109,1.8602,10.87207,10.55167"/>
		<path style="fill:none;stroke:#263238;stroke-width:1.03346;stroke-linecap:round;stroke-linejoin:round;" d="M279.5101,433.02158
			c0,0,21.11371-13.01132,40.66687-12.10187"/>
		<path style="fill:#FFFFFF;stroke:#263238;stroke-width:1.03346;stroke-linecap:round;stroke-linejoin:round;" d="
			M273.22665,418.62543c2.94382,1.61688,6.53867,1.48181,9.35284-0.35138c3.68948-2.30466,10.76871-5.78741,21.43408-7.06891
			c16.53543-1.98428,14.55118-9.9213,5.95276-13.22833c-8.59842-3.3071-25.83664-2.64569-32.40948,4.62994
			C272.22418,408.46643,267.32553,415.19431,273.22665,418.62543z"/>
		<path style="fill:none;stroke:#263238;stroke-width:1.03346;stroke-linecap:round;stroke-linejoin:round;" d="
			M277.33981,413.15836c0,0,6.83121-13.35236,22.35388-13.35236"/>
		<path style="fill:none;stroke:#263238;stroke-width:1.03346;stroke-linecap:round;stroke-linejoin:round;" d="
			M285.10114,404.77698c4.21252,0.51929,8.24805,2.00476,11.79187,4.34058"/>
		<path style="fill:none;stroke:#263238;stroke-width:1.03346;stroke-linecap:round;stroke-linejoin:round;" d="
			M299.38367,401.66623c3.31174,0.85977,6.38797,2.45267,9.00146,4.66095"/>
		<path style="fill:none;stroke:#263238;stroke-width:1.03346;stroke-linecap:round;stroke-linejoin:round;" d="
			M281.07065,409.42758c0,0,5.58072,1.55017,6.82089,3.1004"/>
		<path style="fill:#FFFFFF;stroke:#263238;stroke-width:1.03346;stroke-linecap:round;stroke-linejoin:round;" d="
			M259.68823,409.88229c0,0,1.98428-9.30118-4.62991-15.87399c-6.61418-6.57285-24.47247-5.95279-27.77956-0.66144
			c-3.30708,5.29132,12.56694,7.93698,12.56694,15.21262c0,7.2756,7.23427,13.90012,13.88979,11.25446
			C260.39102,417.16824,259.68823,409.88229,259.68823,409.88229z"/>
		<path style="fill:none;stroke:#263238;stroke-width:1.03346;stroke-linecap:round;stroke-linejoin:round;" d="
			M245.37473,392.97479c-4.22148-0.23621-8.4229,0.73532-12.1122,2.80066"/>
		<path style="fill:none;stroke:#263238;stroke-width:1.03346;stroke-linecap:round;stroke-linejoin:round;" d="M248.1651,398.56586
			c0,0-6.83121-0.62009-10.86171,1.24014"/>
		<path style="fill:none;stroke:#263238;stroke-width:1.03346;stroke-linecap:round;stroke-linejoin:round;" d="
			M249.40524,404.15689c0,0-5.28101,0.62009-7.14122,1.86023"/>
		<path style="fill:#FFFFFF;stroke:#263238;stroke-width:1.03346;stroke-linecap:round;stroke-linejoin:round;" d="
			M227.78517,418.62543c-2.92944,1.60077-6.5009,1.46585-9.30118-0.35138c-3.68948-2.30466-10.77907-5.78741-21.4341-7.06891
			c-16.53545-1.98428-14.56152-9.9213-5.95276-13.22833c8.60878-3.3071,25.83662-2.64569,32.40948,4.62994
			C228.79797,408.46643,233.69659,415.19431,227.78517,418.62543z"/>
		<path style="fill:none;stroke:#263238;stroke-width:1.03346;stroke-linecap:round;stroke-linejoin:round;" d="
			M199.42688,401.66623c0,0,9.30118-3.10037,14.90257-2.17029"/>
		<path style="fill:none;stroke:#263238;stroke-width:1.03346;stroke-linecap:round;stroke-linejoin:round;" d="M210.2989,403.5368
			c3.22171-1.08456,6.70992-1.08456,9.93161,0"/>
		<path style="fill:none;stroke:#263238;stroke-width:1.03346;stroke-linecap:round;stroke-linejoin:round;" d="M214.94951,408.8075
			c0.9301,0,5.28102-1.24017,9.30118,0"/>
		<path style="fill:#FFFFFF;stroke:#263238;stroke-width:1.03346;stroke-linecap:round;stroke-linejoin:round;" d="
			M146.55476,429.73517c0,0,17.19687-15.88437,42.99217-16.53543c25.79532-0.65112,27.78989,14.56152,25.83664,18.53
			c-1.95325,3.96851-11.90555,1.98428-23.15999,4.62994c-11.25443,2.64569-39.84009,6.3248-44.72838,2.50101
			S144.59119,432.41183,146.55476,429.73517z"/>
		<path style="fill:none;stroke:#263238;stroke-width:1.03346;stroke-linecap:round;stroke-linejoin:round;" d="
			M152.55922,432.71158c0,0,0.31003-4.97098,9.62155-10.5517"/>
		<path style="fill:none;stroke:#263238;stroke-width:1.03346;stroke-linecap:round;stroke-linejoin:round;" d="
			M163.42093,428.98074c0,0,1.24017-4.6506,9.30119-10.5517"/>
		<path style="fill:none;stroke:#263238;stroke-width:1.03346;stroke-linecap:round;stroke-linejoin:round;" d="
			M174.90269,425.88031c0,0,2.06694-7.17224,8.38142-9.93158"/>
		<path style="fill:none;stroke:#263238;stroke-width:1.03346;stroke-linecap:round;stroke-linejoin:round;" d="M191.3555,415.63867
			c0,0-3.72049,3.10043-4.65059,5.90109"/>
		
			<ellipse style="fill:#FFFFFF;stroke:#263238;stroke-width:1.03346;stroke-linecap:round;stroke-linejoin:round;" cx="249.59126" cy="425.43594" rx="25.16488" ry="13.55904"/>
		
			<ellipse style="fill:#FFFFFF;stroke:#263238;stroke-width:1.03346;stroke-linecap:round;stroke-linejoin:round;" cx="249.59129" cy="421.90149" rx="27.12849" ry="13.55904"/>
		
			<ellipse style="fill:#263238;stroke:#263238;stroke-width:1.03346;stroke-linecap:round;stroke-linejoin:round;" cx="249.59126" cy="424.84686" rx="21.62009" ry="10.61367"/>
		<path style="fill:#263238;stroke:#263238;stroke-width:1.03346;stroke-linecap:round;stroke-linejoin:round;" d="
			M186.00212,428.13327v11.6575c0,4.13385,6.78987,7.47198,15.17128,7.47198s15.17128-3.34845,15.17128-7.47198v-11.6575H186.00212z
			"/>
		
			<ellipse style="fill:#FFFFFF;stroke:#263238;stroke-width:1.03346;stroke-linecap:round;stroke-linejoin:round;" cx="201.1734" cy="428.13327" rx="15.17126" ry="7.46163"/>
		
			<ellipse style="fill:#FFCF30;stroke:#263238;stroke-width:1.03346;stroke-linecap:round;stroke-linejoin:round;" cx="201.1734" cy="428.13327" rx="7.20326" ry="3.54479"/>
		<path style="fill:#263238;stroke:#263238;stroke-width:1.03346;stroke-linecap:round;stroke-linejoin:round;" d="
			M162.5528,439.91483v11.65747c0,4.13388,6.78987,7.47198,15.16092,7.47198c8.37108,0,15.17128-3.34842,15.17128-7.47198v-11.65747
			H162.5528z"/>
		
			<ellipse style="fill:#FFFFFF;stroke:#263238;stroke-width:1.03346;stroke-linecap:round;stroke-linejoin:round;" cx="177.71375" cy="439.91483" rx="15.17126" ry="7.46163"/>
		<path style="fill:#FFCF30;stroke:#263238;stroke-width:1.03346;stroke-linecap:round;stroke-linejoin:round;" d="
			M184.91699,439.91483c0,1.96356-3.2244,3.54477-7.23425,3.54477s-7.23427-1.58121-7.23427-3.54477
			c0-1.96359,3.22441-3.5448,7.23427-3.5448S184.91699,437.96155,184.91699,439.91483z"/>
		<path style="fill:#263238;stroke:#263238;stroke-width:1.03346;stroke-linecap:round;stroke-linejoin:round;" d="
			M212.07648,441.45465v11.6265c0,4.13385,6.78986,7.46164,15.16092,7.46164s15.1713-3.32779,15.1713-7.46164v-11.6265H212.07648z"
			/>
		
			<ellipse style="fill:#FFFFFF;stroke:#263238;stroke-width:1.03346;stroke-linecap:round;stroke-linejoin:round;" cx="227.23744" cy="441.45465" rx="15.17126" ry="7.46163"/>
		<path style="fill:#FFCF30;stroke:#263238;stroke-width:1.03346;stroke-linecap:round;stroke-linejoin:round;" d="
			M234.39934,441.45465c0,1.95328-3.22441,3.5448-7.23424,3.5448c-4.00986,0-7.23427-1.59155-7.23427-3.5448
			c0-1.95322,3.23477-3.54477,7.23427-3.54477C231.16458,437.90988,234.39934,439.49109,234.39934,441.45465z"/>
		<path style="fill:#263238;stroke:#263238;stroke-width:1.03346;stroke-linecap:round;stroke-linejoin:round;" d="
			M273.83636,442.15741v11.65747c0,4.13388,6.78989,7.47198,15.1713,7.47198c8.38138,0,15.16095-3.34839,15.16095-7.47198v-11.65747
			H273.83636z"/>
		<path style="fill:#FFFFFF;stroke:#263238;stroke-width:1.03346;stroke-linecap:round;stroke-linejoin:round;" d="
			M304.16861,442.15741c0,4.13385-6.78986,7.46164-15.16095,7.46164s-15.1713-3.33813-15.1713-7.46164
			c0-4.12354,6.78989-7.46161,15.1713-7.46161C297.38904,434.6958,304.16861,438.03387,304.16861,442.15741z"/>
		<path style="fill:#FFCF30;stroke:#263238;stroke-width:1.03346;stroke-linecap:round;stroke-linejoin:round;" d="
			M296.20056,442.15741c0,1.95325-3.2244,3.54477-7.23425,3.54477s-7.23428-1.59152-7.23428-3.54477
			s3.22443-3.54477,7.23428-3.54477S296.20056,440.20416,296.20056,442.15741z"/>
		<path style="fill:#263238;stroke:#263238;stroke-width:1.03346;stroke-linecap:round;stroke-linejoin:round;" d="
			M188.78217,452.41974v11.65747c0,4.13388,6.78986,7.46161,15.17128,7.46161c8.38141,0,15.16095-3.33807,15.16095-7.46161
			v-11.65747H188.78217z"/>
		
			<ellipse style="fill:#FFFFFF;stroke:#263238;stroke-width:1.03346;stroke-linecap:round;stroke-linejoin:round;" cx="203.95343" cy="452.41974" rx="15.17128" ry="7.46163"/>
		
			<ellipse style="fill:#FFCF30;stroke:#263238;stroke-width:1.03346;stroke-linecap:round;stroke-linejoin:round;" cx="203.95343" cy="452.41974" rx="7.20326" ry="3.54479"/>
		<path style="fill:#263238;stroke:#263238;stroke-width:1.03346;stroke-linecap:round;stroke-linejoin:round;" d="
			M244.03125,448.48224v11.65747c0,4.13388,6.78987,7.47195,15.17126,7.47195c8.38138,0,15.17126-3.34839,15.17126-7.47195
			v-11.65747H244.03125z"/>
		
			<ellipse style="fill:#FFFFFF;stroke:#263238;stroke-width:1.03346;stroke-linecap:round;stroke-linejoin:round;" cx="259.20251" cy="448.48224" rx="15.17125" ry="7.46163"/>
		
			<ellipse style="fill:#FFCF30;stroke:#263238;stroke-width:1.03346;stroke-linecap:round;stroke-linejoin:round;" cx="259.20251" cy="448.48224" rx="7.20325" ry="3.54479"/>
		<path style="fill:#263238;stroke:#263238;stroke-width:1.03346;stroke-linecap:round;stroke-linejoin:round;" d="
			M222.74182,459.80902v11.66782c0,4.13385,6.78987,7.46164,15.1713,7.46164s15.17125-3.33813,15.17125-7.46164v-11.66782H222.74182
			z"/>
		
			<ellipse style="fill:#FFFFFF;stroke:#263238;stroke-width:1.03346;stroke-linecap:round;stroke-linejoin:round;" cx="237.91312" cy="459.80902" rx="15.17125" ry="7.46163"/>
		
			<ellipse style="fill:#FFCF30;stroke:#263238;stroke-width:1.03346;stroke-linecap:round;stroke-linejoin:round;" cx="237.91312" cy="459.80902" rx="7.20325" ry="3.54479"/>
	</g>
	<g id="freepik--Table--inject-64">
		
			<line style="fill:none;stroke:#263238;stroke-width:1.03346;stroke-linecap:round;stroke-linejoin:round;" x1="500" y1="335.00769" x2="0.43306" y2="335.00769"/>
	</g>
	<g id="freepik--Character--inject-64">
		<path style="fill:#263238;stroke:#263238;stroke-width:1.03346;stroke-linecap:round;stroke-linejoin:round;" d="
			M250.58342,152.68372c0,0-29.55711,9.12547-49.60635,14.60287c-20.04922,5.47736-28.47198,16.43208-31.00397,20.44194
			c-2.532,4.00986-29.61914,54.39128-29.61914,54.39128l47.0847,28.47195l-11.68849,63.46515h151.55772l6.50049-72.96271
			l3.79285,16.13239l57.53305-1.16782c0,0-9.10483-53.63686-15.6777-71.15413c-6.57285-17.51726-18.25101-22.9946-34.67273-30.30121
			c-16.42175-7.30661-56.96469-21.22733-63.87854-22.64316C273.99139,150.54445,250.58342,152.68372,250.58342,152.68372z"/>
		
			<line style="fill:none;stroke:#737373;stroke-width:1.03346;stroke-linecap:round;stroke-linejoin:round;" x1="183.05676" y1="267.30536" x2="199.48888" y2="229.70789"/>
		
			<line style="fill:none;stroke:#737373;stroke-width:1.03346;stroke-linecap:round;stroke-linejoin:round;" x1="333.80838" y1="261.09427" x2="328.42404" y2="243.82504"/>
		<polygon style="fill:#FFFFFF;stroke:#263238;stroke-width:1.03346;stroke-linecap:round;stroke-linejoin:round;" points="
			254.14886,192.11041 276.048,238.64737 290.55786,196.49231 		"/>
		<path style="fill:#FFCF30;stroke:#263238;stroke-width:1.03346;stroke-linecap:round;stroke-linejoin:round;" d="
			M264.10114,197.25708l14.8819,39.50938L259.7709,270.9845c0,0-2.92468-27.28349-9.30119-50.63982
			c-6.3765-23.35631-5.62207-56.35486-4.27856-68.53944L264.10114,197.25708z"/>
		<path style="fill:#FFCF30;stroke:#263238;stroke-width:1.03346;stroke-linecap:round;stroke-linejoin:round;" d="
			M284.53275,196.12027c0,0-37.50446,102.80914-76.1974,138.57736h29.16443c0,0,41.52461-61.91492,57.95674-97.69348
			c10.00183-22.15996,16.17303-45.8557,18.25104-70.0793L284.53275,196.12027z"/>
		<path style="fill:#FFFFFF;stroke:#263238;stroke-width:1.03346;stroke-linecap:round;stroke-linejoin:round;" d="
			M247.04895,135.80721c0,0-2.43898-5.68405-6.7692-2.70767s-2.15994,15.16092,0,20.56596
			c2.15994,5.40501,7.58563,5.96309,7.58563,2.70767C247.86539,153.11774,247.04895,135.80721,247.04895,135.80721z"/>
		<path style="fill:#FFFFFF;stroke:#263238;stroke-width:1.03346;stroke-linecap:round;stroke-linejoin:round;" d="
			M319.7016,142.3904c0,0,3.1004-5.32234,7.05856-1.80858c3.95816,3.51381,0.186,15.30563-2.66632,20.39029
			c-2.85236,5.08464-8.26773,4.91928-7.86469,1.70518C316.63223,159.46321,319.7016,142.3904,319.7016,142.3904z"/>
		<path style="fill:#263238;stroke:#263238;stroke-width:1.03346;stroke-linecap:round;stroke-linejoin:round;" d="
			M251.37917,117.65956c0,0-1.3125,46.50597-1.3125,56.56158c0,10.0556,3.10039,25.44392,16.39076,33.28793
			s25.15457,0.27904,31.27267-7.84401c6.11813-8.12303,16.18408-48.18016,16.18408-59.00055
			c0-10.82037-1.3125-30.85928-13.99313-40.30515c-9.97296-7.4513-31.27271-8.12304-40.23282,2.70769
			C252.88803,111.25206,251.37917,117.65956,251.37917,117.65956z"/>
		<path style="fill:#FFFFFF;stroke:#263238;stroke-width:1.03346;stroke-linecap:round;stroke-linejoin:round;" d="
			M246.23253,110.64232c0,0-1.62256,46.50595-1.62256,56.57191s3.7928,25.44392,20.29726,33.28795
			c16.50446,7.84401,31.12799,0.26868,38.70331-7.84401c7.57532-8.1127,20.02856-48.18016,20.02856-59.01088
			s-1.62256-30.84895-17.32089-40.30516c-12.33957-7.44094-38.70328-8.1127-49.79236,2.70769
			C248.11342,104.23484,246.23253,110.64232,246.23253,110.64232z"/>
		<path style="fill:none;stroke:#263238;stroke-width:1.03346;stroke-linecap:round;stroke-linejoin:round;" d="M291.1676,162.884
			c0,0,8.66043-5.16733,16.77316-1.35384"/>
		<path style="fill:none;stroke:#263238;stroke-width:1.03346;stroke-linecap:round;stroke-linejoin:round;" d="
			M255.97812,153.67584c5.64673-0.51218,11.09747,2.2132,14.07578,7.03789"/>
		<path style="fill:none;stroke:#263238;stroke-width:3.10039;stroke-linecap:round;stroke-linejoin:round;" d="
			M275.20056,150.69945c0,0-8.93945-5.95276-18.67471-2.97638"/>
		<path style="fill:none;stroke:#263238;stroke-width:3.10039;stroke-linecap:round;stroke-linejoin:round;" d="
			M288.72864,152.60101c0,0,8.92914-6.20079,21.9198,0.80612"/>
		<path style="fill:none;stroke:#263238;stroke-width:1.03346;stroke-linecap:round;stroke-linejoin:round;" d="
			M293.59625,164.23785c2.73578,0.82899,5.65591,0.82899,8.39175,0"/>
		<path style="fill:none;stroke:#263238;stroke-width:1.03346;stroke-linecap:round;stroke-linejoin:round;" d="
			M268.70007,162.33626c-3.52222-0.24365-6.85849-1.67142-9.46655-4.05118"/>
		<path style="fill:none;stroke:#263238;stroke-width:1.03346;stroke-linecap:round;stroke-linejoin:round;" d="
			M291.97369,160.71373c0,0,2.17029-4.33022,9.74557-3.78249"/>
		<path style="fill:none;stroke:#263238;stroke-width:1.03346;stroke-linecap:round;stroke-linejoin:round;" d="
			M271.13901,158.82249c0,0-1.35382-5.68405-5.68402-6.50049"/>
		<path style="fill:none;stroke:#263238;stroke-width:1.03346;stroke-linecap:round;stroke-linejoin:round;" d="
			M272.22418,174.25212c-0.45349,1.35378-0.04541,2.84743,1.03348,3.7825c1.90158,1.90157,6.50049,5.68405,8.39172,4.33022
			c1.8912-1.35384,2.97641-0.80612,5.16733-3.51378c1.25952-1.40851,1.85083-3.29161,1.62256-5.16733"/>
		<path style="fill:none;stroke:#263238;stroke-width:1.03346;stroke-linecap:round;stroke-linejoin:round;" d="
			M258.16904,178.31366c0,0,10.28299,7.5753,18.94342,8.92914s21.38242-5.68407,21.38242-5.68407"/>
		<path style="fill:none;stroke:#263238;stroke-width:1.03346;stroke-linecap:round;stroke-linejoin:round;" d="
			M261.66214,177.22852c0,0-5.41534,0.53741-5.41534,1.89125"/>
		<path style="fill:none;stroke:#263238;stroke-width:1.03346;stroke-linecap:round;stroke-linejoin:round;" d="M296.03522,180.4736
			c0,0,3.52414,0.81642,3.52414,3.51376"/>
		<path style="fill:#FFCF30;stroke:#263238;stroke-width:1.03346;stroke-linecap:round;stroke-linejoin:round;" d="
			M246.80092,109.83623c0,0,9.74559,11.90551,37.88686,13.25935c28.14127,1.35385,37.08075-6.49016,37.08075-6.49016
			l-0.81647-3.52411c0,0,0.54776-1.62254,2.17032,0.54774s2.70767,15.41931,3.51376,18.94342
			c0.80612,3.52412-2.97638,6.75887-5.16733,7.57532s-21.9198,8.66045-45.4725,4.06149
			c-16.89716-3.30708-31.93407-11.36812-33.28789-12.99065c-1.35385-1.62253-0.53741-14.07581-0.53741-17.86862
			c0-3.79281,4.86763-7.84402,6.75885-8.1127L246.80092,109.83623z"/>
		<path style="fill:#FFCF30;stroke:#263238;stroke-width:1.03346;stroke-linecap:round;stroke-linejoin:round;" d="
			M324.80692,124.90415c0,0-12.72195-2.97639-16.78348,0c-4.06149,2.97637,0,17.56893,2.70767,16.77316
			S319.14349,140.60248,324.80692,124.90415z"/>
		<path style="fill:#FFCF30;stroke:#263238;stroke-width:1.03346;stroke-linecap:round;stroke-linejoin:round;" d="
			M324.80692,124.90415c0.69238-5.37387,1.68604-10.70463,2.97635-15.96703c1.62256-5.67372,5.40506,4.06152,5.40506,13.53841
			S324.80692,124.90415,324.80692,124.90415z"/>
		<polygon style="fill:#FFCF30;stroke:#263238;stroke-width:1.03346;stroke-linecap:round;stroke-linejoin:round;" points="
			321.66516,124.11871 322.90533,130.6192 327.23553,125.97895 325.69568,121.01832 		"/>
		<path style="fill:#FFCF30;stroke:#263238;stroke-width:1.03346;stroke-linecap:round;stroke-linejoin:round;" d="
			M335.14157,279.10754c0,0,1.94293-10.33466,7.13089-16.4321c5.18799-6.09744,27.90359-6.05606,38.05225-4.31989
			c10.14865,1.73624,17.95126,13.62109,16.21506,23.34601s-7.34793,20.32828-9.94193,24.64816
			c-2.59402,4.31985-8.43307,5.40503-17.51727,0.65109C359.9964,302.24686,335.14157,279.10754,335.14157,279.10754z"/>
		<path style="fill:#FFFFFF;stroke:#263238;stroke-width:1.03346;stroke-linecap:round;stroke-linejoin:round;" d="
			M287.81915,316.94272c0,0,49.27567-0.72345,66.43118-0.72345c17.15555,0,30.30124-8.40207,30.30124-17.15555
			c0-8.75342-20.814-24.1004-32.85388-25.55759s-33.21561,12.77362-50.73282,17.88928
			c-17.51724,5.11566-22.27118,2.19095-25.91931,2.19095s-9.85928-0.73376-15.69833,1.45718
			c-5.8391,2.19095-11.67818,11.67813-14.23083,15.69836c-2.55267,4.02017-9.85928,9.12546-8.76379,12.77359
			c1.09546,3.64813,16.06004,9.12552,22.99463,9.12552c4.49536-0.13257,8.88629-1.38663,12.77362-3.64816
			c0,0-5.10535,10.22098,1.09546,7.65799s8.40207-9.84894,10.95474-13.13535
			C285.57303,321.43307,286.79358,319.23404,287.81915,316.94272z"/>
		<path style="fill:#263238;stroke:#263238;stroke-width:1.03346;stroke-linecap:round;stroke-linejoin:round;" d="
			M241.47859,305.83295v7.73035c0,2.71802,5.30167,4.92963,11.85385,4.92963c6.55214,0,11.86415-2.24261,11.86415-4.92963v-7.69934
			L241.47859,305.83295z"/>
		
			<ellipse style="fill:#FFFFFF;stroke:#263238;stroke-width:1.03346;stroke-linecap:round;stroke-linejoin:round;" cx="253.33244" cy="305.83295" rx="11.86419" ry="4.92961"/>
		<path style="fill:#FFCF30;stroke:#263238;stroke-width:1.03346;stroke-linecap:round;stroke-linejoin:round;" d="
			M258.96478,305.83295c0,1.29184-2.52164,2.34595-5.63237,2.34595c-3.1107,0-5.63239-1.03342-5.63239-2.34595
			c0-1.31247,2.52168-2.33563,5.63239-2.33563C256.44315,303.49731,258.96478,304.54114,258.96478,305.83295z"/>
		<path style="fill:none;stroke:#263238;stroke-width:1.03346;stroke-linecap:round;stroke-linejoin:round;" d="
			M287.81915,316.94272c0.40903-3.39471,0.40903-6.82629,0-10.22101c-0.46442-2.66974-1.59476-5.17923-3.28641-7.29626"/>
		<path style="fill:none;stroke:#263238;stroke-width:1.03346;stroke-linecap:round;stroke-linejoin:round;" d="M271.13901,302.4639
			c0,0-4.13385,4.97095-2.37695,9.07382c1.75693,4.10284,5.83911,10.8204,5.62207,12.32922
			c-0.21704,1.50885-2.26328,5.16733-2.26328,5.16733"/>
		<path style="fill:#FFFFFF;stroke:#263238;stroke-width:1.03346;stroke-linecap:round;stroke-linejoin:round;" d="
			M241.30289,329.92307c0,0-8.86716-6.27316-8.86716-9.51822s5.40503-14.91293,7.34795-11.67816
			c1.94293,3.23477,0.21704,7.35828-0.20667,9.30118c-0.42375,1.94293,1.94289,4.97098,1.94289,4.97098"/>
		<path style="fill:#FFFFFF;stroke:#263238;stroke-width:1.03346;stroke-linecap:round;stroke-linejoin:round;" d="
			M252.54698,332.73407c0,0-7.14124,1.03345-10.15897,0c-3.01772-1.03345-4.76428-16.21509-3.24507-18.80908
			c1.51918-2.59399,3.66881,0.21704,4.31989,3.01773c0.65106,2.80072,3.24506,10.16928,5.16733,11.67813"/>
		<path style="fill:#FFFFFF;stroke:#263238;stroke-width:1.03346;stroke-linecap:round;stroke-linejoin:round;" d="
			M252.76402,325.16913c0,0-8.26773-9.51822-10.16931-5.41534c-1.90155,4.10284,6.92424,12.11221,10.60336,14.05515
			c3.67915,1.9429,7.782-1.03348,7.782-1.03348"/>
		<path style="fill:#FFFFFF;stroke:#263238;stroke-width:1.03346;stroke-linecap:round;stroke-linejoin:round;" d="
			M265.51697,329.06528c0,0-10.59302-14.05511-13.62106-9.94193c-3.02805,4.11322,5.62204,13.62106,9.30121,15.12994
			c3.67911,1.50891,9.50787-5.16733,9.50787-5.16733"/>
		<path style="fill:#FFFFFF;stroke:#263238;stroke-width:1.03346;stroke-linecap:round;stroke-linejoin:round;" d="
			M250.86243,273.6922c0,0,10.95474,7.93701,12.03986,9.5802c1.08514,1.64325,1.09549,15.87405,1.09549,18.34406
			s-3.82382,4.13385-5.74606,3.00739c-1.92221-1.1265-3.28641-12.03989-3.55513-15.32629
			c-0.26871-3.28641-5.16731-11.77121-5.16731-11.77121S248.4028,272.86542,250.86243,273.6922z"/>
		<path style="fill:#FFCF30;stroke:#263238;stroke-width:1.03346;stroke-linecap:round;stroke-linejoin:round;" d="
			M120.00502,278.07407c0,0-4.38188,0-4.92963-5.47733c-0.54774-5.47736,9.03248-29.01971,12.59795-33.4016
			c3.56544-4.38191,25.73329-3.83417,35.03448-0.26872c9.30119,3.56546,13.96211,8.48476,16.97983,13.96213
			c2.09116,3.67279,3.22151,7.81396,3.28644,12.03986c0.08267,2.37695-9.30118,9.85928-25.18555,9.30121
			S120.00502,278.07407,120.00502,278.07407z"/>
		<path style="fill:#FFFFFF;stroke:#263238;stroke-width:1.03346;stroke-linecap:round;stroke-linejoin:round;" d="
			M165.15714,254.53175c0,0,45.17279,10.67567,57.49171,10.67567s23.54236,0.81644,25.45428,2.73868
			c1.9119,1.92221,7.12057,13.43506,8.26772,16.42178c1.14713,2.98672-0.27902,21.63043-1.3745,23.76971
			s-5.74606,0.54773-5.74606,0.54773l-0.81644-3.55515c0,0-1.09546,3.83417-6.30417,1.92224c0,0-3.5551,3.00742-5.16731,3.00742
			h-2.56303c0,0-0.54773,2.19092-4.38191,2.19092c-3.83415,0-10.67569-3.01773-13.14566-7.12057
			c-2.47-4.10287-13.96213-18.34402-14.77856-18.065c-0.81647,0.27902-27.90358,5.74606-43.26088,5.74606
			s-35.0138-3.24503-40.18112-11.99847c-5.16733-8.75345,5.46702-22.45724,14.77856-27.65553
			C142.74129,247.95891,165.15714,254.53175,165.15714,254.53175z"/>
		<path style="fill:none;stroke:#263238;stroke-width:1.03346;stroke-linecap:round;stroke-linejoin:round;" d="
			M239.63901,278.07407c0,0,6.57286,9.0325,7.66832,12.58765c1.09547,3.55508,1.09547,14.46848,1.09547,14.46848"/>
		<path style="fill:none;stroke:#263238;stroke-width:1.03346;stroke-linecap:round;stroke-linejoin:round;" d="
			M228.41559,286.27982c0,0,3.83415,6.57281,6.84152,11.50247c2.04591,3.26633,4.33278,6.37534,6.84155,9.30118"/>
		<path style="fill:none;stroke:#263238;stroke-width:1.03346;stroke-linecap:round;stroke-linejoin:round;" d="
			M217.73987,293.40039c2.75273,3.34042,5.67435,6.53799,8.75346,9.5802c3.56546,3.28641,7.94736,7.12057,7.94736,7.12057"/>
	</g>
	<g id="freepik--Plant--inject-64">
		<path style="fill:#FFFFFF;stroke:#263238;stroke-width:1.03346;stroke-linecap:round;stroke-linejoin:round;" d="
			M476.48865,317.34579c-21.45474,12.33957-36.45032,0-36.45032,0l-1.81891,16.15308
			c-1.08884,9.66345-1.02979,19.42181,0.17569,29.07138l0,0c0.92957,7.55701,7.35065,13.23306,14.96463,13.22833h9.43549
			c7.81958-0.0087,14.40842-5.8399,15.36765-13.6004l0,0c1.18335-9.62753,1.22842-19.36093,0.13434-28.99905L476.48865,317.34579z"
			/>
		
			<ellipse style="fill:#263238;stroke:#263238;stroke-width:1.03346;stroke-linecap:round;stroke-linejoin:round;" cx="458.13431" cy="317.55246" rx="18.09601" ry="6.59352"/>
		<path style="fill:#FFCF30;stroke:#263238;stroke-width:1.03346;stroke-linecap:round;stroke-linejoin:round;" d="
			M450.93103,320.37381c-2.98145-0.93073-5.70096-2.55249-7.93698-4.73325c-1.61377-1.64288-3.46329-3.03616-5.48773-4.13385
			c-4.38187-2.19095-13.49704-4.00986-13.49704-4.00986s8.03003-1.82922,14.22049-0.36169
			c6.19049,1.4675,10.58267,7.65796,10.58267,7.65796s-1.82922-2.55267-4.38187-10.21066
			c-2.55264-7.65796-2.55264-24.09006-2.55264-24.09006c3.90152,4.53958,6.98569,9.72177,9.11514,15.31595
			c1.76929,5.08508,2.99219,10.34406,3.6481,15.68802c0,0-0.72342-12.76331,1.45718-20.05957
			c2.18063-7.29626,8.39175-16.41144,8.39175-16.41144s0.36172,16.04971-2.19095,24.80316
			c-2.55267,8.75348-3.63779,12.77365-3.63779,12.77365c1.59644-4.547,4.21655-8.66635,7.65799-12.03986
			c5.47736-5.10535,18.60236-9.4769,18.60236-9.4769s-6.20078,11.30612-10.21063,14.95422
			c-4.00986,3.64816-8.01968,7.65799-8.01968,7.65799s4.37155-3.23474,12.0192-3.23474s16.77313,5.10535,16.77313,5.10535
			s-19.49112-0.11368-26.67371,3.23474c-1.43817,0.70554-2.96393,1.2164-4.53693,1.5192l-3.95819,0.70273
			c-3.13065,0.5574-6.34955,0.35175-9.38385-0.59937L450.93103,320.37381z"/>
		
			<line style="fill:none;stroke:#263238;stroke-width:1.03346;stroke-linecap:round;stroke-linejoin:round;" x1="450.84839" y1="316.8497" x2="446.35278" y2="313.73898"/>
		
			<line style="fill:none;stroke:#263238;stroke-width:1.03346;stroke-linecap:round;stroke-linejoin:round;" x1="455.685" y1="319.26801" x2="449.46353" y2="302.68091"/>
		
			<line style="fill:none;stroke:#263238;stroke-width:1.03346;stroke-linecap:round;stroke-linejoin:round;" x1="455.685" y1="319.26801" x2="459.13678" y2="297.15186"/>
		
			<line style="fill:none;stroke:#263238;stroke-width:1.03346;stroke-linecap:round;stroke-linejoin:round;" x1="455.685" y1="319.26801" x2="467.43549" y2="304.75818"/>
		
			<line style="fill:none;stroke:#263238;stroke-width:1.03346;stroke-linecap:round;stroke-linejoin:round;" x1="458.13428" y1="318.97867" x2="470.54623" y2="313.39795"/>
		<path style="fill:none;stroke:#FFCF30;stroke-width:1.03346;stroke-linecap:round;stroke-linejoin:round;" d="
			M446.04279,345.60071c0,9.69391-1.50888,17.56894-3.36911,17.56894c-1.86029,0-3.3588-7.85434-3.3588-17.56894
			c0-9.71454,1.50888-17.56891,3.3588-17.56891C444.52356,328.0318,446.04279,335.86548,446.04279,345.60071z"/>
		
			<ellipse style="fill:none;stroke:#FFCF30;stroke-width:1.03346;stroke-linecap:round;stroke-linejoin:round;" cx="457.98962" cy="350.41669" rx="7.47197" ry="20.91734"/>
		
			<ellipse style="fill:none;stroke:#FFCF30;stroke-width:1.03346;stroke-linecap:round;stroke-linejoin:round;" cx="472.56149" cy="345.18735" rx="2.61466" ry="17.93063"/>
	</g>
</g>
</svg>
